<svg width="100" height="73" viewBox="0 0 100 73" fill="none" xmlns="http://www.w3.org/2000/svg">
<path d="M89.7361 38.7734L70.3003 43.9812L71.9075 49.9791L91.3433 44.7713L89.7361 38.7734Z" fill="url(#paint0_linear_8_171)"/>
<path d="M99.7216 48.7227L99.0333 48.9071C97.4046 49.3435 95.7078 49.2588 94.3161 48.6717C92.9245 48.0846 91.952 47.0431 91.6126 45.7764L89.4668 37.7683C89.1274 36.5016 89.4489 35.1134 90.3605 33.9091C91.2722 32.7049 92.6993 31.7831 94.328 31.3467L95.0163 31.1623L99.7216 48.7227Z" fill="url(#paint1_linear_8_171)"/>
<path d="M1.58094 23.88C1.4016 23.9049 1.22581 23.9584 1.06418 24.0373C0.90255 24.1161 0.758428 24.2187 0.640473 24.3388C0.522519 24.4589 0.433181 24.594 0.377846 24.7361C0.322511 24.8782 0.302308 25.0242 0.31848 25.1654C0.2537 25.7717 1.26948 29.6935 5.81438 32.3639C6.39078 32.8048 7.11696 33.105 7.92437 33.236C8.73178 33.3671 9.5938 33.3247 10.4291 33.1129L17.1275 31.3181L16.5445 27.7508C16.5445 27.7508 5.77348 22.7566 1.58094 23.88Z" fill="url(#paint2_linear_8_171)"/>
<path d="M26.1466 50.9537L71.6028 38.7738C74.3301 38.043 79.6019 31.6792 74.2785 18.1459C66.6251 20.1966 26.6888 27.744 26.6888 27.744L26.1466 50.9537Z" fill="url(#paint3_linear_8_171)"/>
<path d="M30.4393 29.5529C30.918 29.6652 33.3553 30.1252 34.4572 30.384C35.5592 30.6427 36.1113 30.7716 37.1717 30.4875L72.3554 21.0601C72.9682 20.9079 73.5398 20.6467 73.9753 20.3196C74.4107 19.9925 74.684 19.6193 74.7495 19.262C74.532 18.5501 74.2577 17.8118 73.9076 17.0381C66.297 19.0773 26.828 27.4912 26.828 27.4912L26.4416 30.2308L28.3635 29.7158C29.0811 29.512 29.8191 29.4541 30.4393 29.5529Z" fill="#FFE9E9"/>
<path d="M26.1473 50.9535C30.484 49.7915 32.2449 42.301 30.0804 34.223C27.9159 26.145 22.6457 20.5385 18.309 21.7005C13.9724 22.8625 12.2115 30.353 14.376 38.431C16.5405 46.509 21.8107 52.1155 26.1473 50.9535Z" fill="url(#paint4_linear_8_171)"/>
<path d="M25.5008 48.5407C28.9035 47.629 30.1967 41.4216 28.3893 34.6762C26.5818 27.9307 22.3582 23.2016 18.9555 24.1133C15.5528 25.0251 14.2596 31.2325 16.0671 37.9779C17.8745 44.7233 22.0981 49.4525 25.5008 48.5407Z" fill="url(#paint5_linear_8_171)"/>
<path d="M24.6686 45.4372C27.3899 44.708 28.5031 40.0382 27.1549 35.0069C25.8068 29.9756 22.5078 26.488 19.7865 27.2172C17.0652 27.9464 15.952 32.6162 17.3002 37.6475C18.6483 42.6788 21.9473 46.1663 24.6686 45.4372Z" fill="#8BC0DD"/>
<path d="M24.1877 43.6429C26.1346 43.1213 26.8352 39.423 25.7526 35.3827C24.6699 31.3423 22.2141 28.4899 20.2673 29.0115C18.3205 29.5332 17.6199 33.2314 18.7025 37.2717C19.7851 41.3121 22.2409 44.1646 24.1877 43.6429Z" fill="#3A5E7A"/>
<path d="M23.9043 42.585C25.5697 42.1388 26.169 38.9753 25.243 35.5192C24.3169 32.0631 22.2161 29.6232 20.5507 30.0694C18.8854 30.5156 18.286 33.6791 19.2121 37.1352C20.1381 40.5913 22.2389 43.0312 23.9043 42.585Z" fill="#457497"/>
<path d="M23.4882 41.0319C24.7401 40.6965 25.1905 38.3182 24.4943 35.7198C23.7981 33.1215 22.2188 31.287 20.9669 31.6225C19.715 31.9579 19.2645 34.3362 19.9608 36.9346C20.657 39.5329 22.2363 41.3674 23.4882 41.0319Z" fill="#8BC0DD"/>
<path d="M23.2107 39.9965C24.1871 39.7349 24.5384 37.88 23.9954 35.8535C23.4524 33.827 22.2207 32.3962 21.2443 32.6578C20.268 32.9194 19.9167 34.7744 20.4597 36.8009C21.0027 38.8274 22.2344 40.2581 23.2107 39.9965Z" fill="#294254"/>
<path d="M22.9917 39.1789C23.7505 38.9756 24.0236 37.534 23.6016 35.959C23.1796 34.3841 22.2223 33.2722 21.4634 33.4755C20.7046 33.6788 20.4315 35.1204 20.8535 36.6954C21.2755 38.2703 22.2328 39.3822 22.9917 39.1789Z" fill="#3A5E7A"/>
<path style="mix-blend-mode:multiply" d="M18.3083 21.7007C14.9337 22.605 13.1202 27.3425 13.5018 33.2058C18.1886 32.9055 25.0406 31.7922 29.0314 31.0732C26.4951 24.7457 22.0542 20.697 18.3083 21.7007Z" fill="url(#paint6_linear_8_171)"/>
<path d="M57.4645 42.5705L69.1249 39.4461L72.0618 50.4067C72.1716 50.8168 72.0676 51.2662 71.7724 51.656C71.4773 52.0459 71.0153 52.3443 70.488 52.4856L62.8038 54.5446C62.2765 54.6859 61.7272 54.6585 61.2766 54.4684C60.8261 54.2783 60.5113 53.9411 60.4014 53.5311L57.4645 42.5705Z" fill="url(#paint7_linear_8_171)"/>
<path d="M1.29614 23.9647L61.9792 7.70471C65.1777 6.84767 71.9037 9.12194 74.1934 15.0372C75.0813 17.9155 75.1961 20.3245 72.4147 21.0697L37.0353 30.5496C35.9658 30.8362 35.3828 30.5881 34.2114 30.0943C33.04 29.6005 30.4634 28.6667 29.9548 28.4521C29.3011 28.2408 28.5431 28.2399 27.8227 28.4497L20.6707 30.3661C20.3324 30.5276 19.9576 30.6182 19.5853 30.6282C19.213 30.6382 18.8568 30.5673 18.5538 30.423C17.4909 29.9741 5.07904 23.2175 1.29614 23.9647Z" fill="url(#paint8_linear_8_171)"/>
<path d="M69.8191 42.0396L69.1243 39.4463L57.4658 42.5702L58.2599 45.5339C61.7793 43.5821 65.7742 42.3745 69.8191 42.0396Z" fill="#9C9C9C"/>
<defs>
<linearGradient id="paint0_linear_8_171" x1="71.1039" y1="46.9802" x2="90.5397" y2="41.7723" gradientUnits="userSpaceOnUse">
<stop stop-color="#B0B0B0"/>
<stop offset="1" stop-color="#D7D7D7"/>
</linearGradient>
<linearGradient id="paint1_linear_8_171" x1="97.3689" y1="39.9425" x2="90.5397" y2="41.7724" gradientUnits="userSpaceOnUse">
<stop stop-color="#B0B0B0"/>
<stop offset="1" stop-color="#D7D7D7"/>
</linearGradient>
<linearGradient id="paint2_linear_8_171" x1="6.52412" y1="30.3371" x2="8.60614" y2="26.1997" gradientUnits="userSpaceOnUse">
<stop stop-color="#777878"/>
<stop offset="1" stop-color="#515251"/>
</linearGradient>
<linearGradient id="paint3_linear_8_171" x1="52.7085" y1="43.3752" x2="50.1945" y2="33.9927" gradientUnits="userSpaceOnUse">
<stop offset="0.107292" stop-color="#3E3E3E"/>
<stop offset="1" stop-color="#D7D7D7"/>
</linearGradient>
<linearGradient id="paint4_linear_8_171" x1="24.3278" y1="28.8354" x2="16.7715" y2="35.3795" gradientUnits="userSpaceOnUse">
<stop stop-color="#B0B0B0"/>
<stop offset="1" stop-color="#D7D7D7"/>
</linearGradient>
<linearGradient id="paint5_linear_8_171" x1="16.0671" y1="37.9779" x2="28.3893" y2="34.6762" gradientUnits="userSpaceOnUse">
<stop stop-color="#5896C5"/>
<stop offset="1" stop-color="#74ADD2"/>
</linearGradient>
<linearGradient id="paint6_linear_8_171" x1="21.6557" y1="28.6043" x2="20.8531" y2="40.3158" gradientUnits="userSpaceOnUse">
<stop stop-color="#B0B0B0"/>
<stop offset="1" stop-color="#D7D7D7"/>
</linearGradient>
<linearGradient id="paint7_linear_8_171" x1="64.0554" y1="43.8473" x2="65.4864" y2="49.1877" gradientUnits="userSpaceOnUse">
<stop stop-color="#B0B0B0"/>
<stop offset="1" stop-color="#D7D7D7"/>
</linearGradient>
<linearGradient id="paint8_linear_8_171" x1="39.8359" y1="27.278" x2="36.636" y2="15.3358" gradientUnits="userSpaceOnUse">
<stop offset="0.9999" stop-color="#1D1D1B"/>
<stop offset="1" stop-color="#D7D7D7"/>
</linearGradient>
</defs>
</svg>
