<svg width="100" height="72" viewBox="0 0 100 72" fill="none" xmlns="http://www.w3.org/2000/svg">
<path d="M9.98557 37.7782L29.4214 42.986L27.8142 48.9842L8.37837 43.7764L9.98557 37.7782Z" fill="url(#paint0_linear_8_251)"/>
<path d="M-3.05176e-05 47.7279L0.688241 47.9123C2.31693 48.3487 4.01375 48.264 5.40541 47.6769C6.79708 47.0897 7.76959 46.0482 8.10902 44.7814L10.2548 36.7731C10.5943 35.5064 10.2728 34.1181 9.36115 32.9138C8.44951 31.7095 7.02237 30.7878 5.39368 30.3514L4.70541 30.1669L-3.05176e-05 47.7279Z" fill="url(#paint1_linear_8_251)"/>
<path d="M98.141 22.8837C98.3203 22.9086 98.4961 22.9621 98.6577 23.041C98.8194 23.1198 98.9635 23.2224 99.0814 23.3425C99.1994 23.4626 99.2887 23.5978 99.3441 23.7398C99.3994 23.8819 99.4196 24.0279 99.4034 24.1692C99.4682 24.7755 98.4524 28.6974 93.9075 31.3679C93.3311 31.8088 92.6049 32.109 91.7975 32.24C90.9901 32.3711 90.128 32.3288 89.2927 32.117L82.5944 30.3222L83.1774 26.7547C83.1774 26.7547 93.9484 21.7603 98.141 22.8837Z" fill="url(#paint2_linear_8_251)"/>
<path d="M73.575 49.9584L28.1188 37.7784C25.3915 37.0477 20.1197 30.6837 25.4433 17.15C33.0967 19.2007 73.0329 26.748 73.0329 26.748L73.575 49.9584Z" fill="url(#paint3_linear_8_251)"/>
<path d="M69.2825 28.557C68.8038 28.6693 66.3665 29.1293 65.2646 29.3881C64.1626 29.6469 63.6105 29.7758 62.55 29.4917L27.3663 20.0642C26.7536 19.9121 26.182 19.6508 25.7465 19.3237C25.311 18.9967 25.0378 18.6235 24.9723 18.2661C25.1898 17.5542 25.4641 16.8159 25.8143 16.0421C33.4248 18.0814 72.8939 26.4952 72.8939 26.4952L73.2802 29.2348L71.3584 28.7199C70.6407 28.5161 69.9027 28.4582 69.2825 28.557Z" fill="#FFE9E9"/>
<path d="M73.5744 49.9582C69.2377 48.7962 67.4769 41.3055 69.6414 33.2273C71.806 25.149 77.0763 19.5423 81.4129 20.7043C85.7496 21.8663 87.5104 29.357 85.3459 37.4353C83.1813 45.5135 77.911 51.1202 73.5744 49.9582Z" fill="url(#paint4_linear_8_251)"/>
<path d="M74.2209 47.5453C70.8182 46.6336 69.525 40.4261 71.3325 33.6804C73.14 26.9348 77.3637 22.2055 80.7664 23.1172C84.1691 24.0289 85.4622 30.2365 83.6547 36.9821C81.8473 43.7278 77.6236 48.4571 74.2209 47.5453Z" fill="url(#paint5_linear_8_251)"/>
<path d="M75.0532 44.4417C72.3319 43.7125 71.2187 39.0426 72.5669 34.0111C73.9151 28.9797 77.214 25.492 79.9354 26.2212C82.6567 26.9503 83.7698 31.6203 82.4216 36.6517C81.0735 41.6832 77.7745 45.1709 75.0532 44.4417Z" fill="#8BC0DD"/>
<path d="M75.5339 42.6473C73.5871 42.1257 72.8866 38.4274 73.9692 34.3869C75.0518 30.3464 77.5077 27.4939 79.4545 28.0155C81.4013 28.5372 82.1019 32.2355 81.0193 36.276C79.9366 40.3164 77.4808 43.169 75.5339 42.6473Z" fill="#3A5E7A"/>
<path d="M75.8174 41.5894C74.1521 41.1432 73.5527 37.9796 74.4788 34.5234C75.4049 31.0673 77.5057 28.6272 79.1711 29.0734C80.8365 29.5197 81.4358 32.6832 80.5097 36.1394C79.5836 39.5956 77.4828 42.0357 75.8174 41.5894Z" fill="#457497"/>
<path d="M76.2336 40.0363C74.9817 39.7009 74.5312 37.3225 75.2275 34.7241C75.9237 32.1256 77.503 30.2911 78.7549 30.6266C80.0068 30.962 80.4572 33.3404 79.761 35.9388C79.0648 38.5372 77.4855 40.3718 76.2336 40.0363Z" fill="#8BC0DD"/>
<path d="M76.511 39.0009C75.5346 38.7392 75.1833 36.8843 75.7263 34.8577C76.2694 32.8311 77.5011 31.4003 78.4774 31.662C79.4538 31.9236 79.8051 33.7785 79.2621 35.8051C78.7191 37.8317 77.4873 39.2625 76.511 39.0009Z" fill="#294254"/>
<path d="M76.7301 38.1832C75.9713 37.9799 75.6982 36.5383 76.1203 34.9633C76.5423 33.3883 77.4996 32.2763 78.2584 32.4797C79.0173 32.683 79.2903 34.1246 78.8683 35.6996C78.4463 37.2746 77.489 38.3866 76.7301 38.1832Z" fill="#3A5E7A"/>
<path style="mix-blend-mode:multiply" d="M81.4136 20.7045C84.7882 21.6087 86.6017 26.3464 86.22 32.2099C81.5332 31.9096 74.6812 30.7963 70.6904 30.0773C73.2268 23.7497 77.6677 19.7008 81.4136 20.7045Z" fill="url(#paint6_linear_8_251)"/>
<path d="M42.2571 41.5752L30.5968 38.4508L27.6598 49.4117C27.5499 49.8218 27.654 50.2712 27.9491 50.6611C28.2443 51.051 28.7063 51.3494 29.2336 51.4907L36.9178 53.5496C37.4451 53.6909 37.9944 53.6635 38.4449 53.4734C38.8955 53.2833 39.2103 52.9462 39.3202 52.5361L42.2571 41.5752Z" fill="url(#paint7_linear_8_251)"/>
<path d="M98.4258 22.9684L37.7427 6.70843C34.5442 5.85139 27.8182 8.12578 25.5285 14.0412C24.6406 16.9197 24.5257 19.3287 27.3071 20.0739L62.6865 29.5538C63.756 29.8404 64.339 29.5922 65.5104 29.0984C66.6818 28.6047 69.2584 27.6708 69.767 27.4562C70.4207 27.2449 71.1788 27.244 71.8991 27.4538L79.0511 29.3701C79.3894 29.5317 79.7642 29.6222 80.1365 29.6322C80.5088 29.6422 80.865 29.5714 81.168 29.4271C82.231 28.9782 94.6429 22.2212 98.4258 22.9684Z" fill="url(#paint8_linear_8_251)"/>
<path d="M29.9025 41.0444L30.5974 38.4509L42.2559 41.5748L41.4617 44.5387C37.9423 42.5869 33.9474 41.3792 29.9025 41.0444Z" fill="#9C9C9C"/>
<defs>
<linearGradient id="paint0_linear_8_251" x1="28.6178" y1="45.9851" x2="9.18197" y2="40.7773" gradientUnits="userSpaceOnUse">
<stop stop-color="#B0B0B0"/>
<stop offset="1" stop-color="#D7D7D7"/>
</linearGradient>
<linearGradient id="paint1_linear_8_251" x1="2.35269" y1="38.9474" x2="9.18193" y2="40.7773" gradientUnits="userSpaceOnUse">
<stop stop-color="#B0B0B0"/>
<stop offset="1" stop-color="#D7D7D7"/>
</linearGradient>
<linearGradient id="paint2_linear_8_251" x1="93.1977" y1="29.3411" x2="91.1156" y2="25.2036" gradientUnits="userSpaceOnUse">
<stop stop-color="#777878"/>
<stop offset="1" stop-color="#515251"/>
</linearGradient>
<linearGradient id="paint3_linear_8_251" x1="47.0131" y1="42.3798" x2="49.5272" y2="32.9971" gradientUnits="userSpaceOnUse">
<stop offset="0.107292" stop-color="#3E3E3E"/>
<stop offset="1" stop-color="#D7D7D7"/>
</linearGradient>
<linearGradient id="paint4_linear_8_251" x1="75.3941" y1="27.8394" x2="82.9505" y2="34.3835" gradientUnits="userSpaceOnUse">
<stop stop-color="#B0B0B0"/>
<stop offset="1" stop-color="#D7D7D7"/>
</linearGradient>
<linearGradient id="paint5_linear_8_251" x1="83.6547" y1="36.9821" x2="71.3325" y2="33.6804" gradientUnits="userSpaceOnUse">
<stop stop-color="#5896C5"/>
<stop offset="1" stop-color="#74ADD2"/>
</linearGradient>
<linearGradient id="paint6_linear_8_251" x1="78.0661" y1="27.6083" x2="78.8689" y2="39.3202" gradientUnits="userSpaceOnUse">
<stop stop-color="#B0B0B0"/>
<stop offset="1" stop-color="#D7D7D7"/>
</linearGradient>
<linearGradient id="paint7_linear_8_251" x1="35.6662" y1="42.8521" x2="34.2352" y2="48.1927" gradientUnits="userSpaceOnUse">
<stop stop-color="#B0B0B0"/>
<stop offset="1" stop-color="#D7D7D7"/>
</linearGradient>
<linearGradient id="paint8_linear_8_251" x1="59.8859" y1="26.2822" x2="63.0859" y2="14.3395" gradientUnits="userSpaceOnUse">
<stop offset="0.9999" stop-color="#1D1D1B"/>
<stop offset="1" stop-color="#D7D7D7"/>
</linearGradient>
</defs>
</svg>
