<svg width="113" height="47" viewBox="0 0 113 47" fill="none" xmlns="http://www.w3.org/2000/svg">
<path d="M0.0731109 35.1266C0.0731109 34.7057 0.0731109 34.2848 0.0731109 33.8783C0.175491 33.559 0.292485 33.2251 0.380239 32.9058C0.380239 32.8623 0.380239 32.8187 0.380239 32.7752C0.336362 32.5865 0.277879 32.4123 0.263253 32.2236C0.263253 32.0059 0.350991 31.7736 0.292488 31.5704C0.204734 31.2656 0.263274 31.0334 0.468035 30.8447C0.687421 30.6414 0.936057 30.5834 1.2432 30.7431C1.56496 30.9027 1.95984 30.656 2.00372 30.3512C2.09148 29.727 2.2085 29.1028 2.29625 28.4787C2.36938 27.9562 2.42788 27.4336 2.47176 27.0127C2.23774 26.9546 2.00371 26.9546 1.98908 26.8965C1.91595 26.5337 1.88669 26.1563 1.84281 25.7789L1.97449 25.7498L1.74047 25.6773C1.63809 25.2999 1.53567 24.9951 1.47717 24.6902C1.44792 24.5741 1.47718 24.4145 1.53569 24.3128C1.66732 24.1242 1.72582 23.979 1.57956 23.7613C1.3748 23.4274 1.19931 23.0791 1.4187 22.6726C1.4772 22.571 1.43332 22.4259 1.46257 22.3098C1.5357 21.9324 1.50642 21.5259 1.84281 21.2066C2.09145 20.9599 2.20846 20.5825 2.3986 20.2922C2.58873 19.9873 2.77887 19.668 3.04214 19.4358C3.18839 19.3051 3.51019 19.3632 3.8027 19.3342C3.83196 19.2906 3.87579 19.0874 3.9928 19.0439C4.28532 18.9423 4.6071 18.8552 4.92887 18.8552C5.63091 18.8552 6.34759 18.8987 7.04962 18.9132C7.19588 18.9132 7.37136 18.8987 7.47374 18.8116C7.83938 18.4778 8.21965 18.1439 8.52679 17.752C9.12645 16.9972 9.98938 16.5908 10.7792 16.1118C11.3496 15.7634 11.9931 15.5312 12.6074 15.2699C13.1339 15.0377 13.675 14.8054 14.2308 14.6603C14.9621 14.4716 15.708 14.3845 16.4393 14.2539C17.2145 14.1232 17.9897 13.9781 18.7648 13.8474C19.6277 13.7023 20.5053 13.5281 21.3828 13.47C22.4213 13.3975 23.4597 13.383 24.4689 13.1652H24.4981C25.1124 13.1652 25.7267 13.1652 26.3409 13.1652C26.5896 13.1652 26.8382 13.1072 27.0869 13.0636C27.1893 13.0491 27.3501 13.0491 27.394 12.9765C27.5695 12.7733 27.7012 12.5266 27.8767 12.3088C28.2423 11.8589 28.6226 11.4379 28.9736 10.988C29.0467 10.8864 29.0467 10.7267 29.1199 10.6251C29.4124 10.2041 29.7341 9.79771 30.0413 9.37678C30.2021 9.13002 30.3338 8.86875 30.4947 8.62199C30.9627 7.98333 31.4454 7.35918 31.8988 6.706C32.2205 6.24151 32.4984 5.74799 32.8202 5.269C32.9372 5.0803 33.098 4.90612 33.2443 4.73194C33.4929 4.39809 33.7124 4.03521 34.0049 3.74491C34.5606 3.22236 35.1603 2.74336 35.7453 2.24984C35.7746 2.23533 35.8038 2.22082 35.8331 2.2063C36.3011 2.00309 36.7399 1.74182 37.2225 1.59667C37.6759 1.46603 38.1586 1.437 38.6997 1.36443C38.8752 0.885427 39.4456 1.07412 39.8698 0.972517C40.3232 0.870911 40.7912 0.87091 41.2446 0.812849C41.3908 0.812849 41.5371 0.696728 41.698 0.682213C42.751 0.566092 43.8041 0.449969 44.8572 0.362878C45.3691 0.319333 45.8956 0.36288 46.4221 0.319335C47.2265 0.261274 48.0309 0.145153 48.8354 0.0870928C49.4058 0.0435474 49.9762 0.0870897 50.5319 0.0725746C50.8391 0.0725746 51.1462 0 51.4534 0C52.0969 0.0145151 52.7551 0.0725752 53.3986 0.101605C54.3639 0.145151 55.3146 0.174184 56.2799 0.217729C56.8795 0.24676 57.4938 0.275789 58.0935 0.319335C58.737 0.36288 59.3951 0.348363 60.024 0.464484C60.6237 0.580605 61.1941 0.754786 61.8084 0.696726C62.1302 0.667696 62.4519 0.696726 62.7737 0.725757C63.6951 0.827363 64.6166 0.958001 65.5526 1.07412C66.4302 1.17573 67.3223 1.24831 68.1999 1.36443C68.8142 1.45152 69.4138 1.59667 70.0135 1.71279C71.1104 1.93051 72.2073 2.14824 73.3189 2.36597C73.743 2.45306 74.1672 2.52563 74.5913 2.61272C75.0886 2.71433 75.5712 2.81594 76.0685 2.91755C76.8144 3.0627 77.5457 3.22236 78.2916 3.36751C78.511 3.41106 78.745 3.44009 78.9644 3.49815C79.6226 3.67233 80.2661 3.87554 80.9242 4.04972C81.6263 4.22391 82.3576 4.32551 83.045 4.54324C84.2297 4.90612 85.3851 5.32706 86.5552 5.73348C87.3011 5.99475 88.0616 6.24151 88.7929 6.54633C89.7582 6.93824 90.7089 7.37369 91.6595 7.80914C92.1714 8.0559 92.6541 8.36072 93.1514 8.62199C93.6048 8.85424 94.1021 9.02842 94.5408 9.28969C95.1551 9.65257 95.7548 10.0735 96.3398 10.4799C96.7786 10.7702 97.232 11.0605 97.6122 11.4089C98.168 11.9169 98.6799 12.483 99.1918 13.0346C99.4259 13.2814 99.616 13.5571 99.8207 13.8184C100.128 14.1958 100.479 14.5296 100.742 14.9361C101.254 15.7199 101.737 16.5327 102.219 17.3456C102.951 18.5503 103.653 19.7696 104.413 20.9599C104.662 21.3518 104.633 21.8888 105.071 22.1791C105.218 22.2807 105.305 22.4839 105.379 22.6581C105.554 23.0645 105.759 23.4419 106.183 23.6742C107.031 24.1532 107.894 24.6322 108.699 25.1838C109.576 25.7789 110.381 26.5046 111.287 27.0417C111.96 27.4336 112.253 28.0723 112.56 28.6674C112.852 29.219 112.911 29.8867 112.984 30.5253C113.072 31.2801 112.794 31.8172 112.311 32.0059C112.296 32.4268 112.267 32.8187 111.916 33.1526C111.711 33.3413 111.551 33.5445 111.302 33.7041C110.732 34.0815 110.22 34.5315 109.664 34.9379C109.532 35.025 109.327 35.0105 109.167 35.0541C108.962 35.1121 108.772 35.2282 108.567 35.3298C108.318 35.446 108.055 35.5185 107.792 35.6201C107.294 35.8088 106.812 36.0556 106.3 36.1717C105.788 36.3023 105.247 36.3023 104.72 36.3894C104.501 36.433 104.311 36.5636 104.106 36.6217C103.287 36.8104 102.453 36.9555 101.634 37.1442C101.166 37.2458 100.728 37.4636 100.259 37.5216C99.7476 37.5942 99.4843 37.899 99.265 38.2619C99.0017 38.6973 98.8555 39.2489 98.5044 39.5973C98.1827 39.9166 98.0803 40.294 97.8463 40.6279C97.6707 40.8891 97.466 41.194 97.2027 41.3391C96.252 41.8617 95.2721 42.3552 94.2776 42.8196C93.9119 42.9938 93.4878 43.0809 93.0782 43.1245C92.6102 43.168 92.113 43.1825 91.645 43.11C91.0307 43.0084 90.4018 42.8922 89.8167 42.66C89.2171 42.4132 88.6613 42.0358 88.1055 41.6875C87.696 41.4262 87.2865 41.1649 86.9647 40.8166C86.6137 40.4537 86.2919 40.0327 86.0725 39.5828C85.8532 39.1328 85.4875 38.8425 84.9756 38.9441C84.6977 38.9877 84.4344 39.0457 84.1565 39.0602C82.8695 39.1328 81.5824 39.1618 80.31 39.2489C78.9791 39.3215 77.6335 39.4376 76.3025 39.5247C76.0393 39.5392 75.776 39.5683 75.5127 39.5683C75.2056 39.5683 74.8985 39.4667 74.5913 39.4812C73.4213 39.5537 72.2366 39.6699 71.0665 39.757C70.8471 39.7715 70.6277 39.7279 70.4376 39.6989C70.2767 39.7424 70.1451 39.815 70.0135 39.8295C69.4138 39.8586 68.7995 39.844 68.1999 39.8731C67.8489 39.8731 67.4978 39.9456 67.1468 39.9602C66.7665 39.9602 66.3863 39.9456 66.0206 39.9602C64.8944 39.9892 63.7829 39.9892 62.6567 40.0473C61.472 40.1053 60.2873 40.2505 59.1027 40.323C58.6785 40.3521 58.2397 40.6424 57.8302 40.2795C57.6547 40.7585 57.406 40.3811 57.289 40.3666C57.0989 40.4392 56.9673 40.5263 56.8356 40.5408C56.4846 40.5843 56.119 40.6279 55.7533 40.6424C55.5193 40.6424 55.2853 40.5843 55.0659 40.6133C54.2469 40.6859 53.4278 40.7875 52.5942 40.8746C52.4918 40.8746 52.3894 40.8746 52.2871 40.8311C51.7167 40.6133 51.1463 40.3956 50.5612 40.1779C50.4588 40.1343 50.3418 40.1343 50.2541 40.0763C49.4935 39.5683 48.6306 40.1343 48.2357 40.6714C47.8554 41.194 47.4459 41.702 47.0657 42.21C46.9048 42.4132 46.7732 42.631 46.6269 42.8487C46.5684 42.9358 46.5391 43.0374 46.466 43.11C45.881 43.7051 45.3398 44.3292 44.7109 44.8663C44.1405 45.3453 43.5116 45.7952 42.8534 46.1436C41.9759 46.5936 40.996 46.7968 40.016 46.9274C39.8698 46.9419 39.7235 46.9855 39.5919 47H37.4126C37.4126 47 37.2957 46.9129 37.2371 46.9129C36.2718 46.8984 35.4236 46.4629 34.546 46.1436C34.0049 45.9404 33.5222 45.563 33.0688 45.1856C32.63 44.8227 32.2205 44.4163 31.8988 43.9518C31.4892 43.3422 31.1382 42.6745 30.8457 41.9923C30.5678 41.3246 30.3777 40.6133 30.2022 39.9021C30.0413 39.278 29.544 38.828 28.9297 38.799C28.4617 38.7699 27.9791 38.6973 27.511 38.6393C26.7359 38.5377 25.9461 38.4506 25.1709 38.3345C25.0393 38.32 24.9369 38.1893 24.8199 38.1022C24.7614 38.0587 24.7322 38.0006 24.6444 37.899L24.5859 38.2764C23.9423 38.2184 23.2988 38.1893 22.6845 38.0732C22.1726 37.9716 21.573 38.2619 21.2804 38.7119C20.8417 39.3796 20.3736 40.0473 19.8032 40.5988C19.3791 41.0198 18.7795 41.281 18.2383 41.5713C17.8727 41.76 17.4778 41.8907 17.0829 41.9923C16.5271 42.1229 15.942 42.1665 15.3716 42.3116C14.2893 42.5874 13.2217 42.4277 12.1832 42.1665C11.4958 41.9923 10.8084 41.731 10.1503 41.4843C9.69688 41.3101 9.21419 41.1504 8.83392 40.8601C8.27814 40.4392 7.7955 39.9021 7.28359 39.4086C7.21047 39.336 7.12272 39.278 7.06422 39.1909C6.94721 39.0167 6.84483 38.8425 6.74245 38.6683C6.61082 38.4361 6.44995 38.2183 6.34757 37.9571C6.23056 37.6523 6.12819 37.3474 6.08432 37.0281C6.04044 36.7523 6.09893 36.462 6.11355 36.2733C5.71866 36.2153 5.44078 36.1717 5.16289 36.1282C4.92888 36.0846 4.69485 36.0411 4.46084 35.9975C4.13907 35.9395 3.81733 35.8669 3.48094 35.8234C3.20305 35.7798 2.92516 35.7798 2.6619 35.7363C1.85748 35.6201 1.09691 35.2282 0.248613 35.3589C0.175484 35.3589 0.0877545 35.2718 0 35.2137L0.0731109 35.1266ZM63.0662 33.4864C63.1832 33.53 63.2856 33.588 63.4026 33.6025C63.8414 33.6171 64.2655 33.6316 64.7043 33.6316C65.4941 33.6316 66.2839 33.588 67.0737 33.588C67.5563 33.588 68.039 33.6171 68.5216 33.6171C68.9165 33.6171 69.3114 33.588 69.7063 33.5445C69.7502 33.5445 69.8233 33.3848 69.8233 33.2977C69.8526 33.0219 69.8233 32.7316 69.8672 32.4558C69.9111 32.1365 70.0281 31.8317 70.0427 31.5124C70.0427 30.9172 69.9842 30.3076 69.9696 29.7125C69.955 29.0883 70.2036 28.4932 70.1012 27.8545C69.9988 27.2885 70.3937 26.7514 70.189 26.1272C70.0427 25.6918 70.189 25.1838 70.1597 24.6902C70.1597 24.5015 70.0866 24.3274 70.0573 24.1532C70.0281 23.8629 69.9111 23.5 70.0281 23.2968C70.189 23.0355 70.1012 22.8613 70.072 22.6291C70.0427 22.4549 70.0427 22.2807 70.0135 22.1066C69.9111 21.555 70.3645 21.0179 70.0135 20.4663C69.9549 20.3792 70.0135 20.2196 70.0135 20.089C70.0281 19.5954 70.1451 19.0874 70.0281 18.6229C69.9257 18.173 69.8965 17.7665 69.9842 17.3311C70.0135 17.2295 70.0866 17.0408 70.1158 17.0408C70.306 17.0553 70.4961 17.0988 70.657 17.1859C70.7594 17.244 70.8179 17.4182 70.8325 17.5488C70.891 17.8536 70.9349 18.173 70.9495 18.4778C70.9787 19.0584 71.008 19.639 71.0226 20.2196C71.0226 20.3792 70.9641 20.5534 70.9641 20.7131C70.9641 21.076 70.9495 21.4389 70.9641 21.8017C70.9641 22.3243 70.9934 22.8613 71.008 23.3839C71.008 23.6742 71.2128 23.9645 70.9349 24.2403C70.8618 24.3129 70.891 24.487 70.9056 24.6032C70.9641 25.1402 71.125 25.7063 71.0519 26.2288C71.008 26.5917 71.0226 26.9111 71.0665 27.2449C71.0665 27.2885 71.0373 27.332 71.0226 27.3755C70.8471 27.8981 70.6423 28.4206 70.8617 28.9867C70.891 29.0738 70.8617 29.1754 70.8617 29.2625C70.8617 29.4948 70.8617 29.727 70.8764 29.9592C70.8764 30.0318 70.9056 30.1044 70.9056 30.177C70.8764 30.3947 70.8325 30.6124 70.8179 30.8301C70.8032 31.1785 70.8325 31.5269 70.7886 31.8607C70.7009 32.3978 70.7594 32.9203 70.8471 33.4429C70.891 33.7477 71.0811 33.8493 71.3736 33.7187C71.4468 33.6896 71.5345 33.6751 71.6077 33.6896C71.9733 33.7332 72.3243 33.8058 72.6899 33.8203C73.3481 33.8493 73.9916 33.6316 74.6644 33.7041C75.0886 33.7622 75.5127 33.7041 75.9515 33.6896C76.361 33.6896 76.7706 33.6896 77.1947 33.6896C77.2532 33.6316 77.2971 33.7332 77.3556 33.7477C77.7943 33.7767 78.2331 33.8058 78.6719 33.7767C79.3593 33.7332 80.0613 33.6316 80.7487 33.588C81.0266 33.588 81.1583 33.5009 81.2021 33.2251C81.2899 32.8042 81.3192 32.4123 81.2607 31.9768C81.2022 31.5124 81.3923 31.0188 81.48 30.5544C81.5239 30.2641 81.5385 29.9592 81.6117 29.6689C81.7287 29.2335 81.8749 28.798 82.0212 28.3771C82.3429 27.4336 82.6355 26.4901 83.0157 25.5612C83.2644 24.9515 83.6593 24.3999 83.981 23.8193C84.098 23.6016 84.2736 23.4129 84.3174 23.1807C84.4198 22.7452 84.4491 22.2952 84.4929 21.8598C84.5514 21.1776 84.2589 20.4954 84.5807 19.8132C84.6099 19.7696 84.5368 19.668 84.4929 19.5519C84.0834 19.7841 83.7032 19.9873 83.2205 19.7551C82.8695 19.5809 82.4307 19.5664 82.0505 19.4503C81.8165 19.3922 81.48 18.9132 81.5239 18.739C81.5824 18.5358 82.0797 18.1875 82.2991 18.202C82.3576 18.202 82.4161 18.202 82.4746 18.202C82.8402 18.202 83.1913 18.2165 83.5569 18.202C83.8933 18.1729 84.1566 18.5068 84.5661 18.3036C84.7562 18.2165 85.1365 18.4632 85.4144 18.5939C85.4436 18.5939 85.3266 18.8842 85.2974 19.0293C85.2828 19.1309 85.2828 19.2326 85.2974 19.3342C85.3705 19.9438 85.5314 20.5389 85.3559 21.1486C85.312 21.2792 85.2681 21.4098 85.2827 21.5405C85.312 22.0049 85.3413 22.4839 85.429 22.9484C85.5168 23.471 85.2096 23.8193 84.9463 24.2112C84.7123 24.5741 84.4198 24.908 84.2297 25.2854C83.9518 25.8515 83.7178 26.4611 83.4838 27.0562C83.2936 27.5062 83.0596 27.9562 82.928 28.4352C82.7378 29.1609 82.6208 29.9012 82.4453 30.6269C82.3283 31.0914 82.2552 31.5269 82.3283 32.0204C82.3868 32.4558 82.2259 32.9348 82.1528 33.3993C82.0797 33.9509 82.0212 34.488 81.9188 35.0395C81.8895 35.2282 81.8164 35.446 81.5239 35.2863C81.4947 35.2718 81.4215 35.2427 81.4069 35.2718C80.8365 35.6637 80.2368 35.2718 79.6518 35.3008C79.2569 35.3153 78.8621 35.1992 78.4818 35.2282C77.8821 35.2718 77.2824 35.4169 76.6828 35.446C75.7321 35.4895 74.7814 35.475 73.8308 35.475C73.2018 35.475 72.5583 35.4024 71.9294 35.475C71.1689 35.5766 70.3937 35.2863 69.6478 35.5621C69.6039 35.5766 69.5162 35.504 69.4577 35.504C69.0335 35.446 68.5948 35.3734 68.1852 35.6056C68.1706 35.6056 68.1414 35.6056 68.0975 35.6056L68.0097 35.2863C67.7757 35.3589 67.5563 35.4314 67.3223 35.4895C67.1761 35.5331 67.0152 35.5911 66.8835 35.5621C66.2546 35.446 65.6257 35.446 64.9968 35.504C64.5581 35.5476 64.1046 35.504 63.6512 35.504C63.1686 35.504 62.686 35.5476 62.2033 35.5476C62.0717 35.5476 61.94 35.4895 61.8084 35.4895C61.4135 35.4895 61.004 35.504 60.6091 35.5185C60.1996 35.5185 59.7754 35.5185 59.3806 35.5185C59.3806 35.7653 59.3805 35.8814 59.3513 36.012C59.205 36.7813 59.5414 37.1587 60.3019 37.2603C60.9601 37.3474 61.6036 37.0862 62.2911 37.2603C62.9053 37.4055 63.5781 37.2603 64.2217 37.2603C64.5873 37.2603 64.953 37.2603 65.3186 37.2603C65.8744 37.2313 66.4155 37.2023 66.9713 37.1442C67.1907 37.1297 67.4101 37.0717 67.6148 37.0281C67.7318 37.0136 67.8489 36.9991 67.9659 36.9991C68.3754 37.0281 68.741 37.2313 69.1944 37.1152C69.7209 36.97 70.2767 36.8394 70.8617 36.97C71.1689 37.0426 71.5199 36.912 71.8417 36.883C72.3243 36.883 72.8216 36.9846 73.3189 36.97C73.8308 36.97 74.3281 36.7959 74.8253 36.7523C75.3665 36.7088 75.9076 36.7523 76.4488 36.7088C76.6535 36.7088 76.8583 36.5346 77.0631 36.5201C77.5604 36.5056 78.0723 36.5346 78.5695 36.5201C79.3886 36.5056 80.2222 36.4475 81.0413 36.433C81.7726 36.4185 82.4892 36.433 83.2936 36.433C83.3082 36.0846 83.3229 35.7943 83.3375 35.504C83.3375 35.3734 83.3375 35.2573 83.3668 35.1266C83.4399 34.7492 83.6885 34.3573 83.2497 34.0235C83.1912 33.9799 83.1766 33.8057 83.2205 33.7332C83.6008 32.9203 83.4984 32.0494 83.5862 31.193C83.6739 30.3221 83.8494 29.4802 84.1565 28.6674C84.3467 28.1594 84.5514 27.6658 84.727 27.1578C84.8878 26.7369 84.961 26.2724 85.1657 25.866C85.6191 24.9951 85.9409 24.0371 86.8623 23.5C86.8769 23.5 86.9062 23.471 86.9062 23.4565C87.0232 22.9339 87.3596 22.6146 87.8861 22.4694C87.9007 22.4694 87.9154 22.4259 87.93 22.4259C88.281 22.2082 88.6028 21.9759 88.9684 21.7727C89.3341 21.5695 89.7143 21.3663 90.1092 21.2066C90.4456 21.0615 90.782 20.9308 91.133 20.8437C91.4109 20.7712 91.762 21.0905 91.9667 20.655C91.9813 20.626 92.1422 20.655 92.23 20.655C92.5517 20.7131 92.8881 20.7857 93.2099 20.8437C93.8388 20.9453 94.5408 20.9018 95.1112 21.1486C95.7987 21.4534 96.5592 21.6856 97.1588 22.2082C97.6122 22.6001 98.1242 22.9049 98.5922 23.2678C98.7092 23.3548 98.7531 23.5145 98.8554 23.6306C99.1918 24.0371 99.5428 24.429 99.8792 24.8209C99.9085 24.8644 99.9085 24.9225 99.9231 24.9805C100.069 25.3434 100.186 25.7208 100.362 26.0692C100.508 26.374 100.728 26.6353 100.845 26.9401C100.976 27.2739 100.991 27.6368 101.108 27.9852C101.225 28.319 101.444 28.6239 101.547 28.9577C101.664 29.3641 101.722 29.7851 101.781 30.2205C101.824 30.4818 101.81 30.7431 101.839 31.0043C101.868 31.2946 101.912 31.5849 101.941 31.9623C102.175 32.0639 102.175 32.093 102.073 32.5139C101.912 33.0945 102.029 33.6606 102.19 34.2848L102.409 34.009C102.57 34.067 102.717 34.1831 102.834 34.1686C103.243 34.1106 103.653 33.9944 104.077 33.9219C104.808 33.7912 105.496 33.588 106.168 33.2687C106.578 33.08 107.031 32.9784 107.47 32.8623C107.792 32.7752 108.187 32.8332 108.45 32.659C109.284 32.151 110.264 31.8027 110.79 30.8882C111.141 30.2786 111.229 29.9012 110.79 29.2625C110.498 28.8416 110.19 28.4497 109.883 28.0432C109.708 27.811 109.576 27.5497 109.357 27.3755C108.991 27.0852 108.582 26.882 108.201 26.6208C108.114 26.5627 108.07 26.4176 108.026 26.3595C107.88 26.2724 107.748 26.2143 107.646 26.1418C107.309 25.924 107.002 25.6628 106.651 25.4741C106.3 25.2709 105.759 25.4305 105.554 24.9225C105.554 24.8935 105.496 24.8935 105.466 24.8789C104.793 24.5015 104.121 24.1096 103.419 23.7613C102.848 23.4855 102.263 23.2532 101.678 23.0065C101.269 22.8468 100.845 22.7307 100.435 22.5565C99.5136 22.1501 98.6214 21.7001 97.7 21.3082C97.2173 21.105 96.7054 20.9599 96.1935 20.7857C95.6378 20.5825 95.0966 20.3793 94.5408 20.176C94.3068 20.0889 94.0728 20.0164 93.8388 19.9438C93.2977 19.7696 92.7711 19.6099 92.23 19.4358C91.9375 19.3487 91.6596 19.2761 91.3671 19.189C91.2208 19.1164 91.0745 19.0874 90.9283 19.0439C90.8113 19.0148 90.7089 18.9713 90.6065 18.9423C90.2847 18.8552 89.963 18.7536 89.6558 18.6665C89.2171 18.5503 88.7929 18.4197 88.3542 18.3471C87.93 18.2746 87.4912 18.3036 87.0671 18.231C86.5552 18.1294 86.0725 17.9697 85.5752 17.8391C85.1511 17.7375 84.7269 17.6649 84.3028 17.5778C83.9957 17.5198 83.6885 17.4762 83.396 17.4182C83.2644 17.4036 83.1327 17.4182 83.0304 17.3601C82.5477 17.1133 82.0212 17.0698 81.4947 17.0553C81.3192 17.0553 81.1437 17.0117 80.9828 16.9972C80.6464 16.9537 80.2953 16.8956 79.9589 16.8521C79.5202 16.8085 79.0668 16.794 78.628 16.7214C78.3647 16.6779 78.1307 16.5763 77.8675 16.7214C77.809 16.7505 77.7212 16.7795 77.6481 16.765C77.3263 16.7214 77.0192 16.6634 76.6974 16.6053C76.5073 16.5763 76.3171 16.4747 76.127 16.5037C75.7614 16.5618 75.3957 16.6489 75.1325 16.3586L74.2257 16.4457C74.2257 16.4457 74.0209 16.3005 73.9478 16.3295C73.275 16.5763 72.6314 15.865 71.9587 16.2424C71.9587 16.2424 71.9441 16.2424 71.9294 16.2424C71.5345 16.1553 71.1396 16.0537 70.7447 15.9666C70.2328 15.8505 70.0573 15.6038 70.0866 15.0957C70.1012 14.7474 70.0427 14.3845 70.0866 14.0216C70.1304 13.6152 69.8672 13.1943 70.2328 12.8169C70.3206 12.7298 70.3352 12.5266 70.3206 12.3959C70.2767 11.8734 70.189 11.3508 70.189 10.8283C70.189 10.3348 70.2913 9.85578 70.3352 9.36226C70.3352 9.31872 70.3352 9.26066 70.3206 9.23163C69.9988 8.65102 70.2475 8.04139 70.2328 7.44627C70.2036 6.74954 70.2914 6.05281 70.2914 5.34157C70.2914 4.97869 70.4522 4.71742 70.8179 4.74645C71.3005 4.79 71.7832 4.81902 72.2512 4.92063C72.8362 5.03675 73.4213 5.19642 73.9917 5.3706C74.6644 5.5593 75.4103 5.48672 76.0246 5.89315C76.0977 5.93669 76.244 6.00927 76.2879 5.98024C76.6682 5.67542 76.9461 6.08184 77.2825 6.08184C77.5457 6.08184 77.8236 6.15442 78.0723 6.24151C78.394 6.34311 78.7012 6.50278 79.0229 6.63342C79.1107 6.66245 79.2423 6.60439 79.33 6.63342C79.6811 6.77857 80.0321 6.95275 80.3831 7.0979C80.544 7.17048 80.7195 7.21403 80.9097 7.27209C81.0705 7.4753 81.246 7.72205 81.4362 7.95429C81.7433 8.31717 82.1967 8.60747 82.0797 9.20259C82.0797 9.26066 82.0797 9.31872 82.0797 9.37678C82.1821 10.0154 82.2845 10.6541 82.3722 11.2928C82.4161 11.5976 82.343 11.9605 82.46 12.2217C82.8256 12.9475 82.6647 13.7168 82.7525 14.4571C82.8256 15.0522 82.8695 15.2119 83.4692 15.3425C83.9372 15.4441 84.1273 15.299 83.9226 14.878C83.6593 14.37 83.7763 13.8765 83.747 13.383C83.7178 13.0781 83.7032 12.7733 83.6739 12.454C83.63 12.3959 83.4984 12.3233 83.4838 12.2363C83.4253 11.7863 83.4106 11.3363 83.3668 10.8718C83.3229 10.3203 82.9719 9.79772 83.1181 9.20259C83.1181 9.15905 83.045 9.10099 83.0011 9.05745C82.811 8.75263 82.7964 8.40427 83.0011 8.15751C83.1035 8.04139 83.4545 8.12848 83.6885 8.15751C83.8202 8.17202 83.9225 8.30266 84.0395 8.36072C84.7123 8.69457 85.5168 8.7236 86.1018 9.28969C86.4967 9.66708 87.0378 9.87029 87.5058 10.1751C88.3834 10.7267 89.2463 11.2928 90.1092 11.8589C90.431 12.0766 90.782 12.2798 91.0453 12.5701C91.5133 13.0491 91.9375 13.5862 92.3616 14.0942C92.6834 14.4861 92.9466 14.9216 92.9759 15.4296C93.0198 16.0392 92.9466 16.6343 92.6687 17.2004C92.5956 17.3456 92.5371 17.5053 92.4493 17.7085C92.9027 17.8391 93.2977 17.9697 93.7072 18.0713C94.3946 18.2455 95.082 18.3907 95.7694 18.5503C96.0326 18.6084 96.3105 18.681 96.5592 18.7826C97.3051 19.1019 98.051 19.3922 98.753 19.7841C99.2649 20.0744 99.967 19.8857 100.347 20.4663C100.391 20.5389 100.567 20.5389 100.669 20.5825C100.888 20.6696 101.122 20.7421 101.327 20.8437C101.722 21.0469 102.102 21.2792 102.483 21.4969L102.585 21.3953C102.307 20.9018 102.073 20.3938 101.766 19.9293C101.4 19.3922 100.932 18.9277 100.596 18.3762C100.347 17.9697 100.216 17.4907 99.8353 17.1714C99.6891 17.0408 99.499 16.9537 99.3966 16.794C99.0748 16.286 98.7823 15.778 98.285 15.3715C97.9047 15.0667 97.6269 14.6022 97.2174 14.2684C96.764 13.891 96.4568 13.3684 96.1204 12.962C95.9157 12.933 95.7109 12.962 95.5939 12.8749C95.3891 12.7153 95.2575 12.4685 95.0527 12.3088C94.6871 12.0185 94.3068 11.7427 93.9266 11.467C93.6779 11.2783 93.4147 11.1186 93.1514 10.9444C92.5371 10.538 91.9667 10.03 91.2939 9.73965C90.6943 9.4929 90.2994 9.05745 89.7875 8.69457L89.6266 8.83972C89.2756 8.59296 88.9684 8.33169 88.6321 8.15751C88.2079 7.92527 87.7399 7.76559 87.3011 7.56238C86.9355 7.3882 86.6137 7.15596 86.2334 7.03984C85.312 6.76406 84.3759 6.56084 83.4545 6.31409C83.162 6.24151 82.8987 6.08184 82.6062 6.02378C82.0065 5.89315 81.3923 5.8496 80.8219 5.67542C80.31 5.51575 79.8273 5.31254 79.2715 5.28351C78.979 5.28351 78.7011 5.06578 78.4525 4.96418L78.2478 5.16739C78.1308 5.0803 78.0576 5.00772 77.9699 4.99321C77.5896 4.90612 77.1654 4.93515 76.8583 4.63033C76.829 4.6013 76.7705 4.61581 76.7267 4.61581C76.3318 4.61581 75.9369 4.64484 75.5712 4.58678C74.8107 4.45615 74.0501 4.23842 73.2896 4.09327C72.6168 3.96263 71.9294 3.90457 71.2567 3.81748C71.1396 3.80297 71.0226 3.73039 70.9056 3.71588C70.4083 3.6433 69.9111 3.61427 69.4138 3.52718C69.092 3.46912 68.7849 3.30945 68.4631 3.28042C67.8342 3.20785 67.176 3.29494 66.5764 2.99012C66.5033 2.94657 66.3863 2.99012 66.2985 2.99012C66.0645 2.9756 65.8451 2.94658 65.6111 2.91755C65.4941 2.90303 65.3917 2.83045 65.2893 2.83045C64.7921 2.81594 64.2948 2.83045 63.8122 2.78691C62.9346 2.69982 62.0717 2.54015 61.2088 2.43854C60.4921 2.35145 59.7754 2.33694 59.0588 2.26436C58.0789 2.16276 57.1136 2.01761 56.1336 1.90148C55.8996 1.87245 55.6656 1.95955 55.4316 1.93052C54.7149 1.85794 54.0129 1.75633 53.2962 1.71279C53.0183 1.69827 52.7404 1.84343 52.4479 1.85794C51.9799 1.85794 51.5119 1.81439 51.0439 1.81439C50.3857 1.81439 49.7275 1.79988 49.0694 1.81439C48.6013 1.81439 48.1187 1.85794 47.6507 1.88697C47.2997 1.90148 46.9486 1.93052 46.5976 1.95955C46.4952 1.95955 46.3929 1.98857 46.2905 2.00309C46.0272 2.06115 45.7639 2.16276 45.5007 2.19179C44.6378 2.27888 43.7749 2.32242 42.9119 2.395C42.8681 2.395 42.8242 2.42403 42.7803 2.43854C42.4 2.55466 42.0198 2.69982 41.6395 2.80142C41.3762 2.874 41.0984 2.874 40.8205 2.91755C40.5718 2.96109 40.3378 3.03366 40.0014 3.10624C40.5718 3.10624 41.0398 3.06269 41.4932 3.10624C42.3854 3.19333 43.2191 2.74336 44.1259 2.94658C44.7109 3.07721 45.3398 3.00464 45.9541 3.04818C46.3782 3.07721 46.7731 2.99012 47.1826 2.96109C47.8847 2.91754 48.5867 2.99012 49.2887 3.01915C49.9323 3.04818 50.5758 3.10624 51.2194 3.14979C51.4972 3.1643 51.7752 3.14978 52.053 3.1643C52.6088 3.22236 53.15 3.28042 53.7058 3.36751C53.852 3.38203 53.9982 3.4546 54.1299 3.51267C54.4224 3.65782 54.6857 3.86103 54.9928 3.97715C55.7095 4.23842 56.1775 4.83354 56.0312 5.44318C55.885 6.0383 55.9289 6.69148 55.4755 7.19951C55.3292 7.37369 55.1829 7.56239 55.0952 7.78011C54.8612 8.31717 54.6857 8.89778 54.4078 9.42032C54.203 9.81223 54.2323 10.4074 53.5448 10.4364C53.7642 10.7557 53.7496 11.017 53.4717 11.2637C53.3401 11.3799 53.2377 11.525 53.15 11.6702C52.8575 12.2217 52.5503 12.7588 52.3017 13.3249C52.0091 13.9636 51.7313 14.5877 51.3218 15.1828C51.0585 15.5602 50.7074 15.6038 50.3857 15.6473C49.5228 15.7489 48.6306 15.7489 47.7677 15.807C47.6361 15.807 47.5191 15.9231 47.3874 15.9231C46.6415 15.8941 45.8956 15.8505 45.1497 15.8215C44.6232 15.807 44.0966 15.8215 43.5701 15.807C43.4092 15.807 43.263 15.7779 43.1021 15.7925C42.912 15.807 42.7364 15.8796 42.5463 15.8796C42.0636 15.8796 41.581 15.865 41.113 15.8796C40.1038 15.9086 39.08 15.9521 38.0708 15.9957C37.6028 16.0102 37.1201 15.9957 36.6521 16.0392C36.0817 16.0973 35.5259 16.1989 34.9555 16.257C34.6923 16.286 34.429 16.2279 34.1657 16.2279C33.9902 16.2279 33.8147 16.257 33.6538 16.286C33.3759 16.315 33.0981 16.3876 32.8202 16.4021C32.2937 16.4166 31.7817 16.4021 31.2552 16.4021C31.0505 16.4021 30.8457 16.4311 30.6409 16.4602C30.1436 16.5473 29.6171 16.794 29.1491 16.7069C28.7688 16.6343 28.5202 16.7795 28.213 16.8376C27.1892 17.0698 26.1508 17.2585 25.1124 17.5052C24.659 17.6214 24.191 17.781 23.7814 17.9988C23.4597 18.1729 23.2257 18.4487 22.8308 18.5503C22.4213 18.6519 22.0556 18.8987 21.6754 19.1019C21.3975 19.2616 21.1196 19.4503 20.8709 19.6535C20.4468 19.9873 20.2713 20.597 19.657 20.6986C19.6131 20.6986 19.5839 20.7857 19.54 20.8292C19.3498 21.0324 19.1597 21.2502 18.9842 21.4679C18.7209 21.7872 18.4723 22.1065 18.2237 22.4404C18.0043 22.7452 18.0189 23.2242 17.5655 23.3694C17.5362 23.3694 17.4924 23.4274 17.4777 23.471C17.2145 24.0225 16.8927 24.5161 16.7611 25.1547C16.6733 25.5757 16.6148 25.895 16.805 26.1708C16.7026 26.5046 16.4686 26.824 16.5564 27.0272C16.7026 27.361 16.4832 27.5642 16.454 27.84C16.4393 28.0142 16.3516 28.2029 16.3516 28.3771C16.3516 28.9722 16.3955 29.5673 16.3516 30.1624C16.3077 30.7721 16.1907 31.3672 16.1176 31.9768C16.1029 32.122 16.1468 32.2817 16.1614 32.4558L16.4832 32.2671V32.3688C16.688 32.4413 16.9074 32.5574 17.1414 32.601C17.5509 32.6736 17.975 32.7171 18.3992 32.7607C18.7941 32.8042 19.189 32.9058 19.5693 32.8477C19.9642 32.7897 20.2567 32.8187 20.476 33.0364C21.0903 33.1381 21.5145 32.9058 21.7338 32.572C21.7923 31.8898 21.8362 31.3091 21.8947 30.7285C21.924 30.4527 22.0264 30.206 21.8362 29.9302C21.7777 29.8431 21.8801 29.5964 21.9532 29.4512C22.0263 29.277 22.158 29.1319 22.2165 28.9577C22.4359 28.3481 21.9971 27.8691 21.8509 27.3465C21.7485 26.9982 21.573 26.6643 21.5437 26.3159C21.4998 25.8079 21.6607 25.2709 21.5437 24.7919C21.3828 24.1677 21.7631 23.6742 21.807 23.1081C21.8362 22.7162 22.0995 22.3243 22.3043 21.9469C22.4213 21.7146 22.6114 21.5259 22.743 21.3373C22.8162 21.1776 22.8454 20.9889 22.9478 20.8873C23.1526 20.6695 23.3866 20.4809 23.6352 20.3067C23.8839 20.1325 24.1325 19.9293 24.425 19.8277C24.7321 19.7261 25.0685 19.697 25.3903 19.6825C25.7998 19.668 26.1947 19.6825 26.6042 19.6825C26.8675 19.6825 27.1454 19.6825 27.394 19.6245C27.7158 19.5374 28.0229 19.3777 28.3593 19.2616C28.7981 19.1164 29.2515 19.0148 29.6903 18.8842C30.4215 18.6665 31.1528 18.4342 31.8841 18.231C32.0304 18.1875 32.279 18.2455 32.3521 18.1584C32.6739 17.7665 33.1127 18.0859 33.493 17.9117C33.7855 17.7665 34.1511 17.781 34.4875 17.723C34.9994 17.6504 35.5113 17.5923 36.0232 17.5052C36.6083 17.4036 37.2518 17.5633 37.7491 17.1133C37.9099 17.1569 38.0708 17.2295 38.2317 17.2295C39.1385 17.2875 40.0599 17.3166 40.9667 17.3746C41.3177 17.4036 41.6834 17.4472 42.0344 17.4907C42.1953 17.5053 42.3708 17.5633 42.5317 17.5778C42.8827 17.6069 43.2483 17.5923 43.5847 17.6649C44.1844 17.7956 44.7548 18.0859 45.3544 18.1004C46.115 18.1294 46.7732 18.4052 47.4459 18.681C47.8116 18.8261 48.1918 18.9568 48.5429 19.1309C48.9524 19.3342 49.3327 19.5954 49.7276 19.8277C50.1224 20.0599 50.5612 20.2341 50.8829 20.5389C51.0731 20.7131 51.5265 20.8292 51.351 21.2211C51.8044 21.1776 52.0384 21.6711 52.4479 21.7582C52.5064 21.134 52.4772 20.5389 52.6234 19.9873C52.7551 19.4648 52.799 18.9713 52.799 18.4487C52.799 17.9552 52.799 17.4762 52.799 16.9827C52.799 16.7214 53.0037 16.5763 53.1792 16.7505C53.3693 16.9392 53.5156 17.244 53.5303 17.4907C53.5303 18.0133 53.4278 18.5358 53.3986 19.0584C53.384 19.3342 53.4279 19.61 53.4279 19.8857C53.4279 20.0164 53.2962 20.147 53.2962 20.2631C53.3109 20.655 53.384 21.0469 53.4132 21.4243C53.4132 21.4969 53.384 21.5695 53.3693 21.6566C53.3547 21.9614 53.2377 22.3098 53.3401 22.542C53.5595 22.992 53.9105 23.3694 54.2615 23.8484C54.203 23.9935 54.32 24.1096 54.554 24.2403C54.7734 24.3709 55.022 24.6032 55.0952 24.8354C55.4023 25.8224 55.7972 26.7659 56.4115 27.6223C56.6894 27.9997 56.8356 28.4642 57.0111 28.9141C57.1574 29.2915 57.2452 29.6835 57.3768 30.0754C57.4353 30.2641 57.5084 30.4382 57.5816 30.6269C57.7571 31.0914 57.9472 31.5559 58.0788 32.0204C58.2105 32.4849 58.152 32.9929 58.5907 33.3703C58.737 33.5009 58.7224 33.7912 59.0588 33.6606C59.2343 33.588 59.4536 33.6171 59.6584 33.6025C60.3019 33.6461 60.9601 33.7767 61.6183 33.8057C62.1009 33.8203 62.5836 33.7187 63.0662 33.6751V33.4864ZM95.6816 35.3298L95.7109 35.3589C95.8279 35.3589 95.9595 35.3734 96.0766 35.3589C96.2959 35.3153 96.5007 35.2718 96.7054 35.2137C97.466 35.025 98.2997 35.2282 99.0309 34.8218C99.0894 34.7928 99.2064 34.8508 99.2942 34.8654C99.3673 34.8654 99.4551 34.9089 99.499 34.8799C99.7184 34.7637 99.9377 34.6767 100.201 34.7202C100.333 34.7492 100.508 34.7202 100.625 34.6621C100.786 34.575 101.035 34.4299 101.035 34.2993C101.035 33.7767 100.991 33.2542 100.947 32.7171C100.947 32.601 100.874 32.4994 100.859 32.3833C100.845 32.2817 100.83 32.18 100.83 32.0784C100.815 31.7881 100.83 31.4978 100.786 31.2075C100.698 30.7576 100.537 30.3076 100.42 29.8576C100.362 29.6254 100.333 29.3932 100.259 29.1609C100.142 28.7545 99.9962 28.3481 99.8792 27.9271C99.7768 27.5642 99.733 27.1723 99.5721 26.8385C99.3088 26.3159 98.9724 25.8224 98.6507 25.3289C98.5336 25.1547 98.3289 25.0096 98.2704 24.8209C98.1827 24.5306 98.0656 24.3419 97.7439 24.2693C97.5245 24.2258 97.2174 24.1677 97.3051 23.7903C97.3197 23.7322 97.1735 23.6016 97.0711 23.5436C96.9833 23.4855 96.8517 23.471 96.7493 23.4129C96.0619 23.05 95.3745 22.6726 94.6871 22.3098C94.6286 22.2807 94.5555 22.2807 94.4824 22.2662C94.0582 22.2082 93.6194 22.1356 93.1953 22.0775C92.7565 22.0195 92.3177 21.9904 91.8643 21.9324C91.3817 21.8888 91.0014 22.3678 90.5042 22.1791C90.4749 22.1791 90.4164 22.2517 90.3725 22.2662C90.2262 22.3388 90.08 22.3969 89.9337 22.4549C89.7582 22.5275 89.5973 22.6291 89.4511 22.7452C89.0123 23.0791 88.5735 23.3839 88.164 23.7468C87.93 23.9645 87.813 24.3274 87.5497 24.5015C87.2718 24.6902 86.9501 24.7773 86.8623 25.1547C86.8623 25.1838 86.7746 25.2128 86.7307 25.2418C86.5844 25.3579 86.3943 25.445 86.3065 25.5902C86.131 25.8805 86.0286 26.1998 85.897 26.5192C85.6337 27.1723 85.3266 27.811 85.1365 28.4787C84.8878 29.3641 84.7269 30.2786 84.5222 31.1785C84.4491 31.5269 84.3467 31.8607 84.3028 32.2091C84.2443 32.601 84.2443 33.0074 84.2004 33.4138C84.1858 33.5735 84.0834 33.7332 84.0688 33.8928C84.0103 34.5025 84.4198 35.0541 84.3321 35.6782C84.3028 35.8524 84.3906 36.0556 84.4491 36.2298C84.4637 36.2733 84.5953 36.3169 84.6684 36.3169C84.9171 36.3024 85.1657 36.2588 85.4144 36.2443C85.5167 36.2443 85.6191 36.2443 85.7215 36.2443C86.2919 36.2007 86.8477 36.1427 87.4181 36.0991C87.4912 36.0991 87.579 36.0991 87.6521 36.0991C87.9885 36.0411 88.3249 35.9395 88.6613 35.925C89.4072 35.8814 90.1531 35.8669 90.8844 35.8379C91.1184 35.8379 91.4109 35.9104 91.5572 35.7943C91.8351 35.5911 92.1129 35.6782 92.3908 35.6782C92.5225 35.6782 92.6541 35.7363 92.7858 35.7217C93.4585 35.6347 94.1313 35.5331 94.8041 35.4314C95.0674 35.3879 95.3453 35.3734 95.6085 35.3298H95.6816ZM54.1153 27.2739C53.969 27.1868 53.6765 27.1288 53.5887 26.9691C53.2816 26.403 53.0769 25.7934 52.5211 25.4015C52.4918 25.3725 52.4479 25.3289 52.4479 25.2854C52.4772 24.8064 52.0823 24.487 51.819 24.2403C51.1901 23.6161 50.7806 22.7742 49.9323 22.3533C49.5959 22.1936 49.3619 21.8598 49.0547 21.6421C48.8938 21.5259 48.7037 21.4679 48.5136 21.4098C48.2357 21.3082 47.9139 21.2792 47.6507 21.134C47.2704 20.9453 46.934 20.6405 46.5391 20.4663C46.1004 20.2631 45.6469 20.118 45.1789 20.0019C44.6524 19.8567 44.1259 19.7551 43.5994 19.668C42.9997 19.5664 42.4293 19.2616 41.7711 19.3922C41.5664 19.4358 41.3178 19.3196 41.0984 19.2761C40.9814 19.2616 40.8497 19.2471 40.7181 19.2471C39.9137 19.2761 39.0946 19.2906 38.2902 19.3342C37.9831 19.3342 37.6613 19.3487 37.3541 19.4212C36.6667 19.5809 36.0086 19.8277 35.3212 19.9293C34.5606 20.0454 33.8586 20.2922 33.142 20.5825C32.2937 20.9308 32.1913 21.0905 32.1328 22.0195C32.1181 22.2662 32.0304 22.5275 31.928 22.7597C31.6647 23.3258 31.3576 23.8774 31.0797 24.4435C30.9188 24.7483 30.8311 25.1112 30.6117 25.3579C30.3484 25.6628 29.9828 25.8805 29.661 26.1418C29.6025 26.1853 29.544 26.2434 29.4855 26.3014C29.2954 26.5192 29.1199 26.7514 28.9151 26.9691C28.7542 27.1433 28.5641 27.3175 28.3593 27.4481C27.9498 27.7094 27.6865 28.2319 27.1015 28.1448C26.9991 28.2755 26.9114 28.4206 26.7944 28.5222C26.3995 28.8996 25.8437 28.9287 25.361 29.0738C24.8345 29.2335 24.6444 29.3786 24.6151 29.9157C24.6151 30.206 24.6444 30.5108 24.6151 30.8011C24.5566 31.4833 24.4689 32.151 24.425 32.8332C24.425 32.9348 24.5859 33.1235 24.7029 33.1381C25.1124 33.1816 25.5366 33.1671 25.9607 33.1671C26.1947 33.1671 26.4287 33.1671 26.6627 33.1961C27.2477 33.2687 27.8328 33.3703 28.4178 33.4429C28.6226 33.4719 28.8274 33.3993 29.0321 33.4138C29.8073 33.4429 30.5678 33.4864 31.343 33.5009C31.8841 33.5009 32.1181 33.3268 32.2059 32.7897C32.2498 32.4994 32.1766 32.1946 32.2351 31.9043C32.396 31.1059 32.63 30.3221 32.7909 29.5383C32.9372 28.8271 33.1127 28.1449 33.4783 27.5062C33.7416 27.0272 33.8732 26.4466 34.2242 26.0402C34.7946 25.3725 35.0725 24.4725 35.8623 23.979C36.2865 23.7177 36.5936 23.2968 36.9739 22.9629C37.2225 22.7452 37.4858 22.5565 37.7783 22.3969C38.3487 22.063 38.8899 21.6566 39.5188 21.4679C40.4256 21.1921 41.3908 21.076 42.3415 20.9163C42.5463 20.8873 42.7803 21.0179 42.9705 20.9599C43.6579 20.7566 44.2721 21.105 44.9157 21.1631C45.2374 21.1921 45.5446 21.3808 45.8371 21.5405C46.2466 21.7582 46.6415 22.0049 47.051 22.2372C47.2704 22.3678 47.5044 22.4839 47.7238 22.6146C47.8701 22.6872 48.0017 22.8033 48.1187 22.9194C48.6452 23.4855 49.1864 24.0371 49.6983 24.6177C49.8738 24.8209 49.9908 25.0822 50.1517 25.2999C50.2979 25.5031 50.5173 25.6773 50.6051 25.9095C50.8391 26.5627 51.0292 27.2304 51.1901 27.9126C51.3364 28.5222 51.7459 29.0448 51.7605 29.7125C51.7605 30.0608 51.9799 30.4092 52.053 30.7721C52.1993 31.3817 52.3456 32.0059 52.4187 32.63C52.4626 33.0219 52.5064 33.4138 52.5503 33.8057C52.6088 34.3138 52.3894 34.8218 52.6088 35.3298C52.6527 35.4314 52.5503 35.5766 52.5649 35.6927C52.5796 36.1862 52.6088 36.6652 52.6527 37.1587C52.6527 37.2313 52.7843 37.3039 52.8721 37.362C53.2962 37.6668 53.7789 37.5942 54.2615 37.5507C54.9928 37.5071 55.7387 37.5797 56.4846 37.5507C56.6894 37.5507 57.0111 37.4491 57.055 37.3039C57.2744 36.7233 57.0404 36.1862 56.7187 35.7072C56.5724 35.4895 56.47 35.3008 56.5577 35.0395C56.587 34.9524 56.6017 34.8508 56.587 34.7638C56.4554 34.2993 56.2799 33.8493 56.1482 33.3848C56.0751 33.1235 56.1044 32.8332 56.0166 32.5865C55.768 31.9188 55.3438 31.2946 55.3146 30.5544C55.3146 30.4818 55.2268 30.4237 55.1829 30.3657C55.1098 30.2786 55.0221 30.1915 54.9782 30.0899C54.6857 29.3206 54.4078 28.5513 54.1445 27.7674C54.1006 27.6223 54.1153 27.4626 54.1006 27.303L54.1153 27.2739ZM41.4494 4.45615C41.2885 4.73193 41.0106 4.67387 40.7473 4.67387C40.3378 4.67387 39.9136 4.65936 39.5041 4.67387C39.1677 4.67387 38.8313 4.70291 38.5096 4.76097C38.0416 4.84806 37.5004 4.71742 37.164 5.21093C36.9885 5.47221 36.7984 5.71896 36.6228 5.96572C36.2718 6.45924 35.9062 6.93824 35.5552 7.43175C35.4382 7.59142 35.365 7.78011 35.2627 7.95429C35.2188 8.02687 35.1603 8.09945 35.1018 8.17202C34.5753 8.85423 34.0195 9.52193 33.5076 10.2187C32.9957 10.9154 32.5423 11.6266 32.045 12.3379C31.8403 12.6282 31.928 12.933 32.2936 12.9765C32.5715 13.0056 32.864 12.933 33.1566 12.9475C33.727 12.991 34.2828 13.0491 34.8385 13.1072C35.1603 13.1362 35.482 13.1652 35.8038 13.1797C36.2426 13.1943 36.6814 13.1797 37.1055 13.2088C37.632 13.2378 38.1732 13.3104 38.6997 13.3394C39.4018 13.383 40.0892 13.383 40.7912 13.4265C41.2885 13.4555 41.8004 13.5281 42.2976 13.5862C42.7218 13.6297 43.146 13.7603 43.5555 13.7313C43.848 13.7313 44.1405 13.5426 44.4184 13.412C44.4476 13.412 44.4476 13.2378 44.4184 13.2088C44.2136 13.0201 44.2868 12.8749 44.4184 12.7007C44.4769 12.6282 44.4769 12.512 44.4769 12.4104C44.4769 12.2217 44.4623 12.0185 44.4623 11.8298C44.4623 11.6121 44.5793 11.3508 44.4915 11.1912C44.2136 10.596 44.6963 10.088 44.5647 9.52193C44.5354 9.31872 44.4915 9.11551 44.4915 8.92681C44.5208 8.08493 44.5793 7.22854 44.6231 6.38666C44.6231 6.06733 44.5939 5.748 44.6231 5.42866C44.6963 4.70291 44.4038 4.45615 43.6725 4.54324C42.9851 4.61581 42.2976 4.6013 41.6102 4.63033C41.5517 4.63033 41.4932 4.54324 41.4494 4.48518V4.45615ZM36.3157 32.9784L36.4181 33.0364C36.3889 33.2832 36.3303 33.53 36.3157 33.7767C36.3011 34.3138 36.3157 34.8653 36.3157 35.4024C36.3157 35.6782 36.3157 35.9685 36.3889 36.2298C36.5498 36.8104 36.7545 37.3619 36.9446 37.928C37.164 38.5377 37.3395 39.1473 37.6174 39.7279C37.7929 40.0908 38.1293 40.3956 38.378 40.7295C38.7875 41.3246 39.3725 41.673 40.0745 41.6584C40.5133 41.6584 40.9667 41.8326 41.4347 41.5278C41.8589 41.2665 42.3269 41.0343 42.7218 40.715C42.9266 40.5553 43.1752 40.4537 43.3946 40.294C43.5847 40.1489 43.7602 39.9747 43.9065 39.786C44.1405 39.4667 44.3453 39.1183 44.5647 38.7699C44.7109 38.5522 44.8425 38.3345 44.9888 38.1167C45.1935 37.8264 45.4714 37.5797 45.6031 37.2749C45.7347 36.97 45.7494 36.6072 45.8079 36.2588C45.8956 35.7798 45.9834 35.3153 46.0711 34.8363C46.115 34.6186 46.1588 34.3864 46.1442 34.1541C46.1442 33.7477 46.1004 33.3413 46.0711 32.9494C46.0565 32.7462 45.9833 32.5429 45.9687 32.3252C45.9395 32.0494 45.9249 31.7881 45.8956 31.5124C45.8956 31.3817 45.8225 31.2366 45.8517 31.1059C46.0711 29.8721 45.5446 28.8561 44.8864 27.9126C44.5647 27.4626 44.2136 26.9982 43.6725 26.6643C43.1898 26.374 42.7803 26.1127 42.2099 26.1853C41.9759 26.2143 41.7273 26.2143 41.4932 26.1563C40.8643 25.9821 40.3378 26.1563 39.8552 26.5482C39.4456 26.882 38.9922 27.1723 38.5681 27.5062C38.4657 27.5788 38.4072 27.7094 38.3194 27.8255C38.1586 28.0432 37.9977 28.2465 37.8368 28.4642C37.8076 28.5077 37.7344 28.5368 37.7198 28.5803C37.5443 29.0738 37.3834 29.5818 37.2079 30.0754C37.1055 30.3657 36.9885 30.6414 36.9007 30.9317C36.7984 31.3091 36.6375 31.6865 36.6521 32.0639C36.6521 32.3978 36.5936 32.7752 36.3011 32.9639L36.3157 32.9784ZM41.6687 14.7909V14.6458C40.9375 14.5877 40.1915 14.5442 39.4602 14.4861C39.4017 14.4861 39.3432 14.4571 39.2847 14.4426C38.3926 14.37 37.5004 14.2974 36.6082 14.2393C36.2719 14.2248 35.9208 14.2539 35.5844 14.2974C35.248 14.341 34.9263 14.4135 34.6045 14.4571C34.2535 14.5006 33.9025 14.5442 33.5515 14.5732C33.5222 14.5732 33.4345 14.399 33.4637 14.3409C33.6539 13.9781 33.61 13.8765 33.1858 13.891C32.9664 13.891 32.7616 13.949 32.6008 13.9781C32.3814 13.92 32.1912 13.8184 32.0157 13.8184C31.7525 13.8184 31.5038 13.9636 31.2406 13.9781C30.7141 14.0071 30.1875 13.9781 29.661 14.0216C29.1199 14.0652 28.5933 14.1668 28.0522 14.2248C27.1161 14.3119 26.1801 14.3845 25.244 14.4571C25.0685 14.4571 24.893 14.4716 24.7175 14.4861C24.7614 14.6022 24.8052 14.6313 24.8345 14.6313C25.7559 14.6022 26.6773 14.5587 27.5841 14.5297C27.8767 14.5297 28.1692 14.5006 28.4617 14.5297C28.5641 14.5297 28.6518 14.6748 28.7396 14.7474C28.6372 14.849 28.5494 15.0086 28.4471 15.0232C28.0375 15.0957 27.628 15.0957 27.2185 15.1683C26.7944 15.2264 26.3702 15.357 25.9314 15.4006C25.5512 15.4296 25.1855 15.386 24.9954 15.6909C24.7321 15.6328 24.5128 15.5312 24.3226 15.5602C23.8839 15.6183 23.445 15.7344 23.0063 15.807C22.3335 15.9231 21.6461 15.9812 20.988 16.1408C20.3883 16.286 19.8179 16.5182 19.2475 16.7505C18.6625 16.9827 18.0628 17.1859 17.5363 17.5198C16.7026 18.0423 15.8836 18.6229 15.1377 19.2761C14.7135 19.639 14.2016 20.0309 14.2601 20.7421C14.2601 20.8728 14.2162 21.0324 14.1431 21.1631C14.0553 21.3082 13.9091 21.4098 13.7921 21.5405C13.6604 21.6711 13.5142 21.7727 13.4995 21.9033C13.441 22.1936 13.4264 22.4985 13.4557 22.7888C13.4557 22.8904 13.6019 23.021 13.7043 23.05C14.0261 23.1371 14.3771 23.1516 14.6989 23.2387C15.2839 23.3839 15.4155 23.3258 15.708 22.8468C16.0152 22.3388 16.3516 21.8308 16.6733 21.3227C16.7757 21.1486 16.8489 20.9599 16.9659 20.8002C17.0683 20.6696 17.2145 20.5679 17.3169 20.4373C17.624 20.0454 17.858 19.5809 18.2383 19.2761C18.955 18.6955 19.7447 18.202 20.5053 17.6649C21.1342 17.2149 21.8655 16.9392 22.5822 16.6053C23.2403 16.3005 23.8692 15.9667 24.6151 15.8941C25.3172 15.836 26.0046 15.6473 26.692 15.5457C27.5257 15.4296 28.3593 15.3425 29.193 15.2699C29.31 15.2699 29.4416 15.386 29.5733 15.4441C29.7049 15.1103 29.8804 15.0377 30.3338 15.1538C30.4508 15.1828 30.5824 15.1828 30.6994 15.1683C30.9334 15.1683 31.1675 15.1103 31.4015 15.1103C31.5916 15.1103 31.7817 15.1828 31.9719 15.1683C32.2059 15.1683 32.4253 15.0522 32.6447 15.0377C33.6539 15.0086 34.6776 15.0087 35.6868 15.0087C35.7599 15.0087 35.8477 15.0086 35.8916 14.9796C36.1841 14.6313 36.5497 14.7909 36.9007 14.7764C37.2518 14.7764 37.6174 14.8054 37.9684 14.7764C38.2317 14.7619 38.4803 14.6167 38.729 14.6313C39.1385 14.6458 39.548 14.7764 39.9722 14.7909C40.5426 14.82 41.113 14.7909 41.6834 14.7909H41.6687ZM52.053 10.9154C52.0969 10.8138 52.1408 10.6686 52.2285 10.538C52.4772 10.1316 52.8136 9.76869 53.0037 9.34775C53.4132 8.44781 53.735 7.50433 54.1299 6.58987C54.3931 5.98024 54.0714 5.34157 53.4425 5.269C53.3547 5.269 53.2816 5.1819 53.2085 5.15287C52.8721 5.00772 52.5795 4.61581 52.17 4.87709C51.9506 5.02224 51.7898 5.23997 51.6435 5.45769C51.117 6.16894 50.5905 6.86566 50.4442 7.7656C50.4296 7.85269 50.3564 7.92526 50.3126 8.01235C49.8445 8.81069 49.3619 9.59451 48.9377 10.4074C48.733 10.7847 48.7038 11.2347 48.499 11.6121C48.1772 12.2072 47.7823 12.7588 47.4313 13.3394C47.3728 13.4265 47.402 13.5862 47.4313 13.6878C47.4459 13.7313 47.5776 13.7604 47.6653 13.7604C48.0163 13.7604 48.382 13.7023 48.7184 13.7894C49.7275 14.0507 50.3418 13.891 50.7806 13.1507C51.0585 12.6862 51.3071 12.2072 51.5704 11.7282C51.7166 11.4524 51.8921 11.1912 52.0823 10.8864L52.053 10.9154ZM16.0883 16.4021L16.059 16.3005C15.9567 16.3005 15.8397 16.2715 15.7519 16.3005C15.357 16.4311 14.9767 16.5618 14.5965 16.7214C14.3625 16.8085 14.1577 16.9537 13.9237 17.0698C13.4996 17.2585 13.0754 17.4327 12.6513 17.6214C12.4319 17.723 12.1979 17.8101 11.9785 17.9262C11.7591 18.0423 11.569 18.1875 11.3788 18.3471C11.2326 18.4633 11.1302 18.7245 10.9985 18.7245C10.355 18.7245 10.2526 19.3922 9.81387 19.6535C9.52135 19.8277 9.30195 20.118 9.06794 20.3792C8.79005 20.6986 8.48292 21.0179 8.30742 21.3953C7.92715 22.2372 7.60539 23.1226 7.269 23.9935C7.07886 24.5015 6.90335 25.0096 6.71321 25.5176C6.66934 25.6482 6.53768 25.7644 6.50843 25.895C6.4353 26.403 6.40606 26.9256 6.33293 27.4336C6.28905 27.7239 6.18667 27.9997 6.14279 28.2755C5.9819 29.277 5.83568 30.2641 5.6748 31.2366L6.24518 31.5414C6.37681 31.4543 6.52308 31.4543 6.66934 31.4398C7.07886 31.3962 7.59077 31.5994 7.78091 31.0043C7.82479 30.8447 7.83941 30.685 7.91254 30.5398C8.2343 29.9157 8.36594 29.277 8.2343 28.5803C8.19043 28.3771 8.27818 28.1448 8.32205 27.9271C8.35131 27.782 8.38055 27.6513 8.40981 27.5062C8.51219 26.882 8.59994 26.2579 8.73157 25.6337C8.76083 25.4886 8.93631 25.3725 8.98019 25.3144C8.98019 25.1257 8.93633 24.9515 8.95095 24.7773C8.95095 24.6612 9.0387 24.5451 9.08258 24.429C9.31659 23.6742 9.47748 22.9049 9.76999 22.1646C10.004 21.5695 10.4428 21.0469 10.6768 20.4518C10.8377 20.0599 10.9547 19.7115 11.3496 19.4793C11.5982 19.3196 11.7737 19.0293 12.0077 18.8406C12.5781 18.3907 13.1485 17.9407 13.7336 17.5198C13.9822 17.3311 14.2455 17.1569 14.538 17.0408C15.0353 16.8085 15.5618 16.6198 16.0737 16.4166L16.0883 16.4021ZM25.2148 20.9018C24.2349 20.8728 23.6791 21.3953 23.1379 21.9179C22.9917 22.0485 22.8308 22.2082 22.8015 22.3823C22.5822 23.4565 22.5383 24.5596 22.7723 25.6337C22.8601 26.0256 22.9185 26.4321 23.1087 26.7659C23.3866 27.2739 23.8838 27.5062 24.4689 27.6949C25.01 27.8691 25.4488 27.7675 25.9022 27.5207C26.0631 27.4336 26.3117 27.3901 26.3702 27.2594C26.7066 26.4175 27.2916 25.6337 27.2185 24.6757C27.1746 24.1242 27.4818 23.5581 27.1161 23.0065C26.8382 22.5855 26.8236 22.063 26.4872 21.6276C26.1069 21.134 25.6097 21.0469 25.244 20.8873L25.2148 20.9018ZM46.2027 4.48518V4.44163C46.2027 4.44163 46.0711 4.47066 45.998 4.48518C45.6323 4.6013 45.2082 5.50124 45.2813 5.90766C45.3544 6.29957 45.3983 6.70599 45.3983 7.0979C45.3983 7.99784 45.3691 8.88326 45.3398 9.7832C45.3398 10.03 45.3252 10.2912 45.3105 10.538C45.3105 10.7702 45.2813 11.0025 45.2813 11.2492C45.2813 11.3653 45.3105 11.4815 45.3105 11.5976C45.252 12.0911 45.1643 12.5701 45.1204 13.0636C45.1204 13.1652 45.2374 13.2668 45.2959 13.3684C45.3837 13.2668 45.4861 13.1797 45.5446 13.0636C45.7054 12.7007 45.8078 12.3088 45.998 11.9605C46.3051 11.3944 46.6854 10.8573 46.9925 10.2912C47.2704 9.79772 47.4752 9.27517 47.7384 8.78166C47.8847 8.50587 48.0602 8.2446 48.2211 7.98332C48.2796 7.89623 48.3966 7.83817 48.4551 7.73657C48.9231 6.83663 49.3619 5.92218 49.8299 5.00772C50.0055 4.65936 49.9323 4.52872 49.5374 4.51421C49.0255 4.49969 48.5136 4.48518 48.0017 4.47066C47.4167 4.47066 46.817 4.47066 46.232 4.47066L46.2027 4.48518ZM9.56521 26.4176C9.63834 26.6643 9.74076 26.8095 9.69688 26.9111C9.47749 27.6949 9.72611 28.4642 9.90162 29.2045C9.98937 29.5818 10.2819 29.9883 10.6037 30.2205C11.1156 30.5834 11.686 30.5253 12.1686 30.0608C12.3588 29.8867 12.6074 29.7415 12.7098 29.5238C12.8707 29.2045 12.9145 28.8271 13.0169 28.4787C13.0462 28.3771 13.09 28.261 13.0608 28.1739C12.856 27.4626 13.1924 26.6933 12.856 25.9966C12.7829 25.8369 12.8268 25.6047 12.7829 25.416C12.7536 25.2999 12.6952 25.1692 12.622 25.0822C12.388 24.8064 12.1248 24.5596 11.8907 24.3128L10.2673 24.7628L10.1503 24.3999C10.1503 25.2563 10.004 25.9386 9.53597 26.4176H9.56521ZM5.07514 24.8499C5.10439 24.5741 5.13361 24.3274 5.17748 24.0806C5.20673 23.8919 5.25064 23.7032 5.33839 23.5436C5.5724 23.1662 5.89416 22.8323 5.87954 22.3388C5.87954 22.0775 5.92343 21.8308 6.12819 21.584C6.31833 21.3373 6.36218 20.9453 6.42068 20.6115C6.44993 20.4809 6.34756 20.3357 6.28905 20.1325L6.2013 20.9308C5.86491 20.6695 5.61629 20.4809 5.35303 20.2922C5.29453 20.2486 5.25063 20.1906 5.19212 20.176C4.54859 19.9438 3.74419 20.1325 3.33467 20.9163C3.29079 21.0034 3.20301 21.0615 3.17376 21.134C3.08601 21.3518 2.99828 21.555 2.92515 21.7727C2.8959 21.8743 2.95437 22.0485 2.89587 22.1066C2.54485 22.4114 2.70577 22.7017 2.79352 23.05C2.8959 23.4129 2.93978 23.8048 2.74965 24.1967C2.79353 24.2838 2.89587 24.3999 2.93975 24.5451C3.07138 24.9515 3.21765 25.3579 3.27615 25.7789C3.34928 26.2434 3.6418 26.3305 4.05132 26.345C4.40233 26.3595 4.63633 26.1853 4.72409 25.9095C4.84109 25.5611 4.85573 25.1838 4.91423 24.7919L5.08973 24.8499H5.07514ZM7.7955 33.9944C7.51762 33.9364 7.35673 33.8783 7.19584 33.8638C6.8302 33.8203 6.43532 33.6751 6.11355 33.7767C5.6309 33.9219 5.22138 33.7332 4.7826 33.6896H4.75337C3.94895 33.6461 3.12991 33.588 2.32549 33.559C2.17923 33.559 2.03295 33.6316 1.88669 33.6751C1.98907 33.7912 2.09145 33.9799 2.20846 33.9944C2.50097 34.038 2.7935 33.9654 3.08601 33.9944C4.08056 34.1251 5.07513 34.3138 6.06968 34.4299C7.29824 34.5896 8.52679 34.7057 9.75535 34.8218C10.1356 34.8653 10.5159 34.8218 10.8962 34.8508C11.7591 34.9234 12.622 35.025 13.4703 35.1266C13.9237 35.1847 14.3771 35.2573 14.8159 35.3298C15.4302 35.4314 16.0298 35.5766 16.6441 35.6637C16.9366 35.7072 17.2584 35.6056 17.5655 35.6637C18.5162 35.7798 19.4376 36.0121 20.4029 35.954C20.6954 35.9395 20.9879 35.983 21.2804 35.9975C21.6168 36.0701 21.9386 36.1427 22.275 36.2153C22.4651 36.2588 22.6553 36.3459 22.8601 36.3314C23.1964 36.3314 23.5474 36.2878 23.8838 36.2298C24.1471 36.1717 24.4689 36.491 24.6736 36.1717C23.84 36.012 23.0209 35.8379 22.1872 35.6782C22.0556 35.6492 21.924 35.6492 21.7924 35.6201C21.4706 35.5621 21.1342 35.504 20.8124 35.446C20.7393 35.446 20.6662 35.4024 20.6077 35.4314C20.2567 35.5911 19.9202 35.4605 19.5839 35.3879C19.2328 35.3008 18.8526 35.1702 18.5308 35.2282C18.1505 35.3153 17.8288 35.1702 17.4924 35.1266C16.9951 35.0686 16.5271 34.8508 16.0152 34.9379C15.8104 34.967 15.5764 34.9815 15.3716 34.9524C14.889 34.8799 14.4063 34.7492 13.9237 34.6767C13.5873 34.6186 13.2363 34.6331 12.8999 34.6041C12.6659 34.5751 12.4319 34.517 12.1979 34.488C11.7737 34.4444 11.3496 34.4009 10.9254 34.3718C10.8084 34.3718 10.6914 34.4299 10.589 34.4589C10.2673 34.3138 9.93087 34.2412 9.57985 34.1977C9.27271 34.1541 8.92171 34.1977 8.64382 34.067C8.30743 33.9219 8.02953 33.7041 7.81015 33.9944H7.7955ZM9.72611 23.6306L9.81387 23.6742C10.0625 23.529 10.2965 23.3839 10.5452 23.2533C10.8815 23.0791 11.2764 22.9775 11.5543 22.7452C12.0516 22.3098 12.3295 21.7146 12.5489 21.0905C12.6366 20.8437 12.7683 20.597 12.9145 20.3792C13.1047 20.0889 13.3387 19.7987 13.5581 19.5229C13.9676 19.0148 14.3478 18.4487 14.8305 18.0133C15.2254 17.6649 15.7519 17.4617 16.2346 17.2149C16.4832 17.0698 16.7465 16.9537 17.0098 16.823C17.1268 16.765 17.2438 16.7069 17.3608 16.6489C17.741 16.4602 18.1067 16.2715 18.4869 16.0973C18.8087 15.9521 19.1451 15.8505 19.4669 15.7344C19.5839 15.6909 19.7009 15.6183 19.8179 15.6038C20.476 15.4876 21.0757 15.1248 21.7777 15.2409C21.807 15.2409 21.8509 15.2264 21.8801 15.2119C22.4505 14.849 23.094 14.9796 23.7083 14.878C23.957 14.8345 24.191 14.7329 24.425 14.6458C24.2056 14.5877 24.0155 14.5877 23.84 14.5877C23.6059 14.5877 23.3719 14.5877 23.1525 14.6458C22.6699 14.7619 22.1726 14.7183 21.69 14.9796C21.3243 15.1683 20.8271 15.1103 20.3883 15.1538C20.3298 15.1538 20.2713 15.1538 20.2128 15.1828C19.7448 15.357 19.3791 15.7779 18.8233 15.7489C18.7941 15.7489 18.7648 15.7779 18.7209 15.7925C18.3407 15.9521 17.9458 16.0973 17.5655 16.257C16.9512 16.5327 16.2638 16.6924 15.8104 17.2585C15.7519 17.3311 15.6057 17.3311 15.4887 17.3601C15.3717 17.3891 15.24 17.4036 15.1377 17.4617C14.6111 17.7665 14.0992 18.0859 13.5727 18.4052C13.3533 18.5358 13.1339 18.6519 12.9438 18.8261C12.6367 19.1164 12.3587 19.4358 12.0516 19.7406C11.7883 20.0019 11.4812 20.2341 11.2618 20.5244C11.0424 20.8147 10.9108 21.1776 10.7499 21.4969C10.5452 21.8888 10.3111 22.2662 10.121 22.6581C9.97474 22.9629 9.85776 23.2968 9.74075 23.6306H9.72611ZM28.1546 25.5902L28.257 25.8224C28.3301 25.7644 28.4178 25.7208 28.4763 25.6628C28.7396 25.416 28.9882 25.1692 29.2515 24.9225C29.3685 24.8209 29.5879 24.7773 29.6317 24.6612C29.8072 24.1532 30.2168 23.7468 30.1437 23.1226C30.0998 22.7452 30.4069 22.3388 30.363 21.9614C30.3338 21.6711 30.0705 21.2356 29.8219 21.1631C29.2076 20.9889 28.5494 20.9599 27.9059 20.9018C27.7597 20.9018 27.6134 20.9599 27.4672 20.9889C27.5257 21.1485 27.5695 21.3082 27.628 21.4679C27.6719 21.5695 27.7304 21.6711 27.7596 21.7727C27.8035 21.9179 27.8328 22.063 27.862 22.2082C28.0375 22.8759 28.3008 23.5436 28.3886 24.2258C28.4471 24.6177 28.2569 25.0531 28.1546 25.5757V25.5902ZM17.7703 34.096V34.2412C18.4431 34.3428 19.1158 34.4299 19.8032 34.546C19.9787 34.5751 20.1543 34.7492 20.3005 34.7202C20.7539 34.6476 21.1927 34.6331 21.6461 34.8073C21.9825 34.9234 22.3481 34.967 22.6991 35.0105C23.2257 35.0831 23.7522 35.0105 24.2933 35.1557C24.8784 35.3298 25.5219 35.3298 26.1362 35.3879C26.224 35.3879 26.341 35.4024 26.4141 35.3734C26.6627 35.2573 26.8528 35.3008 27.1161 35.3734C27.745 35.5185 28.4178 35.4895 29.0614 35.5185C29.6318 35.5331 30.1875 35.504 30.7579 35.5331C31.0505 35.5476 31.3283 35.6637 31.6209 35.7363C31.7671 35.7217 31.928 35.7508 32.0743 35.7363C32.2205 35.7217 32.3668 35.6347 32.513 35.5911C32.4838 35.5185 32.4691 35.4169 32.4253 35.4024C32.2351 35.3153 32.0304 35.2137 31.8402 35.1992C31.226 35.1702 30.6263 35.1847 30.012 35.1702C29.1784 35.1702 28.3301 35.1992 27.4964 35.1266C26.5311 35.0395 25.5804 34.8218 24.6298 34.7202C24.1471 34.6621 23.6498 34.7202 23.1525 34.7202C23.0794 34.7202 22.9917 34.6621 22.9185 34.6331C22.8454 34.6041 22.7723 34.546 22.6845 34.5315C21.9971 34.4589 21.3097 34.4009 20.6223 34.3428C20.5346 34.3428 20.4468 34.3718 20.3444 34.3718C20.0958 34.3864 19.8325 34.4589 19.5839 34.4154C18.9842 34.3428 18.3846 34.2267 17.7703 34.1251V34.096ZM92.1568 38.5232C92.1568 38.6103 92.1129 38.7409 92.1568 38.828C92.3762 39.1473 92.581 39.4957 92.8735 39.7134C93.0344 39.8295 93.3561 39.7134 93.6194 39.7134C93.7071 39.7134 93.7803 39.7134 93.868 39.7134C94.2337 39.7134 94.6286 39.815 94.8919 39.4231C94.965 39.3215 95.1113 39.1763 95.2136 39.1909C95.5647 39.2054 95.5939 38.9151 95.7401 38.7409C95.9156 38.5232 95.8425 38.349 95.5793 38.32C95.2283 38.2909 94.8626 38.3345 94.4969 38.3635C94.2483 38.378 93.9997 38.4361 93.7657 38.4651V38.5086H92.1422L92.1568 38.5232ZM85.8824 10.9734C85.8531 11.075 85.7946 11.1621 85.8092 11.2202C85.8824 11.496 85.9994 11.7573 86.0725 12.033C86.2773 12.904 86.5113 13.7604 86.6576 14.6458C86.7453 15.1683 86.8769 15.6328 87.2865 16.0102C87.2718 15.7344 87.1841 15.4731 87.1695 15.2119C87.1256 14.6313 87.1548 14.0507 87.0963 13.4846C87.0524 13.0346 86.9208 12.5846 86.8477 12.1201C86.76 11.554 86.4821 11.1621 85.8824 10.9734ZM14.7281 27.1433C14.6843 26.9401 14.5672 26.7224 14.5965 26.5046C14.655 26.1272 14.8012 25.7789 14.9182 25.416C15.0352 25.0676 14.9183 24.7483 14.6258 24.6322C14.4649 24.5596 14.304 24.4435 14.1285 24.3999C13.9383 24.3709 13.7335 24.3999 13.5434 24.4145C13.558 24.5451 13.5581 24.6902 13.6019 24.8209C13.7336 25.3289 13.8359 25.866 14.0553 26.345C14.187 26.6498 14.2601 26.9401 14.2455 27.2594C14.2455 27.2594 14.304 27.2885 14.2893 27.2885L14.7427 27.1433H14.7281ZM84.1565 10.059C84.2882 10.6831 84.4052 11.2783 84.5222 11.8734C84.5222 11.9024 84.5515 11.9314 84.5661 11.975C84.61 12.1782 84.6538 12.3959 84.6977 12.5991C84.7562 12.9765 84.8147 13.3684 84.8732 13.7458C84.9171 14.0797 84.9317 14.4135 84.961 14.7329H84.8878L85.3266 15.4586C85.3851 15.299 85.5021 15.1393 85.4875 14.9796C85.4143 14.37 85.3266 13.7458 85.195 13.1507C85.0634 12.5701 84.7123 12.0331 85.0195 11.4234C85.0195 11.3944 84.9902 11.3363 84.9756 11.2928C84.9171 11.1186 84.8147 10.9444 84.8147 10.7702C84.7855 10.3638 84.5661 10.1751 84.1712 10.0735L84.1565 10.059ZM88.2225 12.3814C88.2225 12.6136 88.1933 12.8604 88.2225 13.0927C88.2957 13.6007 88.4273 14.0942 88.5004 14.5877C88.5735 15.1973 88.6028 15.8215 88.6759 16.4311C88.6759 16.5327 88.8222 16.6343 88.8953 16.7359C88.9684 16.6489 89.1001 16.5618 89.0854 16.4892C89.0123 15.7925 88.9099 15.1103 88.8222 14.428C88.8222 14.3555 88.749 14.2684 88.7783 14.2103C88.9977 13.4991 88.7929 12.904 88.2079 12.3959L88.2225 12.3814ZM30.6994 12.2508L30.8311 12.3379C30.9919 11.8443 31.5331 11.6702 31.7086 11.1041C31.8549 10.6541 32.3668 10.3057 32.7178 9.91384C32.8055 9.81223 32.8933 9.69611 32.9664 9.57999C33.1419 9.3042 33.3028 8.99938 33.493 8.73811C33.8001 8.30266 34.1219 7.89623 34.4144 7.46078C34.4875 7.35917 34.4875 7.19951 34.5168 7.06887L34.429 7.02532L32.63 9.36226C32.5862 9.46387 32.5569 9.66708 32.4545 9.81223C32.1035 10.3057 31.7232 10.7702 31.3722 11.2492C31.1382 11.5686 30.9188 11.9169 30.6994 12.2508ZM13.8067 30.8011C13.2509 31.1059 12.622 31.3091 12.271 31.9043C12.6805 31.9623 13.0754 32.0204 13.4703 32.0639C13.5434 32.0639 13.6312 32.0204 13.6897 31.9623C13.8798 31.7882 13.953 31.0769 13.8067 30.7866V30.8011ZM3.49553 31.0769H3.65644C3.70031 30.9463 3.75881 30.8156 3.78806 30.6705C3.84657 30.3221 3.87583 29.9592 3.93433 29.6109C3.99283 29.248 4.0952 28.8996 4.15371 28.5368C4.15371 28.4206 4.0513 28.29 3.9928 28.1594C3.90505 28.29 3.74416 28.4206 3.71491 28.5658C3.61253 29.277 3.52478 29.9883 3.45166 30.714C3.45166 30.8301 3.48094 30.9608 3.48094 31.0914L3.49553 31.0769ZM89.963 14.0942L90.4749 16.5327L90.7674 16.257C90.6943 16.1408 90.5919 16.0392 90.5919 15.9376C90.5626 15.5602 90.6065 15.1828 90.548 14.8054C90.5041 14.5442 90.4456 14.2248 89.963 14.0942ZM8.35129 31.5124L9.59449 31.7156C9.19959 30.8882 9.15571 30.8447 8.58531 30.656L8.35129 31.5124ZM9.91626 33.3558C10.6914 33.3122 11.4373 33.8783 12.2271 33.4429C11.4519 33.4864 10.706 33.109 9.91626 33.3558ZM31.3868 36.5346L31.3576 36.491L29.5733 36.6362C30.3923 36.6362 31.2113 36.9846 32.0157 36.6217L31.3868 36.5346ZM7.82479 32.9494C8.1173 33.1816 8.39518 33.3413 8.77545 33.2977C9.63837 33.2251 9.63836 33.2542 9.68224 33.1381L7.82479 32.9494ZM26.7066 36.3314V36.462L29.1199 36.7088V36.5201L26.7066 36.3314Z" fill="black"/>
<path d="M64.8949 16.3441L64.6462 16.1263C64.3391 16.2134 64.032 16.3441 63.7395 16.3441C63.5201 16.3441 63.3007 16.1408 63.0813 16.1263C62.3647 16.0683 61.6626 16.0537 60.9459 16.0537C60.6973 16.0537 60.4633 16.1844 60.2146 16.2424C59.6735 16.0683 59.1177 15.9812 58.5035 16.0828C58.1524 16.1408 57.8014 16.1118 57.4504 16.1118C57.3773 16.1118 57.2895 16.1118 57.2164 16.1118C56.7776 16.1118 56.3242 16.1118 55.8854 16.0828C55.4613 16.0538 55.0371 15.9957 54.5984 15.9812C54.145 15.9667 53.6916 15.9812 53.2382 15.9812C52.9603 15.9812 52.7409 15.7199 52.814 15.5022C52.9749 15.0522 53.1212 14.5877 53.3259 14.1523C53.5161 13.7458 53.794 13.3685 54.0133 12.9765C54.1596 12.7008 54.2766 12.425 54.4229 12.1492C54.9348 11.1767 55.4613 10.2042 55.9732 9.23164C56.3388 8.56394 56.7191 7.91076 57.0555 7.22855C57.3041 6.73503 57.4358 6.18346 57.6844 5.68995C57.9477 5.19643 58.2841 4.74646 58.6059 4.28198C58.6644 4.19489 58.796 4.16586 58.8983 4.12231C59.1616 4.03522 59.4102 3.9191 59.6735 3.87556C60.0099 3.81749 60.3463 3.78846 60.6827 3.77395C61.0776 3.75943 61.4871 3.77395 61.882 3.77395C62.1014 3.77395 62.3208 3.80298 62.5255 3.83201C62.5987 3.83201 62.6718 3.89007 62.7303 3.86104C63.2568 3.61428 63.7541 3.83201 64.266 3.87556C64.3391 3.87556 64.4561 3.87555 64.4854 3.83201C64.7048 3.55622 64.8218 3.67234 65.0558 3.84652C65.2605 3.99168 65.5823 3.96264 65.8456 4.04974C66.4306 4.25295 67.0595 3.99168 67.6299 4.2094C67.8493 4.28198 68.0687 4.32553 68.2881 4.3981C68.6976 4.54325 68.8585 5.08031 68.7269 5.48674C68.6098 5.87864 68.566 6.29958 68.5806 6.70601C68.6245 7.59143 68.7853 8.47685 68.5367 9.36227C68.4636 9.62355 68.5367 9.92836 68.5075 10.2187C68.4636 10.8573 68.3466 11.5105 68.3758 12.1492C68.4051 12.9765 68.4343 13.7894 68.3027 14.6022C68.2442 14.9506 68.2735 15.3135 68.2296 15.6618C68.2296 15.7634 68.1125 15.9231 68.0248 15.9376C67.6006 16.0392 67.1765 16.1263 66.7524 16.1408C66.2551 16.1554 65.7432 16.0828 65.2313 16.0828C65.1289 16.0828 65.0119 16.2279 64.851 16.3441H64.8949ZM59.5565 14.3119C59.9075 14.37 60.0976 14.2394 60.1269 13.8765C60.1415 13.7313 60.2 13.5862 60.2146 13.441C60.2439 12.8895 60.2732 12.3234 60.2878 11.7718C60.3171 10.988 60.3463 10.1896 60.3317 9.40582C60.3317 9.15906 60.1854 8.92682 60.1562 8.68006C60.0684 8.143 60.0099 7.62046 59.4395 7.31564C59.0592 7.11243 58.8399 7.0834 58.6059 7.44628C58.1817 8.11397 57.7868 8.79618 57.4065 9.49291C56.9824 10.2622 56.5875 11.0315 56.2072 11.8153C55.9001 12.454 55.6222 13.1217 55.3589 13.7894C55.3151 13.891 55.4321 14.1523 55.4906 14.1668C56.1926 14.2394 56.8946 14.2974 57.5967 14.3265C58.2548 14.3555 58.913 14.3265 59.5565 14.3265V14.3119Z" fill="black"/>
<path d="M42.0059 27.9707C42.1668 28.0142 42.3277 28.0142 42.4593 28.0868C42.708 28.2029 42.9712 28.319 43.176 28.4932C43.4246 28.6964 43.6732 28.9432 43.8488 29.2045C44.0681 29.5383 44.3753 29.8431 44.2144 30.3221C44.1998 30.3802 44.3022 30.4963 44.3753 30.5689C44.4338 30.627 44.5654 30.656 44.58 30.7141C44.6532 31.1785 44.8872 31.5269 45.2382 31.8172C45.2675 31.8462 45.2675 31.9043 45.2675 31.9478C45.2967 32.9639 45.2967 33.9799 45.1066 34.996C45.0042 35.5621 44.697 36.0266 44.5362 36.5491C44.4484 36.8249 44.1852 37.0281 44.0243 37.2749C43.9512 37.391 43.8927 37.5507 43.878 37.6813C43.8488 38.0442 43.8195 38.0877 43.4539 38.1022C43.2784 38.4651 43.1028 38.8135 42.942 39.1619C42.9127 39.2054 42.8835 39.2635 42.825 39.2925C42.4593 39.4667 42.0937 39.6409 41.7134 39.8005C41.3185 39.9602 40.9675 39.9747 40.5141 39.786C40.0753 39.5973 39.7536 39.307 39.4903 38.9877C39.0954 38.5087 38.642 38.0152 38.4665 37.4491C38.2764 36.8249 37.8961 36.2298 38.057 35.4895C38.1593 35.0831 37.9985 34.6186 37.9985 34.1832C37.9985 33.9219 38.0131 33.6316 38.1155 33.3848C38.3202 32.8187 38.3495 32.2381 38.4518 31.6575C38.525 31.2511 38.8029 30.8882 38.993 30.5108C39.0223 30.4528 39.0661 30.3947 39.0954 30.3367C39.2124 30.0464 39.3294 29.7415 39.4464 29.4512C39.4611 29.4077 39.5049 29.3787 39.5342 29.3496C39.8267 29.1174 40.1046 28.8706 40.3971 28.6529C40.4702 28.5948 40.5726 28.5658 40.6604 28.5368C40.792 28.4932 40.9236 28.4497 41.0406 28.4061C41.3624 28.2755 41.6842 28.1304 41.9913 27.9997L42.0059 27.9707ZM40.0753 32.8333C39.9729 33.1961 39.8267 33.501 39.8267 33.8203C39.8267 34.488 39.8706 35.1702 39.9876 35.8379C40.1046 36.5201 40.5434 37.0572 41.0845 37.4636C41.5818 37.841 41.9913 37.7394 42.43 37.2894C42.5617 37.1443 42.708 37.0136 42.8689 36.8975C43.3223 36.5491 43.7464 36.2443 43.8342 35.5911C43.9073 35.0396 43.9511 34.5315 43.8634 33.9945C43.8341 33.8493 43.9219 33.6751 43.9073 33.53C43.8634 33.1671 43.8634 32.7607 43.7025 32.4559C43.5124 32.1075 43.1614 31.8317 42.8835 31.5269C42.5471 31.1785 42.1668 30.8737 41.6842 30.8737C40.6165 31.135 40.4263 32.1946 39.6658 32.7462L39.7536 32.8478H40.0753V32.8333Z" fill="black"/>
</svg>
