<svg width="130" height="269" viewBox="0 0 130 269" fill="none" xmlns="http://www.w3.org/2000/svg">
<path fill-rule="evenodd" clip-rule="evenodd" d="M64.5744 1.47443C112.962 3.17118 127.635 9.8261 122.276 80.9379C121.435 82.9025 120.592 84.8671 119.752 86.829C120.744 119.646 121.735 152.661 119.752 185.277C122.973 188.796 121.435 193.505 122.276 197.619C123.653 208.213 124.237 223.17 122.838 237.729C120.496 270.436 86.4193 267.444 67.0212 268.02C45.4049 267.537 16.2499 274.589 8.12137 238.008C7.32671 221.145 7.12832 207.654 8.12 189.204C8.86782 187.801 9.61591 186.401 10.3637 184.999C9.46078 152.581 8.35944 120.759 10.0347 86.5589C9.04306 83.8476 8.05139 81.1363 7.05971 78.4277C3.42367 8.34919 17.2407 3.92124 64.5735 1.47443H64.5744Z" fill="white" stroke="black" stroke-width="0.75"/>
<path fill-rule="evenodd" clip-rule="evenodd" d="M119.752 27.9276C109.468 7.45236 86.0005 4.92812 63.654 4.36712C39.9079 5.39572 21.2096 5.86303 9.24283 31.012C12.5141 21.4766 9.33541 2.12421 63.9351 1C113.489 1.93632 116.478 15.2124 119.752 27.9276Z" fill="black" stroke="black" stroke-width="0.75"/>
<path fill-rule="evenodd" clip-rule="evenodd" d="M17.9367 65.5126C40.0952 40.3611 89.7401 38.2119 111.337 65.7936C109.841 78.8818 108.345 91.9701 106.851 105.061C86.4694 100.479 54.3055 95.6182 22.9874 106.464C21.303 92.8132 19.6203 79.1629 17.9373 65.5126H17.9367Z" fill="black" fill-opacity="0.83065" stroke="black"/>
<path fill-rule="evenodd" clip-rule="evenodd" d="M26.6317 195.656C53.9329 198.555 79.2684 200.33 103.483 194.254V234.362C79.4558 250.349 50.3779 249.508 27.1911 235.202C27.0051 222.02 26.8183 208.838 26.6312 195.656H26.6317Z" fill="black" fill-opacity="0.83065" stroke="black"/>
<path fill-rule="evenodd" clip-rule="evenodd" d="M122.135 81.359C128.539 84.3045 129.616 91.1765 127.604 92.7196C125.362 92.4853 121.994 89.3056 119.752 88.7931C119.705 88.1373 119.658 87.4843 119.611 86.8285C120.545 85.0512 121.201 83.1362 122.135 81.359Z" fill="url(#paint0_linear_12_50)" fill-opacity="0.75" stroke="black"/>
<path fill-rule="evenodd" clip-rule="evenodd" d="M7.7742 80.6784C1.24634 83.3401 -0.129991 90.157 1.8101 91.7855C4.0621 91.6505 7.56451 88.625 9.82891 88.209C9.90441 87.5559 9.97991 86.9056 10.0554 86.2526C9.19957 84.4368 8.63003 82.4942 7.7742 80.6784Z" fill="url(#paint1_linear_12_50)" fill-opacity="0.75" stroke="black"/>
<path d="M110.692 26.0835C109.666 25.5895 108.486 24.8441 107.16 23.8876C105.53 22.5005 104.256 21.2484 103.361 20.13C102.458 18.9997 101.98 18.0513 101.875 17.2726C101.776 16.5373 102.002 15.9112 102.643 15.3485C103.294 14.7767 104.377 14.27 105.99 13.8623C106.12 13.9124 106.317 14.0064 106.583 14.1545C106.923 14.3443 107.34 14.6033 107.808 14.9186C108.743 15.549 109.866 16.3932 110.958 17.3328C112.052 18.2738 113.105 19.3008 113.908 20.2961C114.708 21.2865 115.211 22.1849 115.323 22.9009C115.24 24.3254 114.983 25.285 114.614 25.8871C114.261 26.4637 113.8 26.7258 113.2 26.7624C112.561 26.8014 111.73 26.5837 110.692 26.0835Z" fill="#FFE792" stroke="black"/>
<path fill-rule="evenodd" clip-rule="evenodd" d="M23.7402 13.0693C30.7241 14.1924 29.9002 17.9172 23.7834 24.0402C18.738 28.3409 15.529 29.2568 14.7242 23.366C14.9113 19.8804 22.3258 13.5586 23.7402 13.0693Z" fill="#FFE792" fill-opacity="0.75" stroke="black"/>
<path fill-rule="evenodd" clip-rule="evenodd" d="M14.571 75.3301C12.0467 115.906 12.6077 153.397 14.01 192.57C15.132 199.489 15.9735 206.689 17.0952 213.605C20.5078 196.544 22.6581 160.55 21.022 126.658C19.5729 108.425 17.2823 92.579 14.571 75.3301Z" fill="black" fill-opacity="0.83065" stroke="black"/>
<path fill-rule="evenodd" clip-rule="evenodd" d="M115.795 72.1586C118.319 112.735 117.759 150.225 116.357 189.399C115.233 196.318 114.392 203.518 113.271 210.436C109.857 193.372 107.708 157.378 109.344 123.487C110.794 105.257 113.083 89.4075 115.795 72.1586Z" fill="black" fill-opacity="0.83065" stroke="black"/>
<path fill-rule="evenodd" clip-rule="evenodd" d="M54.0652 248.197L76.8718 247.998L76.2766 250.379L55.2528 250.577L54.0652 248.197Z" fill="black" fill-opacity="0.58065" stroke="black"/>
<path fill-rule="evenodd" clip-rule="evenodd" d="M70.3277 254.842C70.3277 255.499 69.8366 256.13 68.9626 256.595C68.0885 257.06 66.903 257.321 65.6669 257.321C64.4308 257.321 63.2453 257.06 62.3712 256.595C61.4972 256.13 61.0061 255.499 61.0061 254.842C61.0061 254.184 61.4972 253.554 62.3712 253.089C63.2453 252.624 64.4308 252.363 65.6669 252.363C66.903 252.363 68.0885 252.624 68.9626 253.089C69.8366 253.554 70.3277 254.184 70.3277 254.842Z" fill="#C5C5C5" stroke="black"/>
<path fill-rule="evenodd" clip-rule="evenodd" d="M98.4908 253.95C100.012 251.173 112.042 246.213 114.356 247.998C116.01 252.958 107.349 258.113 103.845 259.304C100.869 259.304 98.2924 256.923 98.4908 253.95Z" fill="#FF0000" fill-opacity="0.71774" stroke="black"/>
<path fill-rule="evenodd" clip-rule="evenodd" d="M33.3417 254.463C31.8207 251.685 19.7898 246.728 17.476 248.514C15.8231 253.471 24.4836 258.629 27.9874 259.816C30.961 259.816 33.5401 257.438 33.3417 254.463Z" fill="#FF0000" fill-opacity="0.71774" stroke="black"/>
<path d="M106.225 105.797C103.051 135.547 102.853 164.898 103.249 193.061" stroke="black" stroke-opacity="0.64516" stroke-width="3.5"/>
<path d="M23.1246 106.789C25.8351 139.248 26.7607 166.749 26.8929 194.648" stroke="black" stroke-opacity="0.66129" stroke-width="2.75"/>
<path d="M62.0807 190.093C61.954 189.815 62.1469 190.705 62.202 191.005C62.3122 191.606 62.4472 192.198 62.5987 192.788C63.0506 194.54 63.6486 196.238 64.2906 197.924C64.4476 198.321 64.6074 198.718 64.7673 199.112L64.5386 199.156C64.3732 198.759 64.2079 198.365 64.0453 197.971C63.0313 195.483 61.6399 192.755 61.1191 190.093H62.0807Z" fill="black" fill-opacity="0.75"/>
<path fill-rule="evenodd" clip-rule="evenodd" d="M47.5183 259.105C47.4191 260.659 46.9231 262.015 46.328 263.47C59.452 264.195 73.6645 264.327 87.1853 262.676C86.3587 261.618 85.8296 260.163 85.5982 258.312C73.4991 259.568 60.4109 259.634 47.5183 259.105Z" fill="#FFE792" stroke="black"/>
<path fill-rule="evenodd" clip-rule="evenodd" d="M70.0218 10.301C70.0218 11.0073 69.4785 11.6846 68.5114 12.1839C67.5443 12.6833 66.2327 12.9639 64.865 12.9639C63.4974 12.9639 62.1857 12.6833 61.2187 12.1839C60.2516 11.6846 59.7083 11.0073 59.7083 10.301C59.7083 9.5948 60.2516 8.91749 61.2187 8.41811C62.1857 7.91873 63.4974 7.63818 64.865 7.63818C66.2327 7.63818 67.5443 7.91873 68.5114 8.41811C69.4785 8.91749 70.0218 9.5948 70.0218 10.301Z" fill="#C5C5C5" stroke="black" stroke-width="0.465333"/>
<path d="M17.7964 64.0853C19.4795 26.3691 35.4661 8.54432 64.498 6.6293C100.586 7.7086 109.188 30.7392 111.337 64.234" stroke="black" stroke-opacity="0.46774" stroke-width="2"/>
<path d="M112.968 211.109C111.645 242.049 94.0601 261.089 66.1615 258.709C42.2307 259.502 19.4875 244.827 16.9773 214.68" stroke="black" stroke-opacity="0.52419" stroke-width="1.625"/>
<defs>
<linearGradient id="paint0_linear_12_50" x1="119.44" y1="87.0379" x2="128.694" y2="87.0379" gradientUnits="userSpaceOnUse">
<stop/>
<stop offset="1"/>
</linearGradient>
<linearGradient id="paint1_linear_12_50" x1="0.829002" y1="86.234" x2="10.2277" y2="86.234" gradientUnits="userSpaceOnUse">
<stop/>
<stop offset="1"/>
</linearGradient>
</defs>
</svg>
