<svg width="67" height="53" viewBox="0 0 67 53" fill="none" xmlns="http://www.w3.org/2000/svg">
<path d="M0 20.2381C0.591665 18.3524 1.92739 17.688 3.82789 17.7508C6.29316 17.8226 8.7674 17.7867 11.2416 17.7508C11.5913 17.7508 12.0036 17.5982 12.2815 17.3737C17.5707 13.0187 22.8329 8.63678 28.1131 4.26385C29.6729 2.97082 31.5824 3.06062 32.6671 4.59608C33.0526 5.13484 33.2498 5.90706 33.2856 6.58949C33.3753 8.14292 33.3125 9.7143 33.3125 11.2767C33.3125 23.1474 33.3125 35.027 33.3125 46.8977C33.3125 48.8193 32.3085 50.0764 30.6052 50.2919C29.6639 50.4086 28.875 50.0495 28.1579 49.4568C24.1597 46.1345 20.1525 42.8121 16.1453 39.4898C14.8454 38.4123 13.5545 37.3168 12.2367 36.2572C11.9767 36.0507 11.5823 35.907 11.2506 35.907C8.82119 35.8801 6.39178 35.8172 3.97133 35.916C2.06186 35.9878 0.681311 35.4042 0 33.5275C0 29.1007 0 24.6739 0 20.2381Z" fill="#E24848"/>
<path d="M66.6251 25.8412C66.4637 36.1764 63.5233 44.4733 57.6246 51.6927C56.4233 53.1653 54.6304 53.4167 53.2588 52.3302C51.5376 50.9654 51.197 49.2234 52.4341 47.625C53.9849 45.6137 55.4372 43.5395 56.5668 41.2587C58.1625 38.0261 59.2292 34.623 59.6775 31.0492C60.7353 22.6266 58.781 14.9493 53.9132 8.01721C53.3126 7.16417 52.6313 6.37399 51.9769 5.56585C50.6501 3.94059 50.8742 2.18064 52.6044 0.734965C53.967 -0.396431 55.7779 -0.162968 57.0329 1.30066C61.7393 6.7601 64.7694 13.0367 65.9886 20.1483C66.3651 22.3482 66.4996 24.611 66.6251 25.8412Z" fill="#E24848"/>
<path d="M51.941 26.5954C51.932 32.1357 50.3453 36.9396 47.2256 41.2228C46.2037 42.6325 44.3928 42.9648 43.0302 42.0309C41.3269 40.8636 40.7801 39.0138 41.811 37.4784C43.1109 35.5388 44.2314 33.5185 44.7783 31.2288C46.0513 25.904 45.1548 20.9923 42.0082 16.5027C41.551 15.8562 41.0759 15.1737 40.8607 14.4284C40.4484 12.9917 41.3986 11.4024 42.9047 10.6841C44.1956 10.0735 45.6747 10.4506 46.625 11.6538C50.1391 16.0986 51.9231 21.154 51.941 26.5954Z" fill="#E24848"/>
</svg>
