<svg width="187" height="15" viewBox="0 0 187 15" fill="none" xmlns="http://www.w3.org/2000/svg">
<path d="M0.8125 11L0.96875 9L1.17188 5.09375L1.25781 2.32812C1.26302 2.03125 1.26562 1.73438 1.26562 1.4375C1.26562 1.21354 1.26302 0.846354 1.25781 0.335938C1.94531 0.351562 2.4974 0.359375 2.91406 0.359375C3.3151 0.359375 3.86458 0.348958 4.5625 0.328125C5.26042 0.302083 5.85156 0.289062 6.33594 0.289062C7.03385 0.289062 7.54948 0.333333 7.88281 0.421875C8.22135 0.510417 8.52604 0.651042 8.79688 0.84375C9.06771 1.03125 9.29167 1.2526 9.46875 1.50781C9.64583 1.76302 9.77865 2.05469 9.86719 2.38281C9.95573 2.70573 10 3.03646 10 3.375C10 4.07292 9.83073 4.71094 9.49219 5.28906C9.15365 5.86719 8.67708 6.29948 8.0625 6.58594C7.44792 6.8724 6.75781 7.01562 5.99219 7.01562C5.71094 7.01562 5.38542 6.98438 5.01562 6.92188C4.97396 6.68229 4.89583 6.32552 4.78125 5.85156C4.66667 5.3776 4.57292 5.02604 4.5 4.79688C4.72917 4.84375 4.96875 4.86719 5.21875 4.86719C5.74479 4.86719 6.13542 4.74219 6.39062 4.49219C6.65104 4.23698 6.78125 3.92708 6.78125 3.5625C6.78125 3.38542 6.7526 3.22917 6.69531 3.09375C6.63802 2.95312 6.54688 2.83854 6.42188 2.75C6.29688 2.66146 6.15885 2.60417 6.00781 2.57812C5.85677 2.55208 5.6849 2.53906 5.49219 2.53906C5.30469 2.53906 5.10938 2.54427 4.90625 2.55469L4.25 2.60156C4.18229 3.60677 4.13021 4.72396 4.09375 5.95312C4.02604 8.19271 3.99219 9.53646 3.99219 9.98438V11L2.4375 10.9844C2.21875 10.9844 1.67708 10.9896 0.8125 11ZM11.6406 5.29688C11.7396 4.78125 11.8021 4.42708 11.8281 4.23438C11.8542 4.03646 11.8958 3.72917 11.9531 3.3125C13.4531 2.98438 14.7422 2.82031 15.8203 2.82031C16.4349 2.82031 16.9974 2.89062 17.5078 3.03125C18.0182 3.16667 18.4167 3.38802 18.7031 3.69531C18.9896 4.0026 19.1328 4.44271 19.1328 5.01562C19.1328 5.30729 19.0938 5.96354 19.0156 6.98438C18.9375 8.00521 18.8776 9.34375 18.8359 11C18.3255 10.9896 17.8177 10.9844 17.3125 10.9844C16.8229 10.9844 16.3021 10.9896 15.75 11C15.8229 10.4271 15.9036 9.24479 15.9922 7.45312C15.7943 7.54688 15.638 7.61458 15.5234 7.65625C15.4141 7.69792 15.2188 7.76042 14.9375 7.84375C14.6562 7.92708 14.4349 7.9974 14.2734 8.05469C14.1172 8.11198 13.9792 8.1849 13.8594 8.27344C13.7448 8.36198 13.6615 8.45312 13.6094 8.54688C13.5625 8.64062 13.5391 8.74479 13.5391 8.85938C13.5391 9.03646 13.6094 9.1875 13.75 9.3125C13.8906 9.4375 14.1146 9.5 14.4219 9.5C14.5312 9.5 14.6484 9.49219 14.7734 9.47656C14.8984 9.45573 15.0703 9.40885 15.2891 9.33594C15.138 9.73698 14.9583 10.3229 14.75 11.0938C14.3021 11.1667 13.8776 11.2031 13.4766 11.2031C12.8307 11.2031 12.2917 11.1146 11.8594 10.9375C11.4323 10.7552 11.1016 10.4635 10.8672 10.0625C10.638 9.66146 10.5234 9.26042 10.5234 8.85938C10.5234 8.61458 10.5651 8.375 10.6484 8.14062C10.737 7.90625 10.8724 7.67708 11.0547 7.45312C11.237 7.22917 11.4505 7.03906 11.6953 6.88281C11.9401 6.72135 12.2734 6.57031 12.6953 6.42969C13.1224 6.28906 13.6615 6.15625 14.3125 6.03125C14.5833 5.97917 14.8307 5.92448 15.0547 5.86719C15.2839 5.80469 15.4453 5.7526 15.5391 5.71094C15.638 5.66406 15.7161 5.61198 15.7734 5.55469C15.8359 5.49219 15.8802 5.42969 15.9062 5.36719C15.9323 5.29948 15.9453 5.22917 15.9453 5.15625C15.9453 4.95833 15.862 4.80729 15.6953 4.70312C15.5286 4.59375 15.2839 4.53906 14.9609 4.53906C14.0651 4.53906 12.9583 4.79167 11.6406 5.29688ZM20.5859 11L20.8281 7.53125L20.9062 5.53906C20.9115 5.17969 20.9141 4.8125 20.9141 4.4375C20.9141 4.05729 20.9089 3.58594 20.8984 3.02344C21.5286 3.03385 22.0286 3.03906 22.3984 3.03906C22.8307 3.03906 23.3281 3.03385 23.8906 3.02344L23.8594 3.90625C24.0625 3.67708 24.2292 3.50781 24.3594 3.39844C24.4896 3.28385 24.638 3.18229 24.8047 3.09375C24.9714 3 25.1458 2.93229 25.3281 2.89062C25.5104 2.84375 25.7005 2.82031 25.8984 2.82031C26.0859 2.82031 26.2943 2.84635 26.5234 2.89844C26.5286 3.46615 26.5417 3.9349 26.5625 4.30469L26.6172 5.50781C26.3307 5.42448 26.0625 5.38281 25.8125 5.38281C25.5 5.38281 25.2292 5.42969 25 5.52344C24.776 5.61198 24.5755 5.75 24.3984 5.9375C24.2266 6.11979 24.0885 6.34896 23.9844 6.625C23.8802 6.90104 23.8073 7.33854 23.7656 7.9375C23.724 8.53646 23.7031 9.22135 23.7031 9.99219C23.7031 10.263 23.7135 10.599 23.7344 11C23.2292 10.9896 22.7214 10.9844 22.2109 10.9844C21.7057 10.9844 21.1641 10.9896 20.5859 11ZM27.4297 11C27.5026 10.3333 27.5547 9.79167 27.5859 9.375C27.6276 8.80729 27.6693 8.09635 27.7109 7.24219L27.7969 5.39062C27.8333 4.55208 27.8594 3.75 27.875 2.98438C27.8958 2.06771 27.9062 1.1849 27.9062 0.335938C28.6354 0.346354 29.1823 0.351562 29.5469 0.351562C29.9688 0.351562 30.4688 0.346354 31.0469 0.335938C30.9271 1.70052 30.8177 3.39583 30.7188 5.42188C30.6198 7.44792 30.5703 9.30729 30.5703 11C29.9661 10.9896 29.4557 10.9844 29.0391 10.9844C28.5599 10.9844 28.0234 10.9896 27.4297 11ZM30.875 6.51562L32.2188 4.57812L33.2266 3.02344C33.9453 3.03385 34.4896 3.03906 34.8594 3.03906C35.3698 3.03906 35.974 3.03385 36.6719 3.02344L35.1172 5.04688C34.7526 5.51042 34.3802 6.01042 34 6.54688C34.3646 7.21875 35.2422 8.70312 36.6328 11C36.0234 10.9896 35.474 10.9844 34.9844 10.9844C34.4844 10.9844 33.9115 10.9896 33.2656 11L32.7812 10.0234C32.6094 9.6849 32.4609 9.40104 32.3359 9.17188C32.2891 9.07812 31.9323 8.4401 31.2656 7.25781L30.875 6.51562ZM37.8984 2.03125C37.9297 1.41146 37.9453 0.921875 37.9453 0.5625C37.9453 0.458333 37.9427 0.317708 37.9375 0.140625C38.5677 0.151042 39.0964 0.15625 39.5234 0.15625C40.112 0.15625 40.6276 0.151042 41.0703 0.140625C41.0547 0.302083 41.0443 0.4375 41.0391 0.546875L40.9922 1.51562C40.9818 1.66146 40.9766 1.83333 40.9766 2.03125C40.4609 2.02083 39.9661 2.01562 39.4922 2.01562C39.0026 2.01562 38.4714 2.02083 37.8984 2.03125ZM37.4062 11C37.4792 10.3646 37.5339 9.84115 37.5703 9.42969C37.6068 9.01823 37.6406 8.49219 37.6719 7.85156C37.7083 7.21094 37.7396 6.5026 37.7656 5.72656C37.7917 4.95052 37.8125 4.04948 37.8281 3.02344C38.5052 3.03385 39.0469 3.03906 39.4531 3.03906C39.8229 3.03906 40.3542 3.03385 41.0469 3.02344C40.9583 4.00781 40.8932 4.8724 40.8516 5.61719C40.8151 6.36198 40.7917 7.15104 40.7812 7.98438C40.7604 9.46354 40.75 10.4688 40.75 11C40.1302 10.9896 39.5964 10.9844 39.1484 10.9844C38.7057 10.9844 38.125 10.9896 37.4062 11ZM42.375 11C42.526 9.81771 42.6406 8.51302 42.7188 7.08594C42.8021 5.65365 42.8516 4.29948 42.8672 3.02344C43.4922 3.03385 44.0312 3.03906 44.4844 3.03906C45.0104 3.03906 45.5156 3.03385 46 3.02344L45.9219 4.08594C46.0938 3.89323 46.2422 3.74219 46.3672 3.63281C46.4922 3.51823 46.6458 3.40885 46.8281 3.30469C47.0156 3.19531 47.2135 3.10677 47.4219 3.03906C47.6302 2.97135 47.8568 2.91927 48.1016 2.88281C48.3516 2.84115 48.612 2.82031 48.8828 2.82031C49.2578 2.82031 49.6224 2.86198 49.9766 2.94531C50.3359 3.02344 50.6354 3.13802 50.875 3.28906C51.1146 3.4349 51.3151 3.61979 51.4766 3.84375C51.638 4.0625 51.7448 4.29948 51.7969 4.55469C51.849 4.8099 51.875 5.07292 51.875 5.34375C51.875 5.54167 51.8542 5.96875 51.8125 6.625L51.6797 9.45312C51.6536 10.0104 51.6406 10.526 51.6406 11C51.1146 10.9896 50.6224 10.9844 50.1641 10.9844C49.5443 10.9844 48.9792 10.9896 48.4688 11C48.5156 10.526 48.5651 9.82292 48.6172 8.89062C48.6693 7.95312 48.6953 7.29427 48.6953 6.91406C48.6953 6.32552 48.5807 5.91667 48.3516 5.6875C48.1276 5.45312 47.8438 5.33594 47.5 5.33594C47.1979 5.33594 46.9115 5.4349 46.6406 5.63281C46.375 5.83073 46.1693 6.11979 46.0234 6.5C45.8776 6.875 45.7734 7.49479 45.7109 8.35938C45.6536 9.22396 45.6146 10.1042 45.5938 11C45.0729 10.9896 44.5651 10.9844 44.0703 10.9844C43.5495 10.9844 42.9844 10.9896 42.375 11ZM53.9531 11.9688C54.625 12.1979 55.2161 12.3568 55.7266 12.4453C56.237 12.5391 56.6823 12.5859 57.0625 12.5859C57.3385 12.5859 57.5885 12.5547 57.8125 12.4922C58.0365 12.4349 58.2161 12.362 58.3516 12.2734C58.487 12.1849 58.6016 12.0729 58.6953 11.9375C58.7943 11.8021 58.8698 11.651 58.9219 11.4844C58.974 11.3177 59.0104 11.125 59.0312 10.9062C59.0521 10.6875 59.0703 10.3854 59.0859 10C58.8828 10.1823 58.7057 10.3281 58.5547 10.4375C58.4089 10.5469 58.2266 10.6536 58.0078 10.7578C57.7891 10.8568 57.5495 10.9349 57.2891 10.9922C57.0339 11.0443 56.763 11.0703 56.4766 11.0703C55.8151 11.0703 55.2188 10.9167 54.6875 10.6094C54.1562 10.3021 53.7604 9.8724 53.5 9.32031C53.2396 8.76823 53.1094 8.17188 53.1094 7.53125C53.1094 6.77604 53.25 6.09375 53.5312 5.48438C53.8125 4.875 54.2135 4.35938 54.7344 3.9375C55.2604 3.51562 55.8359 3.22396 56.4609 3.0625C57.0859 2.90104 57.7943 2.82031 58.5859 2.82031C59.0391 2.82031 59.5521 2.84896 60.125 2.90625C60.7031 2.95833 61.4948 3.07552 62.5 3.25781L62.3125 5.83594L62.1484 8.66406C62.138 8.86719 62.1328 9.03385 62.1328 9.16406L62.0703 11.7031C62.0599 12.026 62.0208 12.3333 61.9531 12.625C61.8958 12.8906 61.7995 13.138 61.6641 13.3672C61.5286 13.5964 61.362 13.7969 61.1641 13.9688C60.9453 14.1562 60.7005 14.3047 60.4297 14.4141C60.1536 14.5286 59.8281 14.6224 59.4531 14.6953C59.0469 14.7682 58.6224 14.8047 58.1797 14.8047C57.9297 14.8047 57.6224 14.7917 57.2578 14.7656C56.8932 14.7448 56.5182 14.7109 56.1328 14.6641C55.7526 14.6172 55.4219 14.5677 55.1406 14.5156C54.8646 14.4635 54.513 14.388 54.0859 14.2891L54.0312 13.2578C54.026 13.0599 54 12.6302 53.9531 11.9688ZM59.3203 5.21094C58.9974 5.14844 58.7083 5.11719 58.4531 5.11719C57.9844 5.11719 57.5781 5.20833 57.2344 5.39062C56.8958 5.56771 56.6328 5.83594 56.4453 6.19531C56.2578 6.54948 56.1641 6.91927 56.1641 7.30469C56.1641 7.58594 56.2135 7.84635 56.3125 8.08594C56.4115 8.32552 56.5755 8.51562 56.8047 8.65625C57.0339 8.79167 57.276 8.85938 57.5312 8.85938C57.9062 8.85938 58.2396 8.72396 58.5312 8.45312C58.8229 8.18229 59.0234 7.8125 59.1328 7.34375C59.2422 6.875 59.3047 6.16406 59.3203 5.21094ZM67.8672 11L68.1094 7.53125L68.1875 5.53906C68.1927 5.17969 68.1953 4.8125 68.1953 4.4375C68.1953 4.05729 68.1901 3.58594 68.1797 3.02344C68.8099 3.03385 69.3099 3.03906 69.6797 3.03906C70.112 3.03906 70.6094 3.03385 71.1719 3.02344L71.1406 3.90625C71.3438 3.67708 71.5104 3.50781 71.6406 3.39844C71.7708 3.28385 71.9193 3.18229 72.0859 3.09375C72.2526 3 72.4271 2.93229 72.6094 2.89062C72.7917 2.84375 72.9818 2.82031 73.1797 2.82031C73.3672 2.82031 73.5755 2.84635 73.8047 2.89844C73.8099 3.46615 73.8229 3.9349 73.8438 4.30469L73.8984 5.50781C73.612 5.42448 73.3438 5.38281 73.0938 5.38281C72.7812 5.38281 72.5104 5.42969 72.2812 5.52344C72.0573 5.61198 71.8568 5.75 71.6797 5.9375C71.5078 6.11979 71.3698 6.34896 71.2656 6.625C71.1615 6.90104 71.0885 7.33854 71.0469 7.9375C71.0052 8.53646 70.9844 9.22135 70.9844 9.99219C70.9844 10.263 70.9948 10.599 71.0156 11C70.5104 10.9896 70.0026 10.9844 69.4922 10.9844C68.987 10.9844 68.4453 10.9896 67.8672 11ZM82.4844 8.64062C82.4167 8.95312 82.2865 9.70833 82.0938 10.9062C81.4896 11.026 80.9818 11.1042 80.5703 11.1406C80.1589 11.1823 79.7422 11.2031 79.3203 11.2031C78.7005 11.2031 78.1302 11.1589 77.6094 11.0703C77.0885 10.987 76.638 10.8359 76.2578 10.6172C75.8828 10.3984 75.5677 10.1276 75.3125 9.80469C75.0573 9.47656 74.862 9.08854 74.7266 8.64062C74.5964 8.19271 74.5312 7.73177 74.5312 7.25781C74.5312 6.59115 74.6641 5.9401 74.9297 5.30469C75.1953 4.66406 75.5365 4.16406 75.9531 3.80469C76.375 3.44531 76.8594 3.1901 77.4062 3.03906C77.9531 2.88802 78.513 2.8125 79.0859 2.8125C79.6797 2.8125 80.2448 2.88281 80.7812 3.02344C81.3229 3.15885 81.7812 3.39844 82.1562 3.74219C82.5312 4.08594 82.7969 4.47396 82.9531 4.90625C83.1146 5.33854 83.1953 5.80469 83.1953 6.30469C83.1953 6.60156 83.1615 6.93229 83.0938 7.29688L77.6172 7.30469C77.612 7.38802 77.6094 7.46354 77.6094 7.53125C77.6094 8.09375 77.8099 8.50781 78.2109 8.77344C78.612 9.03906 79.1016 9.17188 79.6797 9.17188C80.0234 9.17188 80.4141 9.13281 80.8516 9.05469C81.2943 8.97135 81.8385 8.83333 82.4844 8.64062ZM77.6797 6.10938H80.2578C80.263 6.02083 80.2656 5.94531 80.2656 5.88281C80.2656 5.61198 80.2161 5.38021 80.1172 5.1875C80.0234 4.99479 79.8854 4.85417 79.7031 4.76562C79.526 4.67708 79.3255 4.63281 79.1016 4.63281C78.9453 4.63281 78.7943 4.65885 78.6484 4.71094C78.5026 4.75781 78.3698 4.83073 78.25 4.92969C78.1354 5.02344 78.0391 5.13281 77.9609 5.25781C77.8828 5.38281 77.8255 5.50521 77.7891 5.625C77.7526 5.73958 77.7161 5.90104 77.6797 6.10938ZM84.2422 11L84.4609 7.23438L84.5859 4.28906L84.6016 3.02344C85.1745 3.03385 85.6797 3.03906 86.1172 3.03906C86.612 3.03906 87.0938 3.03385 87.5625 3.02344L87.5078 4.0625C87.6693 3.85417 87.8047 3.69531 87.9141 3.58594C88.0286 3.47135 88.1667 3.36458 88.3281 3.26562C88.4896 3.16146 88.6562 3.08073 88.8281 3.02344C89 2.96094 89.1927 2.91146 89.4062 2.875C89.6198 2.83854 89.8438 2.82031 90.0781 2.82031C90.3438 2.82031 90.5885 2.84375 90.8125 2.89062C91.0365 2.93229 91.2292 2.98698 91.3906 3.05469C91.5521 3.1224 91.6927 3.20052 91.8125 3.28906C91.9323 3.3776 92.0365 3.47917 92.125 3.59375C92.2188 3.70312 92.3255 3.86458 92.4453 4.07812C92.6745 3.74479 92.9167 3.49219 93.1719 3.32031C93.4271 3.14844 93.7161 3.02344 94.0391 2.94531C94.3672 2.86198 94.7031 2.82031 95.0469 2.82031C95.5 2.82031 95.9271 2.88542 96.3281 3.01562C96.7292 3.14583 97.0573 3.3724 97.3125 3.69531C97.5729 4.01302 97.7031 4.42708 97.7031 4.9375C97.7031 5.17708 97.6849 5.53906 97.6484 6.02344C97.6172 6.50781 97.5703 7.34115 97.5078 8.52344C97.4505 9.70052 97.4193 10.526 97.4141 11C96.9349 10.9896 96.4714 10.9844 96.0234 10.9844C95.4766 10.9844 94.9036 10.9896 94.3047 11C94.3568 10.3385 94.4089 9.51042 94.4609 8.51562C94.5182 7.51562 94.5469 6.82292 94.5469 6.4375C94.5469 6.10417 94.5078 5.85677 94.4297 5.69531C94.3516 5.52865 94.25 5.41667 94.125 5.35938C94.0052 5.29688 93.8724 5.26562 93.7266 5.26562C93.5703 5.26562 93.4349 5.29427 93.3203 5.35156C93.1953 5.41406 93.0859 5.51042 92.9922 5.64062C92.8672 5.8125 92.7656 6.02865 92.6875 6.28906C92.625 6.49219 92.5755 6.80208 92.5391 7.21875C92.5026 7.64583 92.474 8.20833 92.4531 8.90625L92.3906 11C91.8333 10.9896 91.3307 10.9844 90.8828 10.9844C90.4245 10.9844 89.8854 10.9896 89.2656 11C89.3125 10.5365 89.3672 9.75781 89.4297 8.66406C89.4922 7.57031 89.5234 6.83854 89.5234 6.46875C89.5234 6.15625 89.4922 5.92188 89.4297 5.76562C89.3672 5.60938 89.2786 5.48438 89.1641 5.39062C89.0547 5.29688 88.9062 5.25 88.7188 5.25C88.5156 5.25 88.3385 5.3099 88.1875 5.42969C88.0365 5.54948 87.9062 5.72135 87.7969 5.94531C87.6927 6.16927 87.6172 6.47917 87.5703 6.875C87.5286 7.26562 87.4896 7.86458 87.4531 8.67188C87.4167 9.47917 87.3932 10.2552 87.3828 11C86.7526 10.9896 86.2422 10.9844 85.8516 10.9844C85.4193 10.9844 84.8828 10.9896 84.2422 11ZM103.789 2.82031C104.435 2.82031 105.055 2.91927 105.648 3.11719C106.247 3.3151 106.753 3.60156 107.164 3.97656C107.576 4.34635 107.878 4.78125 108.07 5.28125C108.268 5.77604 108.367 6.3099 108.367 6.88281C108.367 7.4401 108.279 7.97135 108.102 8.47656C107.93 8.97656 107.635 9.44792 107.219 9.89062C106.802 10.3281 106.271 10.6562 105.625 10.875C104.984 11.0938 104.305 11.2031 103.586 11.2031C102.924 11.2031 102.289 11.1068 101.68 10.9141C101.07 10.7214 100.56 10.4401 100.148 10.0703C99.7422 9.70052 99.4349 9.25781 99.2266 8.74219C99.0234 8.22656 98.9219 7.6849 98.9219 7.11719C98.9219 6.54948 99.0208 6.00781 99.2188 5.49219C99.4219 4.97656 99.7396 4.51302 100.172 4.10156C100.609 3.6901 101.148 3.375 101.789 3.15625C102.43 2.93229 103.096 2.82031 103.789 2.82031ZM103.734 5.11719C103.401 5.11719 103.104 5.20312 102.844 5.375C102.583 5.54688 102.385 5.79948 102.25 6.13281C102.12 6.46094 102.055 6.82031 102.055 7.21094C102.055 7.78385 102.198 8.22396 102.484 8.53125C102.771 8.83333 103.13 8.98438 103.562 8.98438C103.891 8.98438 104.185 8.89844 104.445 8.72656C104.706 8.54948 104.901 8.29167 105.031 7.95312C105.167 7.60938 105.234 7.24219 105.234 6.85156C105.234 6.52865 105.182 6.23698 105.078 5.97656C104.974 5.71615 104.802 5.50781 104.562 5.35156C104.328 5.19531 104.052 5.11719 103.734 5.11719ZM115.344 8.70312C115.25 9.14062 115.169 9.56771 115.102 9.98438L114.93 10.9375C114.414 11.0521 114.01 11.125 113.719 11.1562C113.432 11.1875 113.154 11.2031 112.883 11.2031C112.44 11.2031 112.047 11.1641 111.703 11.0859C111.359 11.013 111.073 10.8776 110.844 10.6797C110.615 10.4766 110.458 10.2448 110.375 9.98438C110.292 9.72396 110.25 9.44792 110.25 9.15625C110.25 9.10417 110.253 9.01302 110.258 8.88281C110.263 8.7474 110.281 8.45052 110.312 7.99219L110.484 5.28906H109.266C109.292 4.92969 109.315 4.45573 109.336 3.86719L109.359 3.14062H110.656C110.688 2.90104 110.727 2.3776 110.773 1.57031L112.109 1.29688C112.354 1.25 112.875 1.13021 113.672 0.9375C113.635 1.61979 113.609 2.35417 113.594 3.14062H115.375C115.333 4.22396 115.312 4.9401 115.312 5.28906H113.516L113.422 7.24219C113.411 7.53385 113.406 7.72135 113.406 7.80469C113.406 8.05469 113.432 8.26302 113.484 8.42969C113.542 8.59635 113.638 8.71615 113.773 8.78906C113.914 8.86198 114.068 8.89844 114.234 8.89844C114.359 8.89844 114.49 8.89062 114.625 8.875C114.76 8.85417 115 8.79688 115.344 8.70312ZM124.078 8.64062C124.01 8.95312 123.88 9.70833 123.688 10.9062C123.083 11.026 122.576 11.1042 122.164 11.1406C121.753 11.1823 121.336 11.2031 120.914 11.2031C120.294 11.2031 119.724 11.1589 119.203 11.0703C118.682 10.987 118.232 10.8359 117.852 10.6172C117.477 10.3984 117.161 10.1276 116.906 9.80469C116.651 9.47656 116.456 9.08854 116.32 8.64062C116.19 8.19271 116.125 7.73177 116.125 7.25781C116.125 6.59115 116.258 5.9401 116.523 5.30469C116.789 4.66406 117.13 4.16406 117.547 3.80469C117.969 3.44531 118.453 3.1901 119 3.03906C119.547 2.88802 120.107 2.8125 120.68 2.8125C121.273 2.8125 121.839 2.88281 122.375 3.02344C122.917 3.15885 123.375 3.39844 123.75 3.74219C124.125 4.08594 124.391 4.47396 124.547 4.90625C124.708 5.33854 124.789 5.80469 124.789 6.30469C124.789 6.60156 124.755 6.93229 124.688 7.29688L119.211 7.30469C119.206 7.38802 119.203 7.46354 119.203 7.53125C119.203 8.09375 119.404 8.50781 119.805 8.77344C120.206 9.03906 120.695 9.17188 121.273 9.17188C121.617 9.17188 122.008 9.13281 122.445 9.05469C122.888 8.97135 123.432 8.83333 124.078 8.64062ZM119.273 6.10938H121.852C121.857 6.02083 121.859 5.94531 121.859 5.88281C121.859 5.61198 121.81 5.38021 121.711 5.1875C121.617 4.99479 121.479 4.85417 121.297 4.76562C121.12 4.67708 120.919 4.63281 120.695 4.63281C120.539 4.63281 120.388 4.65885 120.242 4.71094C120.096 4.75781 119.964 4.83073 119.844 4.92969C119.729 5.02344 119.633 5.13281 119.555 5.25781C119.477 5.38281 119.419 5.50521 119.383 5.625C119.346 5.73958 119.31 5.90104 119.273 6.10938ZM136.469 8.50781C136.443 8.71615 136.38 9.09896 136.281 9.65625L136.078 10.9062C135.26 11.1042 134.461 11.2031 133.68 11.2031C133.112 11.2031 132.615 11.1458 132.188 11.0312C131.682 10.8958 131.229 10.6562 130.828 10.3125C130.417 9.95833 130.117 9.53906 129.93 9.05469C129.706 8.48698 129.594 7.85156 129.594 7.14844C129.594 6.5026 129.703 5.88021 129.922 5.28125C130.141 4.68229 130.464 4.1901 130.891 3.80469C131.318 3.41406 131.792 3.15365 132.312 3.02344C132.833 2.88802 133.409 2.82031 134.039 2.82031C134.409 2.82031 134.781 2.84115 135.156 2.88281C135.531 2.91927 135.995 3.0026 136.547 3.13281L136.562 3.3125C136.578 3.5 136.589 3.69271 136.594 3.89062C136.604 4.08333 136.622 4.39062 136.648 4.8125L136.695 5.50781C135.951 5.2474 135.292 5.11719 134.719 5.11719C134.307 5.11719 133.945 5.19792 133.633 5.35938C133.326 5.51562 133.096 5.74479 132.945 6.04688C132.799 6.34375 132.727 6.6901 132.727 7.08594C132.727 7.48698 132.792 7.82292 132.922 8.09375C133.057 8.36458 133.271 8.56771 133.562 8.70312C133.854 8.83854 134.174 8.90625 134.523 8.90625C134.701 8.90625 134.909 8.88802 135.148 8.85156C135.393 8.8151 135.604 8.77604 135.781 8.73438C135.964 8.6875 136.193 8.61198 136.469 8.50781ZM142.555 2.82031C143.201 2.82031 143.82 2.91927 144.414 3.11719C145.013 3.3151 145.518 3.60156 145.93 3.97656C146.341 4.34635 146.643 4.78125 146.836 5.28125C147.034 5.77604 147.133 6.3099 147.133 6.88281C147.133 7.4401 147.044 7.97135 146.867 8.47656C146.695 8.97656 146.401 9.44792 145.984 9.89062C145.568 10.3281 145.036 10.6562 144.391 10.875C143.75 11.0938 143.07 11.2031 142.352 11.2031C141.69 11.2031 141.055 11.1068 140.445 10.9141C139.836 10.7214 139.326 10.4401 138.914 10.0703C138.508 9.70052 138.201 9.25781 137.992 8.74219C137.789 8.22656 137.688 7.6849 137.688 7.11719C137.688 6.54948 137.786 6.00781 137.984 5.49219C138.188 4.97656 138.505 4.51302 138.938 4.10156C139.375 3.6901 139.914 3.375 140.555 3.15625C141.195 2.93229 141.862 2.82031 142.555 2.82031ZM142.5 5.11719C142.167 5.11719 141.87 5.20312 141.609 5.375C141.349 5.54688 141.151 5.79948 141.016 6.13281C140.885 6.46094 140.82 6.82031 140.82 7.21094C140.82 7.78385 140.964 8.22396 141.25 8.53125C141.536 8.83333 141.896 8.98438 142.328 8.98438C142.656 8.98438 142.951 8.89844 143.211 8.72656C143.471 8.54948 143.667 8.29167 143.797 7.95312C143.932 7.60938 144 7.24219 144 6.85156C144 6.52865 143.948 6.23698 143.844 5.97656C143.74 5.71615 143.568 5.50781 143.328 5.35156C143.094 5.19531 142.818 5.11719 142.5 5.11719ZM148.219 11C148.37 9.81771 148.484 8.51302 148.562 7.08594C148.646 5.65365 148.695 4.29948 148.711 3.02344C149.336 3.03385 149.875 3.03906 150.328 3.03906C150.854 3.03906 151.359 3.03385 151.844 3.02344L151.766 4.08594C151.938 3.89323 152.086 3.74219 152.211 3.63281C152.336 3.51823 152.49 3.40885 152.672 3.30469C152.859 3.19531 153.057 3.10677 153.266 3.03906C153.474 2.97135 153.701 2.91927 153.945 2.88281C154.195 2.84115 154.456 2.82031 154.727 2.82031C155.102 2.82031 155.466 2.86198 155.82 2.94531C156.18 3.02344 156.479 3.13802 156.719 3.28906C156.958 3.4349 157.159 3.61979 157.32 3.84375C157.482 4.0625 157.589 4.29948 157.641 4.55469C157.693 4.8099 157.719 5.07292 157.719 5.34375C157.719 5.54167 157.698 5.96875 157.656 6.625L157.523 9.45312C157.497 10.0104 157.484 10.526 157.484 11C156.958 10.9896 156.466 10.9844 156.008 10.9844C155.388 10.9844 154.823 10.9896 154.312 11C154.359 10.526 154.409 9.82292 154.461 8.89062C154.513 7.95312 154.539 7.29427 154.539 6.91406C154.539 6.32552 154.424 5.91667 154.195 5.6875C153.971 5.45312 153.688 5.33594 153.344 5.33594C153.042 5.33594 152.755 5.4349 152.484 5.63281C152.219 5.83073 152.013 6.11979 151.867 6.5C151.721 6.875 151.617 7.49479 151.555 8.35938C151.497 9.22396 151.458 10.1042 151.438 11C150.917 10.9896 150.409 10.9844 149.914 10.9844C149.393 10.9844 148.828 10.9896 148.219 11ZM164.984 8.70312C164.891 9.14062 164.81 9.56771 164.742 9.98438L164.57 10.9375C164.055 11.0521 163.651 11.125 163.359 11.1562C163.073 11.1875 162.794 11.2031 162.523 11.2031C162.081 11.2031 161.688 11.1641 161.344 11.0859C161 11.013 160.714 10.8776 160.484 10.6797C160.255 10.4766 160.099 10.2448 160.016 9.98438C159.932 9.72396 159.891 9.44792 159.891 9.15625C159.891 9.10417 159.893 9.01302 159.898 8.88281C159.904 8.7474 159.922 8.45052 159.953 7.99219L160.125 5.28906H158.906C158.932 4.92969 158.956 4.45573 158.977 3.86719L159 3.14062H160.297C160.328 2.90104 160.367 2.3776 160.414 1.57031L161.75 1.29688C161.995 1.25 162.516 1.13021 163.312 0.9375C163.276 1.61979 163.25 2.35417 163.234 3.14062H165.016C164.974 4.22396 164.953 4.9401 164.953 5.28906H163.156L163.062 7.24219C163.052 7.53385 163.047 7.72135 163.047 7.80469C163.047 8.05469 163.073 8.26302 163.125 8.42969C163.182 8.59635 163.279 8.71615 163.414 8.78906C163.555 8.86198 163.708 8.89844 163.875 8.89844C164 8.89844 164.13 8.89062 164.266 8.875C164.401 8.85417 164.641 8.79688 164.984 8.70312ZM165.977 11L166.219 7.53125L166.297 5.53906C166.302 5.17969 166.305 4.8125 166.305 4.4375C166.305 4.05729 166.299 3.58594 166.289 3.02344C166.919 3.03385 167.419 3.03906 167.789 3.03906C168.221 3.03906 168.719 3.03385 169.281 3.02344L169.25 3.90625C169.453 3.67708 169.62 3.50781 169.75 3.39844C169.88 3.28385 170.029 3.18229 170.195 3.09375C170.362 3 170.536 2.93229 170.719 2.89062C170.901 2.84375 171.091 2.82031 171.289 2.82031C171.477 2.82031 171.685 2.84635 171.914 2.89844C171.919 3.46615 171.932 3.9349 171.953 4.30469L172.008 5.50781C171.721 5.42448 171.453 5.38281 171.203 5.38281C170.891 5.38281 170.62 5.42969 170.391 5.52344C170.167 5.61198 169.966 5.75 169.789 5.9375C169.617 6.11979 169.479 6.34896 169.375 6.625C169.271 6.90104 169.198 7.33854 169.156 7.9375C169.115 8.53646 169.094 9.22135 169.094 9.99219C169.094 10.263 169.104 10.599 169.125 11C168.62 10.9896 168.112 10.9844 167.602 10.9844C167.096 10.9844 166.555 10.9896 165.977 11ZM177.508 2.82031C178.154 2.82031 178.773 2.91927 179.367 3.11719C179.966 3.3151 180.471 3.60156 180.883 3.97656C181.294 4.34635 181.596 4.78125 181.789 5.28125C181.987 5.77604 182.086 6.3099 182.086 6.88281C182.086 7.4401 181.997 7.97135 181.82 8.47656C181.648 8.97656 181.354 9.44792 180.938 9.89062C180.521 10.3281 179.99 10.6562 179.344 10.875C178.703 11.0938 178.023 11.2031 177.305 11.2031C176.643 11.2031 176.008 11.1068 175.398 10.9141C174.789 10.7214 174.279 10.4401 173.867 10.0703C173.461 9.70052 173.154 9.25781 172.945 8.74219C172.742 8.22656 172.641 7.6849 172.641 7.11719C172.641 6.54948 172.74 6.00781 172.938 5.49219C173.141 4.97656 173.458 4.51302 173.891 4.10156C174.328 3.6901 174.867 3.375 175.508 3.15625C176.148 2.93229 176.815 2.82031 177.508 2.82031ZM177.453 5.11719C177.12 5.11719 176.823 5.20312 176.562 5.375C176.302 5.54688 176.104 5.79948 175.969 6.13281C175.839 6.46094 175.773 6.82031 175.773 7.21094C175.773 7.78385 175.917 8.22396 176.203 8.53125C176.49 8.83333 176.849 8.98438 177.281 8.98438C177.609 8.98438 177.904 8.89844 178.164 8.72656C178.424 8.54948 178.62 8.29167 178.75 7.95312C178.885 7.60938 178.953 7.24219 178.953 6.85156C178.953 6.52865 178.901 6.23698 178.797 5.97656C178.693 5.71615 178.521 5.50781 178.281 5.35156C178.047 5.19531 177.771 5.11719 177.453 5.11719ZM183.234 10.9922L183.375 9.3125L183.68 3.47656L183.766 0.335938C184.49 0.346354 185.034 0.351562 185.398 0.351562C185.872 0.351562 186.396 0.346354 186.969 0.335938L186.789 2.73438L186.5 8.64062L186.438 11C185.88 10.9896 185.378 10.9844 184.93 10.9844L183.234 10.9922Z" fill="black"/>
</svg>
