<svg width="76" height="72" viewBox="0 0 76 72" fill="none" xmlns="http://www.w3.org/2000/svg">
<path d="M1.78873 65.7741C0.379139 65.5632 0 63.9237 0 62.4984C0 45.813 0 29.1275 0 12.4421C0 11.0609 0.399537 9.55063 1.74567 9.24138V9.24138C8.69117 7.65227 15.6347 6.04359 22.5783 4.44079C28.831 2.9965 35.0837 1.54634 41.3383 0.104008C42.9881 -0.275655 43.812 0.383864 43.8238 2.08648C43.8296 3.06304 43.8238 4.03959 43.8257 5.01615C43.8277 6.20211 43.8296 6.20603 44.9999 6.20603C53.3976 6.20603 61.7952 6.20603 70.1928 6.20603C71.2183 6.20603 72.2437 6.18646 73.2692 6.21777C74.42 6.253 75.009 6.87337 75.0403 8.01628C75.0443 8.18654 75.0423 8.35876 75.0423 8.52902C75.0423 26.8135 75.0423 45.0981 75.0423 63.3826C75.0423 63.5783 75.0462 63.774 75.0384 63.9678C74.9992 65.0598 74.3945 65.6704 73.2947 65.7213C73.0031 65.735 72.7095 65.7271 72.416 65.7271C63.3099 65.7271 54.2038 65.7271 45.0978 65.7271C43.8238 65.7271 43.8238 65.7291 43.8218 67.0305C43.8198 68.056 43.8375 69.0815 43.814 70.107C43.7846 71.428 43.037 72.0836 41.7258 71.8996C39.8177 71.6334 37.9135 71.3223 36.0093 71.0287C24.6038 69.2733 13.1982 67.5119 1.78873 65.7741V65.7741ZM71.7819 36.0096C71.7819 27.5142 71.7838 19.0167 71.7799 10.5213C71.7799 9.53102 71.7271 9.48014 70.7447 9.48014C67.3022 9.47622 63.8598 9.47818 60.4174 9.47818C55.2176 9.47818 50.0158 9.47622 44.816 9.48014C43.8727 9.48014 43.8277 9.52711 43.8238 10.4802C43.8198 11.7992 43.8198 13.1163 43.8238 14.4353C43.8257 15.5743 43.8316 15.5822 44.9667 15.5822C52.1196 15.5841 59.2745 15.5822 66.4275 15.5841C66.768 15.5841 67.1163 15.5763 67.449 15.6389C68.2553 15.7896 68.8052 16.4667 68.7974 17.2358C68.7876 18.0245 68.2475 18.6606 67.4197 18.8034C67.085 18.8602 66.7386 18.8504 66.3981 18.8504C59.1962 18.8524 51.9944 18.8524 44.7905 18.8543C43.8766 18.8543 43.8296 18.9032 43.8257 19.8074C43.8198 21.1264 43.8218 22.4435 43.8238 23.7625C43.8257 24.9544 43.8257 24.9563 44.9921 24.9563C52.1451 24.9583 59.3 24.9563 66.4529 24.9602C66.8169 24.9602 67.1907 24.9602 67.543 25.0405C68.2847 25.2088 68.7818 25.8448 68.7955 26.565C68.8111 27.3263 68.3179 27.976 67.5351 28.1502C67.1829 28.2285 66.8091 28.2265 66.4451 28.2265C59.3645 28.2304 52.284 28.2304 45.2035 28.2304C44.9588 28.2304 44.7142 28.2383 44.4715 28.2344C44.0567 28.2285 43.8296 28.4105 43.8296 28.843C43.8316 30.4791 43.8296 32.1151 43.8335 33.7493C43.8335 34.1426 44.0508 34.3227 44.4324 34.3246C44.7005 34.3266 44.9686 34.3325 45.2387 34.3325C52.4406 34.3325 59.6424 34.3305 66.8463 34.3383C68.0322 34.3403 68.7955 34.9978 68.7974 35.9666C68.8013 36.9529 68.0635 37.5831 66.86 37.6007C65.9578 37.6144 65.0536 37.6046 64.1495 37.6046C57.7285 37.6046 51.3074 37.6046 44.8864 37.6066C43.8472 37.6066 43.8277 37.6301 43.8257 38.6849C43.8218 39.9785 43.8238 41.2721 43.8257 42.5676C43.8277 43.7047 43.8335 43.7105 44.9725 43.7105C52.0531 43.7125 59.1336 43.7105 66.2141 43.7125C66.5077 43.7125 66.8012 43.7047 67.0928 43.7223C68.1066 43.7849 68.8111 44.4718 68.7994 45.3701C68.7876 46.2645 68.1262 46.9025 67.1281 46.971C66.811 46.9925 66.494 46.9827 66.177 46.9827C59.0475 46.9827 51.918 46.9827 44.7905 46.9847C43.8786 46.9847 43.8335 47.0336 43.8296 47.9416C43.8238 49.2607 43.8257 50.5778 43.8277 51.8968C43.8296 53.0847 43.8296 53.0867 44.9999 53.0867C52.104 53.0886 59.2099 53.0867 66.3139 53.0886C66.6545 53.0886 67.0009 53.0749 67.3375 53.1219C68.1849 53.2393 68.7857 53.9028 68.7994 54.6993C68.815 55.5408 68.2201 56.2101 67.3218 56.3275C66.9852 56.3706 66.6388 56.3588 66.2983 56.3588C59.1453 56.3608 51.9904 56.3588 44.8375 56.3608C43.8766 56.3608 43.8316 56.4058 43.8296 57.3432C43.8238 58.6622 43.8257 59.9793 43.8277 61.2984C43.8296 62.4608 43.8316 62.4628 45.0254 62.4628C53.5208 62.4628 62.0183 62.4628 70.5137 62.4628C71.7799 62.4628 71.7838 62.4608 71.7838 61.2103C71.7838 52.8068 71.7819 44.4092 71.7819 36.0096ZM19.9592 33.2803C20.0706 32.8024 20.528 32.8042 20.6643 33.2757V33.2757C22.087 38.225 23.5039 43.1763 24.9189 48.1256C25.2946 49.4368 25.776 49.9691 26.5921 49.9554C27.3945 49.9437 27.8427 49.4427 28.2106 48.153C30.148 41.3719 32.0855 34.5888 34.021 27.8077C34.1345 27.4085 34.2637 27.0132 34.2558 26.5904C34.2421 25.7098 33.6433 25.1285 32.7626 25.1481C31.9837 25.1657 31.5551 25.5669 31.2616 26.5885C29.8114 31.6572 28.3652 36.7259 26.9131 41.7927V41.7927C26.773 42.279 26.3501 42.259 26.2085 41.7731V41.7731C25.8504 40.5558 25.5079 39.3346 25.1596 38.1134C24.0754 34.3109 22.9873 30.5104 21.907 26.7079C21.7015 25.9818 21.3747 25.3888 20.5292 25.2949C19.6134 25.1951 19.0517 25.608 18.7542 26.6511C17.2923 31.7413 15.8402 36.8355 14.3783 41.9238C14.3176 42.1371 14.347 42.4972 14.0378 42.4854C13.8088 42.4757 13.8284 42.139 13.7501 41.9433C13.7227 41.8768 13.7129 41.8024 13.6933 41.732C12.2627 36.7337 10.8341 31.7355 9.40157 26.7392C9.01799 25.4025 8.34282 24.8702 7.39561 25.1481C6.43276 25.4319 6.14899 26.2127 6.53452 27.5631C8.48959 34.4166 10.4486 41.2682 12.4076 48.1197C12.752 49.3213 13.2158 49.8028 14.0339 49.8204C14.8715 49.838 15.3666 49.337 15.7247 48.108C15.7306 48.0845 15.7384 48.061 15.7463 48.0375C17.1397 43.1567 18.5311 38.2739 19.9304 33.395C19.9408 33.3573 19.9502 33.319 19.9592 33.2803Z" fill="#295396"/>
</svg>
