<svg width="15" height="15" viewBox="0 0 15 15" fill="none" xmlns="http://www.w3.org/2000/svg">
<path d="M8.05099 14.8996C7.64095 14.8996 7.2388 14.8996 6.82875 14.8996C6.4818 14.8523 6.13484 14.8207 5.79577 14.734C2.9728 14.0085 1.12761 12.258 0.260218 9.48232C0.118281 9.01708 0.0551978 8.54395 0 8.07083C0 7.66079 0 7.25863 0 6.84859C0.0473124 6.50163 0.0867394 6.15468 0.165593 5.8156C1.07241 1.83348 5.00723 -0.729275 9.08398 0.185431C13.074 1.08437 15.6525 5.03495 14.6984 9.10382C14.036 11.9347 12.2303 13.7641 9.46248 14.6315C8.99724 14.7734 8.52412 14.8365 8.05099 14.8996ZM7.27822 11.9899C7.41227 11.982 7.53844 11.9741 7.66461 11.9583C8.01945 11.9189 8.33487 11.7454 8.67394 11.6429C8.89473 11.5798 9.0209 11.4537 9.03667 11.225C9.03667 11.1777 9.08398 11.1225 9.04455 11.0909C9.00513 11.0515 8.94993 11.0909 8.9105 11.1067C8.65817 11.1856 8.40583 11.2329 8.13773 11.1856C7.85386 11.1304 7.72769 10.9963 7.71192 10.7046C7.70403 10.5311 7.72769 10.3576 7.75923 10.1841C7.86963 9.63214 8.04311 9.09593 8.19293 8.55972C8.33487 8.06294 8.4768 7.57405 8.43738 7.05361C8.41372 6.71454 8.27178 6.45432 7.99579 6.25719C7.64884 6.00485 7.2388 5.96543 6.81298 6.00485C6.40294 6.0364 6.03233 6.20988 5.64595 6.32816C5.38573 6.39912 5.28322 6.54895 5.25168 6.79339C5.24379 6.8959 5.25956 6.91956 5.35419 6.88802C5.4567 6.85648 5.56709 6.80917 5.67749 6.80128C6.3714 6.71454 6.66316 6.85648 6.55277 7.62136C6.51334 7.91312 6.4266 8.18911 6.35563 8.4651C6.16638 9.20633 5.87462 9.91601 5.83519 10.6888C5.81154 11.0988 5.9377 11.4379 6.26889 11.6902C6.56854 11.9268 6.91549 11.9899 7.27822 11.9899ZM8.0983 4.97975C8.88684 4.97975 9.41517 4.26218 9.13918 3.56827C8.9105 2.99263 8.16927 2.72453 7.58575 3.01629C7.0732 3.26862 6.85241 3.81271 7.04955 4.31738C7.20725 4.71165 7.63307 4.97975 8.0983 4.97975Z" fill="#BDBBBB"/>
</svg>
