<svg width="50" height="50" viewBox="0 0 50 50" fill="none" xmlns="http://www.w3.org/2000/svg">
<path d="M37.5633 50H12.4444C5.57005 50 0 44.4308 0 37.5575V12.4425C0 5.56919 5.57005 0 12.4444 0H37.5556C44.43 0 50 5.56919 50 12.4425V37.5499C50.0077 44.4308 44.4376 50 37.5633 50Z" fill="#6C54FF"/>
<path d="M40.9698 20.3428C40.9698 15.1418 36.7424 10.915 31.5406 10.915H18.6589C13.3804 10.915 9.08398 15.2108 9.08398 20.4885V29.7859H9.09166C9.22976 34.9485 13.4648 39.1062 18.6589 39.1062H32.7682C33.6965 39.1062 34.4484 38.3544 34.4484 37.4262C34.4484 36.498 33.6965 35.7463 32.7682 35.7463H18.6589C15.3215 35.7463 12.5902 33.0998 12.4598 29.7935H31.5253C36.7347 29.7859 40.9698 25.5514 40.9698 20.3428ZM12.4521 20.4885C12.4521 17.0672 15.2371 14.2826 18.6589 14.2826H31.5406C34.8857 14.2826 37.6017 16.9982 37.6017 20.3428C37.6017 23.695 34.8704 26.4183 31.5253 26.4183H12.4521V20.4885Z" fill="white"/>
<path d="M19.2421 23.0275C20.6447 23.0275 21.7817 21.8907 21.7817 20.4883C21.7817 19.086 20.6447 17.9492 19.2421 17.9492C17.8396 17.9492 16.7026 19.086 16.7026 20.4883C16.7026 21.8907 17.8396 23.0275 19.2421 23.0275Z" fill="white"/>
<path d="M30.8501 23.0275C32.2526 23.0275 33.3896 21.8907 33.3896 20.4883C33.3896 19.086 32.2526 17.9492 30.8501 17.9492C29.4475 17.9492 28.3105 19.086 28.3105 20.4883C28.3105 21.8907 29.4475 23.0275 30.8501 23.0275Z" fill="white"/>
<path d="M26.5999 8.49857C26.5999 7.48598 25.7789 6.67285 24.7739 6.67285C23.7611 6.67285 22.9479 7.49366 22.9479 8.49857C22.9479 9.15061 23.2931 9.72594 23.8148 10.0481V11.1834H25.7406V10.0481C26.2546 9.72594 26.5999 9.15061 26.5999 8.49857Z" fill="white"/>
</svg>
