<svg width="256" height="50" viewBox="0 0 256 50" fill="none" xmlns="http://www.w3.org/2000/svg">
<path d="M37.5633 50H12.4444C5.57005 50 0 44.4308 0 37.5575V12.4425C0 5.56919 5.57005 0 12.4444 0H37.5556C44.43 0 50 5.56919 50 12.4425V37.5499C50.0077 44.4308 44.4376 50 37.5633 50Z" fill="#6C54FF"/>
<path d="M40.9698 20.3428C40.9698 15.1418 36.7424 10.915 31.5406 10.915H18.6589C13.3804 10.915 9.08398 15.2108 9.08398 20.4885V29.7859H9.09166C9.22976 34.9485 13.4648 39.1062 18.6589 39.1062H32.7682C33.6965 39.1062 34.4484 38.3544 34.4484 37.4262C34.4484 36.498 33.6965 35.7463 32.7682 35.7463H18.6589C15.3215 35.7463 12.5902 33.0998 12.4598 29.7935H31.5253C36.7347 29.7859 40.9698 25.5514 40.9698 20.3428ZM12.4521 20.4885C12.4521 17.0672 15.2371 14.2826 18.6589 14.2826H31.5406C34.8857 14.2826 37.6017 16.9982 37.6017 20.3428C37.6017 23.695 34.8704 26.4183 31.5253 26.4183H12.4521V20.4885Z" fill="white"/>
<path d="M19.2421 23.0275C20.6447 23.0275 21.7817 21.8907 21.7817 20.4883C21.7817 19.086 20.6447 17.9492 19.2421 17.9492C17.8396 17.9492 16.7026 19.086 16.7026 20.4883C16.7026 21.8907 17.8396 23.0275 19.2421 23.0275Z" fill="white"/>
<path d="M30.8501 23.0275C32.2526 23.0275 33.3896 21.8907 33.3896 20.4883C33.3896 19.086 32.2526 17.9492 30.8501 17.9492C29.4475 17.9492 28.3105 19.086 28.3105 20.4883C28.3105 21.8907 29.4475 23.0275 30.8501 23.0275Z" fill="white"/>
<path d="M26.5999 8.49857C26.5999 7.48598 25.7789 6.67285 24.7739 6.67285C23.7611 6.67285 22.9479 7.49366 22.9479 8.49857C22.9479 9.15061 23.2931 9.72594 23.8148 10.0481V11.1834H25.7406V10.0481C26.2546 9.72594 26.5999 9.15061 26.5999 8.49857Z" fill="white"/>
<path d="M65 27.5289C65 21.8368 68.681 16.3591 74.1315 16.3591C78.239 16.3591 81.2407 18.7407 81.2407 22.0512C81.2407 25.6395 77.7019 28.0608 73.3178 28.0608C70.0239 28.0608 69.9923 28.0608 69.6763 28.0608C69.076 28.0608 68.7205 28.418 68.7205 29.0531C68.7205 31.792 71.8328 34.4911 74.1315 34.4911C76.0036 34.4911 77.3148 33.8878 79.1237 31.4665L81.849 33.5306C80.0084 36.0233 77.7414 38.008 74.2025 38.008C68.8232 38.0239 65 32.9748 65 27.5289ZM68.6099 25.1155C68.7837 24.9012 69.3209 24.6154 70.0634 24.6154H73.3573C76.2247 24.6154 77.852 23.369 77.852 22.0512C77.852 21.1938 77.0068 19.8125 74.2104 19.8125C71.6511 19.8125 69.384 21.9083 68.6099 25.1155Z" fill="white"/>
<path d="M94.9379 38.0243C89.1004 38.0243 84.3214 33.1499 84.3214 27.3229C84.3214 21.488 89.1004 16.693 94.9379 16.693C96.423 16.693 96.9206 16.1214 96.9206 15.3752V9.22266H100.357V38.0243H94.9379ZM96.9206 34.571V19.8526C96.9206 19.8526 96.6757 20.1384 94.9774 20.1384C91.0515 20.1384 87.7971 23.3774 87.7971 27.3229C87.7971 31.3081 91.0515 34.4677 94.9774 34.5392L96.9206 34.571Z" fill="white"/>
<path d="M105.373 29.5611V16.3669H108.809V29.5611C108.809 32.4031 110.894 34.5783 113.303 34.5783C115.713 34.5783 117.798 32.4111 117.798 29.5611V16.3669H121.234V29.5611C121.234 34.2211 117.695 38.0237 113.311 38.0237C108.88 38.0237 105.373 34.1814 105.373 29.5611Z" fill="white"/>
<path d="M143.415 38.0237L139.592 25.687L135.769 38.0237H132.941L124.907 16.3669H128.588L134.213 31.5537L138.138 18.7168H141.077L145.003 31.5537L150.627 16.3669H154.308L146.243 38.0237H143.415Z" fill="white"/>
<path d="M156.962 38.0239V24.79C156.962 20.2015 160.462 16.3591 164.885 16.3591H165.738V19.8125H164.885C162.476 19.8125 160.391 21.9797 160.391 24.79V38.0159H156.962V38.0239Z" fill="white"/>
<path d="M172.042 9C173.282 9 174.269 9.99234 174.269 11.2387C174.269 12.4851 173.282 13.4457 172.042 13.4457C170.802 13.4457 169.846 12.4851 169.846 11.2387C169.846 10.0003 170.802 9 172.042 9ZM170.375 16.3671H173.811V38.0239H170.375V16.3671Z" fill="white"/>
<path d="M186.687 34.5711H187.54V38.0244H186.687C184.531 38.0244 182.477 37.1353 180.992 35.4999C179.507 33.936 178.725 31.8005 178.725 29.5618V9.21484H182.161V16.9313C182.161 16.9313 182.374 16.6455 183.045 16.6455H187.54V20.0988H183.33C182.761 20.0988 182.2 20.4164 182.2 20.9562V29.53C182.161 32.3641 184.246 34.5711 186.687 34.5711Z" fill="white"/>
<path d="M190.368 27.5289C190.368 21.8368 194.049 16.3591 199.5 16.3591C203.607 16.3591 206.609 18.7407 206.609 22.0512C206.609 25.6395 203.07 28.0608 198.686 28.0608C195.392 28.0608 195.36 28.0608 195.044 28.0608C194.444 28.0608 194.089 28.418 194.089 29.0531C194.089 31.792 197.201 34.4911 199.5 34.4911C201.372 34.4911 202.683 33.8878 204.492 31.4665L207.217 33.5306C205.377 36.0233 203.109 38.008 199.571 38.008C194.191 38.0239 190.368 32.9748 190.368 27.5289ZM193.978 25.1155C194.152 24.9012 194.689 24.6154 195.431 24.6154H198.725C201.593 24.6154 203.22 23.369 203.22 22.0512C203.22 21.1938 202.375 19.8125 199.578 19.8125C197.019 19.8125 194.752 21.9083 193.978 25.1155Z" fill="white"/>
<path d="M211.214 38.0239V24.79C211.214 20.2015 214.713 16.3591 219.137 16.3591H219.99V19.8125H219.137C216.727 19.8125 214.642 21.9797 214.642 24.79V38.0159H211.214V38.0239Z" fill="white"/>
<path d="M225.543 33.3958C226.957 33.3958 228.095 34.531 228.095 35.96C228.095 37.381 226.965 38.4845 225.543 38.4845C224.129 38.4845 223.031 37.381 223.031 35.96C223.031 34.5389 224.129 33.3958 225.543 33.3958Z" fill="white"/>
<path d="M231.341 31.3393C231.341 27.497 235.164 24.655 239.335 24.655H241.634C242.621 24.655 243.901 24.1231 243.901 23.0513C243.901 21.416 242.163 19.8123 239.69 19.8123C238.095 19.8123 236.72 20.4554 234.951 22.837L232.194 20.7729C233.892 17.9309 237.044 16.3669 239.659 16.3669C243.766 16.3669 247.305 19.3519 247.305 23.0513V31.3393C247.305 35.142 243.522 38.0237 239.343 38.0237C235.133 38.0237 231.341 35.142 231.341 31.3393ZM234.809 31.2997C234.809 32.9747 236.791 34.5704 239.335 34.5704C241.918 34.5704 243.861 32.935 243.861 31.2997V27.4573C243.861 27.4573 243.577 28.0607 239.335 28.0289C236.791 28.0289 234.809 29.6325 234.809 31.2997Z" fill="white"/>
<path d="M253.561 9C254.802 9 255.789 9.99234 255.789 11.2387C255.789 12.4851 254.802 13.4457 253.561 13.4457C252.321 13.4457 251.365 12.4851 251.365 11.2387C251.373 10.0003 252.329 9 253.561 9ZM251.903 16.3671H255.331V38.0239H251.903V16.3671Z" fill="white"/>
</svg>
