<svg width="271" height="41" viewBox="0 0 271 41" fill="none" xmlns="http://www.w3.org/2000/svg">
<path d="M16.4826 7.6299C16.4826 5.10727 14.5625 3.05713 12.1998 3.05713H6.34887C3.95136 3.05713 1.99988 5.14075 1.99988 7.70063V12.2102H2.00337C2.06609 14.7143 3.98969 16.7309 6.34887 16.7309H12.7574C13.179 16.7309 13.5206 16.3663 13.5206 15.9161C13.5206 15.4658 13.179 15.1012 12.7574 15.1012H6.34887C4.833 15.1012 3.59242 13.8176 3.53318 12.2139H12.1928C14.559 12.2102 16.4826 10.1564 16.4826 7.6299ZM3.5297 7.70063C3.5297 6.04118 4.79467 4.69054 6.34887 4.69054H12.1998C13.7192 4.69054 14.9528 6.00769 14.9528 7.6299C14.9528 9.2559 13.7122 10.5768 12.1928 10.5768H3.5297V7.70063Z" fill="#888888"/>
<path d="M6.61375 8.93265C7.25079 8.93265 7.76722 8.38125 7.76722 7.70107C7.76722 7.02087 7.25079 6.46948 6.61375 6.46948C5.97672 6.46948 5.4603 7.02087 5.4603 7.70107C5.4603 8.38125 5.97672 8.93265 6.61375 8.93265Z" fill="#888888"/>
<path d="M11.8863 8.93265C12.5233 8.93265 13.0397 8.38125 13.0397 7.70107C13.0397 7.02087 12.5233 6.46948 11.8863 6.46948C11.2492 6.46948 10.7328 7.02087 10.7328 7.70107C10.7328 8.38125 11.2492 8.93265 11.8863 8.93265Z" fill="#888888"/>
<path d="M9.9558 1.8853C9.9558 1.39415 9.58298 0.999756 9.12645 0.999756C8.66648 0.999756 8.29703 1.39788 8.29703 1.8853C8.29703 2.20156 8.45385 2.48062 8.69085 2.63689V3.18756H9.5655V2.63689C9.79898 2.48062 9.9558 2.20156 9.9558 1.8853Z" fill="#888888"/>
<path d="M39.4826 7.6299C39.4826 5.10727 37.5625 3.05713 35.1998 3.05713H29.3489C26.9514 3.05713 24.9999 5.14075 24.9999 7.70063V12.2102H25.0034C25.0661 14.7143 26.9897 16.7309 29.3489 16.7309H35.7574C36.179 16.7309 36.5206 16.3663 36.5206 15.9161C36.5206 15.4658 36.179 15.1012 35.7574 15.1012H29.3489C27.833 15.1012 26.5924 13.8176 26.5332 12.2139H35.1928C37.559 12.2102 39.4826 10.1564 39.4826 7.6299ZM26.5297 7.70063C26.5297 6.04118 27.7947 4.69054 29.3489 4.69054H35.1998C36.7192 4.69054 37.9528 6.00769 37.9528 7.6299C37.9528 9.2559 36.7122 10.5768 35.1928 10.5768H26.5297V7.70063Z" fill="white"/>
<path d="M29.6138 8.93265C30.2508 8.93265 30.7672 8.38125 30.7672 7.70107C30.7672 7.02087 30.2508 6.46948 29.6138 6.46948C28.9767 6.46948 28.4603 7.02087 28.4603 7.70107C28.4603 8.38125 28.9767 8.93265 29.6138 8.93265Z" fill="white"/>
<path d="M34.8863 8.93265C35.5233 8.93265 36.0397 8.38125 36.0397 7.70107C36.0397 7.02087 35.5233 6.46948 34.8863 6.46948C34.2492 6.46948 33.7328 7.02087 33.7328 7.70107C33.7328 8.38125 34.2492 8.93265 34.8863 8.93265Z" fill="white"/>
<path d="M32.9558 1.8853C32.9558 1.39415 32.583 0.999756 32.1265 0.999756C31.6665 0.999756 31.297 1.39788 31.297 1.8853C31.297 2.20156 31.4539 2.48062 31.6909 2.63689V3.18756H32.5655V2.63689C32.799 2.48062 32.9558 2.20156 32.9558 1.8853Z" fill="white"/>
<path d="M61.75 5.25V12.75C61.75 15 60.625 16.5 58 16.5H52C49.375 16.5 48.25 15 48.25 12.75V5.25C48.25 3 49.375 1.5 52 1.5H58C60.625 1.5 61.75 3 61.75 5.25Z" stroke="#888888" stroke-width="1.5" stroke-miterlimit="10" stroke-linecap="round" stroke-linejoin="round"/>
<path d="M56.875 3.375V4.875C56.875 5.7 57.55 6.375 58.375 6.375H59.875" stroke="#888888" stroke-width="1.5" stroke-miterlimit="10" stroke-linecap="round" stroke-linejoin="round"/>
<path d="M52 9.75H55" stroke="#888888" stroke-width="1.5" stroke-miterlimit="10" stroke-linecap="round" stroke-linejoin="round"/>
<path d="M52 12.75H58" stroke="#888888" stroke-width="1.5" stroke-miterlimit="10" stroke-linecap="round" stroke-linejoin="round"/>
<path d="M84.75 5.25V12.75C84.75 15 83.625 16.5 81 16.5H75C72.375 16.5 71.25 15 71.25 12.75V5.25C71.25 3 72.375 1.5 75 1.5H81C83.625 1.5 84.75 3 84.75 5.25Z" stroke="white" stroke-width="1.5" stroke-miterlimit="10" stroke-linecap="round" stroke-linejoin="round"/>
<path d="M79.875 3.375V4.875C79.875 5.7 80.55 6.375 81.375 6.375H82.875" stroke="white" stroke-width="1.5" stroke-miterlimit="10" stroke-linecap="round" stroke-linejoin="round"/>
<path d="M75 9.75H78" stroke="white" stroke-width="1.5" stroke-miterlimit="10" stroke-linecap="round" stroke-linejoin="round"/>
<path d="M75 12.75H81" stroke="white" stroke-width="1.5" stroke-miterlimit="10" stroke-linecap="round" stroke-linejoin="round"/>
<g clip-path="url(#clip0_3131_142)">
<path d="M98.75 8.25V12.75L100.25 11.25" stroke="#888888" stroke-width="1.5" stroke-linecap="round" stroke-linejoin="round"/>
<path d="M98.75 12.75L97.25 11.25" stroke="#888888" stroke-width="1.5" stroke-linecap="round" stroke-linejoin="round"/>
<path d="M108.5 7.5V11.25C108.5 15 107 16.5 103.25 16.5H98.75C95 16.5 93.5 15 93.5 11.25V6.75C93.5 3 95 1.5 98.75 1.5H102.5" stroke="#888888" stroke-width="1.5" stroke-linecap="round" stroke-linejoin="round"/>
<path d="M108.5 7.5H105.5C103.25 7.5 102.5 6.75 102.5 4.5V1.5L108.5 7.5Z" stroke="#888888" stroke-width="1.5" stroke-linecap="round" stroke-linejoin="round"/>
</g>
<g clip-path="url(#clip1_3131_142)">
<path d="M121.75 8.25V12.75L123.25 11.25" stroke="white" stroke-width="1.5" stroke-linecap="round" stroke-linejoin="round"/>
<path d="M121.75 12.75L120.25 11.25" stroke="white" stroke-width="1.5" stroke-linecap="round" stroke-linejoin="round"/>
<path d="M131.5 7.5V11.25C131.5 15 130 16.5 126.25 16.5H121.75C118 16.5 116.5 15 116.5 11.25V6.75C116.5 3 118 1.5 121.75 1.5H125.5" stroke="white" stroke-width="1.5" stroke-linecap="round" stroke-linejoin="round"/>
<path d="M131.5 7.5H128.5C126.25 7.5 125.5 6.75 125.5 4.5V1.5L131.5 7.5Z" stroke="white" stroke-width="1.5" stroke-linecap="round" stroke-linejoin="round"/>
</g>
<path d="M144.983 11.025L146.108 12.15L149.108 9.15002" stroke="#888888" stroke-width="1.5" stroke-linecap="round" stroke-linejoin="round"/>
<path d="M145.5 4.5H148.5C150 4.5 150 3.75 150 3C150 1.5 149.25 1.5 148.5 1.5H145.5C144.75 1.5 144 1.5 144 3C144 4.5 144.75 4.5 145.5 4.5Z" stroke="#888888" stroke-width="1.5" stroke-miterlimit="10" stroke-linecap="round" stroke-linejoin="round"/>
<path d="M150 3.01465C152.497 3.14965 153.75 4.07215 153.75 7.49965V11.9996C153.75 14.9996 153 16.4996 149.25 16.4996H144.75C141 16.4996 140.25 14.9996 140.25 11.9996V7.49965C140.25 4.07965 141.503 3.14965 144 3.01465" stroke="#888888" stroke-width="1.5" stroke-miterlimit="10" stroke-linecap="round" stroke-linejoin="round"/>
<path d="M167.983 11.025L169.108 12.15L172.108 9.15002" stroke="white" stroke-width="1.5" stroke-linecap="round" stroke-linejoin="round"/>
<path d="M168.5 4.5H171.5C173 4.5 173 3.75 173 3C173 1.5 172.25 1.5 171.5 1.5H168.5C167.75 1.5 167 1.5 167 3C167 4.5 167.75 4.5 168.5 4.5Z" stroke="white" stroke-width="1.5" stroke-miterlimit="10" stroke-linecap="round" stroke-linejoin="round"/>
<path d="M173 3.01465C175.497 3.14965 176.75 4.07215 176.75 7.49965V11.9996C176.75 14.9996 176 16.4996 172.25 16.4996H167.75C164 16.4996 163.25 14.9996 163.25 11.9996V7.49965C163.25 4.07965 164.503 3.14965 167 3.01465" stroke="white" stroke-width="1.5" stroke-miterlimit="10" stroke-linecap="round" stroke-linejoin="round"/>
<path d="M186.625 13.5V5.25C186.625 2.25 187.375 1.5 190.375 1.5H195.625C198.625 1.5 199.375 2.25 199.375 5.25V12.75C199.375 12.855 199.375 12.96 199.367 13.065" stroke="#888888" stroke-width="1.5" stroke-linecap="round" stroke-linejoin="round"/>
<path d="M188.762 11.25H199.375V13.875C199.375 15.3225 198.197 16.5 196.75 16.5H189.25C187.803 16.5 186.625 15.3225 186.625 13.875V13.3875C186.625 12.21 187.585 11.25 188.762 11.25Z" stroke="#888888" stroke-width="1.5" stroke-linecap="round" stroke-linejoin="round"/>
<path d="M190 5.25H196" stroke="#888888" stroke-width="1.5" stroke-linecap="round" stroke-linejoin="round"/>
<path d="M190 7.875H193.75" stroke="#888888" stroke-width="1.5" stroke-linecap="round" stroke-linejoin="round"/>
<path d="M209.625 13.5V5.25C209.625 2.25 210.375 1.5 213.375 1.5H218.625C221.625 1.5 222.375 2.25 222.375 5.25V12.75C222.375 12.855 222.375 12.96 222.367 13.065" stroke="white" stroke-width="1.5" stroke-linecap="round" stroke-linejoin="round"/>
<path d="M211.762 11.25H222.375V13.875C222.375 15.3225 221.197 16.5 219.75 16.5H212.25C210.803 16.5 209.625 15.3225 209.625 13.875V13.3875C209.625 12.21 210.585 11.25 211.762 11.25Z" stroke="white" stroke-width="1.5" stroke-linecap="round" stroke-linejoin="round"/>
<path d="M213 5.25H219" stroke="white" stroke-width="1.5" stroke-linecap="round" stroke-linejoin="round"/>
<path d="M213 7.875H216.75" stroke="white" stroke-width="1.5" stroke-linecap="round" stroke-linejoin="round"/>
<path d="M239 9C241.071 9 242.75 7.32107 242.75 5.25C242.75 3.17893 241.071 1.5 239 1.5C236.929 1.5 235.25 3.17893 235.25 5.25C235.25 7.32107 236.929 9 239 9Z" stroke="#888888" stroke-width="1.5" stroke-linecap="round" stroke-linejoin="round"/>
<path d="M244.408 11.805L241.752 14.4601C241.647 14.5651 241.55 14.76 241.527 14.9025L241.385 15.915C241.332 16.2825 241.587 16.5375 241.955 16.485L242.967 16.3425C243.11 16.32 243.312 16.2225 243.41 16.1175L246.065 13.4625C246.522 13.005 246.74 12.4725 246.065 11.7975C245.397 11.13 244.865 11.3475 244.408 11.805Z" stroke="#888888" stroke-width="1.5" stroke-miterlimit="10" stroke-linecap="round" stroke-linejoin="round"/>
<path d="M244.025 12.1875C244.25 12.9975 244.88 13.6275 245.69 13.8525" stroke="#888888" stroke-width="1.5" stroke-miterlimit="10" stroke-linecap="round" stroke-linejoin="round"/>
<path d="M232.557 16.5C232.557 13.5975 235.445 11.25 239 11.25C239.78 11.25 240.53 11.3625 241.227 11.5725" stroke="#888888" stroke-width="1.5" stroke-linecap="round" stroke-linejoin="round"/>
<path d="M262 9C264.071 9 265.75 7.32107 265.75 5.25C265.75 3.17893 264.071 1.5 262 1.5C259.929 1.5 258.25 3.17893 258.25 5.25C258.25 7.32107 259.929 9 262 9Z" stroke="white" stroke-width="1.5" stroke-linecap="round" stroke-linejoin="round"/>
<path d="M267.408 11.805L264.753 14.4601C264.648 14.5651 264.55 14.76 264.528 14.9025L264.385 15.915C264.333 16.2825 264.588 16.5375 264.955 16.485L265.968 16.3425C266.11 16.32 266.313 16.2225 266.41 16.1175L269.065 13.4625C269.523 13.005 269.74 12.4725 269.065 11.7975C268.398 11.13 267.865 11.3475 267.408 11.805Z" stroke="white" stroke-width="1.5" stroke-miterlimit="10" stroke-linecap="round" stroke-linejoin="round"/>
<path d="M267.025 12.1875C267.25 12.9975 267.88 13.6275 268.69 13.8525" stroke="white" stroke-width="1.5" stroke-miterlimit="10" stroke-linecap="round" stroke-linejoin="round"/>
<path d="M255.557 16.5C255.557 13.5975 258.445 11.25 262 11.25C262.78 11.25 263.53 11.3625 264.227 11.5725" stroke="white" stroke-width="1.5" stroke-linecap="round" stroke-linejoin="round"/>
<g clip-path="url(#clip2_3131_142)">
<path d="M2.51248 24.5H9.1875C9.7425 24.5 10.2 24.9575 10.2 25.5125V26.6225C10.2 27.0275 9.945 27.53 9.6975 27.785L7.5225 29.705C7.22252 29.96 7.01998 30.4625 7.01998 30.8675V33.0425C7.01998 33.3425 6.8175 33.7475 6.5625 33.905L5.8575 34.3625C5.1975 34.7675 4.28998 34.31 4.28998 33.5V30.8225C4.28998 30.47 4.08749 30.0125 3.88499 29.7575L1.96499 27.7325C1.70999 27.4775 1.50751 27.0275 1.50751 26.72V25.5575C1.50001 24.9575 1.95748 24.5 2.51248 24.5Z" stroke="#888888" stroke-width="1.5" stroke-miterlimit="10" stroke-linecap="round" stroke-linejoin="round"/>
<path d="M1.5 32.0002V34.2502C1.5 38.0002 3 39.5002 6.75 39.5002H11.25C15 39.5002 16.5 38.0002 16.5 34.2502V29.7502C16.5 27.4102 15.915 25.9402 14.5575 25.1752C14.175 24.9577 13.41 24.7927 12.7125 24.6802" stroke="#888888" stroke-width="1.5" stroke-linecap="round" stroke-linejoin="round"/>
<path d="M9.75 32.75H13.5" stroke="#888888" stroke-width="1.5" stroke-linecap="round" stroke-linejoin="round"/>
<path d="M8.25 35.75H13.5" stroke="#888888" stroke-width="1.5" stroke-linecap="round" stroke-linejoin="round"/>
</g>
<g clip-path="url(#clip3_3131_142)">
<path d="M25.5125 24.5H32.1875C32.7425 24.5 33.2 24.9575 33.2 25.5125V26.6225C33.2 27.0275 32.945 27.53 32.6975 27.785L30.5225 29.705C30.2225 29.96 30.02 30.4625 30.02 30.8675V33.0425C30.02 33.3425 29.8175 33.7475 29.5625 33.905L28.8575 34.3625C28.1975 34.7675 27.29 34.31 27.29 33.5V30.8225C27.29 30.47 27.0875 30.0125 26.885 29.7575L24.965 27.7325C24.71 27.4775 24.5075 27.0275 24.5075 26.72V25.5575C24.5 24.9575 24.9575 24.5 25.5125 24.5Z" stroke="white" stroke-width="1.5" stroke-miterlimit="10" stroke-linecap="round" stroke-linejoin="round"/>
<path d="M24.5 32.0002V34.2502C24.5 38.0002 26 39.5002 29.75 39.5002H34.25C38 39.5002 39.5 38.0002 39.5 34.2502V29.7502C39.5 27.4102 38.915 25.9402 37.5575 25.1752C37.175 24.9577 36.41 24.7927 35.7125 24.6802" stroke="white" stroke-width="1.5" stroke-linecap="round" stroke-linejoin="round"/>
<path d="M32.75 32.75H36.5" stroke="white" stroke-width="1.5" stroke-linecap="round" stroke-linejoin="round"/>
<path d="M31.25 35.75H36.5" stroke="white" stroke-width="1.5" stroke-linecap="round" stroke-linejoin="round"/>
</g>
<path d="M61.375 31.475V28.28C61.375 25.2575 60.67 24.5 57.835 24.5H52.165C49.33 24.5 48.625 25.2575 48.625 28.28V36.725C48.625 38.72 49.72 39.1925 51.0475 37.7675L51.055 37.76C51.67 37.1075 52.6075 37.16 53.14 37.8725L53.8975 38.885" stroke="#888888" stroke-width="1.5" stroke-linecap="round" stroke-linejoin="round"/>
<path d="M59.65 39.05C60.9755 39.05 62.05 37.9755 62.05 36.65C62.05 35.3245 60.9755 34.25 59.65 34.25C58.3245 34.25 57.25 35.3245 57.25 36.65C57.25 37.9755 58.3245 39.05 59.65 39.05Z" stroke="#888888" stroke-width="1.5" stroke-linecap="round" stroke-linejoin="round"/>
<path d="M62.5 39.5L61.75 38.75" stroke="#888888" stroke-width="1.5" stroke-linecap="round" stroke-linejoin="round"/>
<path d="M52 28.25H58" stroke="#888888" stroke-width="1.5" stroke-linecap="round" stroke-linejoin="round"/>
<path d="M52.75 31.25H57.25" stroke="#888888" stroke-width="1.5" stroke-linecap="round" stroke-linejoin="round"/>
<path d="M84.375 31.475V28.28C84.375 25.2575 83.67 24.5 80.835 24.5H75.165C72.33 24.5 71.625 25.2575 71.625 28.28V36.725C71.625 38.72 72.72 39.1925 74.0475 37.7675L74.055 37.76C74.67 37.1075 75.6075 37.16 76.14 37.8725L76.8975 38.885" stroke="white" stroke-width="1.5" stroke-linecap="round" stroke-linejoin="round"/>
<path d="M82.65 39.05C83.9755 39.05 85.05 37.9755 85.05 36.65C85.05 35.3245 83.9755 34.25 82.65 34.25C81.3245 34.25 80.25 35.3245 80.25 36.65C80.25 37.9755 81.3245 39.05 82.65 39.05Z" stroke="white" stroke-width="1.5" stroke-linecap="round" stroke-linejoin="round"/>
<path d="M85.5 39.5L84.75 38.75" stroke="white" stroke-width="1.5" stroke-linecap="round" stroke-linejoin="round"/>
<path d="M75 28.25H81" stroke="white" stroke-width="1.5" stroke-linecap="round" stroke-linejoin="round"/>
<path d="M75.75 31.25H80.25" stroke="white" stroke-width="1.5" stroke-linecap="round" stroke-linejoin="round"/>
<g clip-path="url(#clip4_3131_142)">
<path d="M99.215 35L100.34 36.125L102.777 33.875" stroke="white" stroke-width="1.5" stroke-linecap="round" stroke-linejoin="round"/>
<path d="M98.6075 24.5L95.8925 27.2225" stroke="white" stroke-width="1.5" stroke-miterlimit="10" stroke-linecap="round" stroke-linejoin="round"/>
<path d="M103.392 24.5L106.107 27.2225" stroke="white" stroke-width="1.5" stroke-miterlimit="10" stroke-linecap="round" stroke-linejoin="round"/>
<path d="M93.5 28.8872C93.5 27.4997 94.2425 27.3872 95.165 27.3872H106.835C107.758 27.3872 108.5 27.4997 108.5 28.8872C108.5 30.4997 107.758 30.3872 106.835 30.3872H95.165C94.2425 30.3872 93.5 30.4997 93.5 28.8872Z" stroke="white" stroke-width="1.5"/>
<path d="M94.625 30.5L95.6825 36.98C95.9225 38.435 96.5 39.5 98.645 39.5H103.168C105.5 39.5 105.845 38.48 106.115 37.07L107.375 30.5" stroke="white" stroke-width="1.5" stroke-linecap="round"/>
</g>
<g clip-path="url(#clip5_3131_142)">
<path d="M128.605 39.2149C127.945 39.4099 127.165 39.4999 126.25 39.4999H121.75C120.835 39.4999 120.055 39.4099 119.395 39.2149C119.56 37.2649 121.562 35.7273 124 35.7273C126.437 35.7273 128.44 37.2649 128.605 39.2149Z" stroke="white" stroke-width="1.5" stroke-linecap="round" stroke-linejoin="round"/>
<path d="M126.25 24.5H121.75C118 24.5 116.5 26 116.5 29.75V34.25C116.5 37.085 117.355 38.6375 119.395 39.215C119.56 37.265 121.562 35.7275 124 35.7275C126.438 35.7275 128.44 37.265 128.605 39.215C130.645 38.6375 131.5 37.085 131.5 34.25V29.75C131.5 26 130 24.5 126.25 24.5ZM124 33.6275C122.515 33.6275 121.315 32.42 121.315 30.935C121.315 29.45 122.515 28.25 124 28.25C125.485 28.25 126.685 29.45 126.685 30.935C126.685 32.42 125.485 33.6275 124 33.6275Z" stroke="white" stroke-width="1.5" stroke-linecap="round" stroke-linejoin="round"/>
<path d="M126.685 30.935C126.685 32.42 125.485 33.6275 124 33.6275C122.515 33.6275 121.315 32.42 121.315 30.935C121.315 29.45 122.515 28.25 124 28.25C125.485 28.25 126.685 29.45 126.685 30.935Z" stroke="white" stroke-width="1.5" stroke-linecap="round" stroke-linejoin="round"/>
</g>
<path d="M141.195 31.2653V34.9928C141.195 36.3578 141.195 36.3578 142.485 37.2278L146.032 39.2753C146.565 39.5828 147.435 39.5828 147.967 39.2753L151.515 37.2278C152.805 36.3578 152.805 36.3578 152.805 34.9928V31.2653C152.805 29.9003 152.805 29.9003 151.515 29.0303L147.967 26.9828C147.435 26.6753 146.565 26.6753 146.032 26.9828L142.485 29.0303C141.195 29.9003 141.195 29.9003 141.195 31.2653Z" stroke="white" stroke-width="1.5" stroke-linecap="round" stroke-linejoin="round"/>
<path d="M151.125 28.7225V26.75C151.125 25.25 150.375 24.5 148.875 24.5H145.125C143.625 24.5 142.875 25.25 142.875 26.75V28.67" stroke="white" stroke-width="1.5" stroke-linecap="round" stroke-linejoin="round"/>
<path d="M147.473 31.2425L147.9 31.91C147.968 32.015 148.118 32.12 148.23 32.15L148.995 32.345C149.468 32.465 149.595 32.87 149.288 33.245L148.785 33.8525C148.71 33.95 148.65 34.1225 148.658 34.2425L148.703 35.03C148.733 35.5175 148.388 35.765 147.938 35.585L147.203 35.2925C147.09 35.2475 146.903 35.2475 146.79 35.2925L146.055 35.585C145.605 35.765 145.26 35.51 145.29 35.03L145.335 34.2425C145.343 34.1225 145.283 33.9425 145.208 33.8525L144.705 33.245C144.398 32.87 144.525 32.465 144.998 32.345L145.763 32.15C145.883 32.12 146.033 32.0075 146.093 31.91L146.52 31.2425C146.79 30.8375 147.21 30.8375 147.473 31.2425Z" stroke="white" stroke-width="1.5" stroke-linecap="round" stroke-linejoin="round"/>
<path d="M169.625 38.5302C173.56 38.5302 176.75 35.5182 176.75 31.8027C176.75 28.0871 173.56 25.0751 169.625 25.0751C165.69 25.0751 162.5 28.0871 162.5 31.8027C162.5 35.5182 165.69 38.5302 169.625 38.5302Z" stroke="#888888" stroke-width="1.5" stroke-linecap="round" stroke-linejoin="round"/>
<path d="M177.5 39.2388L176 37.8224" stroke="#888888" stroke-width="1.5" stroke-linecap="round" stroke-linejoin="round"/>
<path d="M185.636 32H200.364" stroke="white" stroke-width="2" stroke-linecap="round" stroke-linejoin="round"/>
<path d="M185.636 26.2727H200.364" stroke="white" stroke-width="2" stroke-linecap="round" stroke-linejoin="round"/>
<path d="M185.636 37.7273H200.364" stroke="white" stroke-width="2" stroke-linecap="round" stroke-linejoin="round"/>
<path d="M208.636 32H223.364" stroke="#AFA2FF" stroke-width="2" stroke-linecap="round" stroke-linejoin="round"/>
<path d="M208.636 26.2727H223.364" stroke="#AFA2FF" stroke-width="2" stroke-linecap="round" stroke-linejoin="round"/>
<path d="M208.636 37.7273H223.364" stroke="#AFA2FF" stroke-width="2" stroke-linecap="round" stroke-linejoin="round"/>
<path d="M241.029 31.8456L246.487 26.3856C246.635 26.2432 246.752 26.0728 246.833 25.8844C246.914 25.696 246.957 25.4934 246.959 25.2884C246.961 25.0833 246.921 24.88 246.844 24.6902C246.766 24.5005 246.651 24.3281 246.507 24.1831C246.362 24.0381 246.189 23.9235 245.999 23.8458C245.81 23.7682 245.606 23.7291 245.401 23.7309C245.196 23.7327 244.994 23.7753 244.805 23.8562C244.617 23.9371 244.446 24.0548 244.304 24.2022L238.844 29.6607L233.386 24.2022C233.243 24.0548 233.073 23.9371 232.884 23.8562C232.696 23.7753 232.493 23.7327 232.288 23.7309C232.083 23.7291 231.88 23.7682 231.69 23.8458C231.5 23.9235 231.328 24.0381 231.183 24.1831C231.038 24.3281 230.923 24.5005 230.846 24.6902C230.768 24.88 230.729 25.0833 230.731 25.2884C230.733 25.4934 230.775 25.696 230.856 25.8844C230.937 26.0728 231.055 26.2432 231.202 26.3856L236.661 31.8441L231.202 37.3041C231.055 37.4465 230.937 37.6169 230.856 37.8053C230.775 37.9936 230.733 38.1963 230.731 38.4013C230.729 38.6064 230.768 38.8097 230.846 38.9994C230.923 39.1892 231.038 39.3616 231.183 39.5066C231.328 39.6515 231.5 39.7662 231.69 39.8439C231.88 39.9215 232.083 39.9606 232.288 39.9588C232.493 39.957 232.696 39.9144 232.884 39.8335C233.073 39.7525 233.243 39.6349 233.386 39.4874L238.844 34.029L244.304 39.4874C244.446 39.6349 244.617 39.7525 244.805 39.8335C244.994 39.9144 245.196 39.957 245.401 39.9588C245.606 39.9606 245.81 39.9215 245.999 39.8439C246.189 39.7662 246.362 39.6515 246.507 39.5066C246.651 39.3616 246.766 39.1892 246.844 38.9994C246.921 38.8097 246.961 38.6064 246.959 38.4013C246.957 38.1963 246.914 37.9936 246.833 37.8053C246.752 37.6169 246.635 37.4465 246.487 37.3041L241.029 31.8441V31.8456Z" fill="white"/>
<path d="M264.029 31.8456L269.487 26.3856C269.635 26.2432 269.752 26.0728 269.833 25.8844C269.914 25.696 269.957 25.4934 269.959 25.2884C269.961 25.0833 269.921 24.88 269.844 24.6902C269.766 24.5005 269.651 24.3281 269.507 24.1831C269.362 24.0381 269.189 23.9235 268.999 23.8458C268.81 23.7682 268.606 23.7291 268.401 23.7309C268.196 23.7327 267.994 23.7753 267.805 23.8562C267.617 23.9371 267.446 24.0548 267.304 24.2022L261.844 29.6607L256.386 24.2022C256.243 24.0548 256.073 23.9371 255.884 23.8562C255.696 23.7753 255.493 23.7327 255.288 23.7309C255.083 23.7291 254.88 23.7682 254.69 23.8458C254.5 23.9235 254.328 24.0381 254.183 24.1831C254.038 24.3281 253.923 24.5005 253.846 24.6902C253.768 24.88 253.729 25.0833 253.731 25.2884C253.733 25.4934 253.775 25.696 253.856 25.8844C253.937 26.0728 254.055 26.2432 254.202 26.3856L259.661 31.8441L254.202 37.3041C254.055 37.4465 253.937 37.6169 253.856 37.8053C253.775 37.9936 253.733 38.1963 253.731 38.4013C253.729 38.6064 253.768 38.8097 253.846 38.9994C253.923 39.1892 254.038 39.3616 254.183 39.5066C254.328 39.6515 254.5 39.7662 254.69 39.8439C254.88 39.9215 255.083 39.9606 255.288 39.9588C255.493 39.957 255.696 39.9144 255.884 39.8335C256.073 39.7525 256.243 39.6349 256.386 39.4874L261.844 34.029L267.304 39.4874C267.446 39.6349 267.617 39.7525 267.805 39.8335C267.994 39.9144 268.196 39.957 268.401 39.9588C268.606 39.9606 268.81 39.9215 268.999 39.8439C269.189 39.7662 269.362 39.6515 269.507 39.5066C269.651 39.3616 269.766 39.1892 269.844 38.9994C269.921 38.8097 269.961 38.6064 269.959 38.4013C269.957 38.1963 269.914 37.9936 269.833 37.8053C269.752 37.6169 269.635 37.4465 269.487 37.3041L264.029 31.8441V31.8456Z" fill="#FF9C9C"/>
<defs>
<clipPath id="clip0_3131_142">
<rect width="18" height="18" fill="white" transform="translate(92)"/>
</clipPath>
<clipPath id="clip1_3131_142">
<rect width="18" height="18" fill="white" transform="translate(115)"/>
</clipPath>
<clipPath id="clip2_3131_142">
<rect width="18" height="18" fill="white" transform="translate(0 23)"/>
</clipPath>
<clipPath id="clip3_3131_142">
<rect width="18" height="18" fill="white" transform="translate(23 23)"/>
</clipPath>
<clipPath id="clip4_3131_142">
<rect width="18" height="18" fill="white" transform="translate(92 23)"/>
</clipPath>
<clipPath id="clip5_3131_142">
<rect width="18" height="18" fill="white" transform="translate(115 23)"/>
</clipPath>
</defs>
</svg>
