<svg width="185" height="31" viewBox="0 0 185 31" fill="none" xmlns="http://www.w3.org/2000/svg">
<mask id="mask0_3132_295" style="mask-type:luminance" maskUnits="userSpaceOnUse" x="0" y="0" width="25" height="25">
<path d="M25 0H0V25H25V0Z" fill="white"/>
</mask>
<g mask="url(#mask0_3132_295)">
<path d="M20.7643 5.49641C20.7643 6.50831 19.944 7.32861 18.9321 7.32861C17.9203 7.32861 17.1 6.50831 17.1 5.49641C17.1 4.48461 17.9203 3.66431 18.9321 3.66431C19.944 3.66431 20.7643 4.48461 20.7643 5.49641Z" fill="white"/>
<path fill-rule="evenodd" clip-rule="evenodd" d="M12.2143 18.3214C15.5872 18.3214 18.3214 15.5872 18.3214 12.2143C18.3214 8.84138 15.5872 6.10718 12.2143 6.10718C8.84141 6.10718 6.10715 8.84138 6.10715 12.2143C6.10715 15.5872 8.84141 18.3214 12.2143 18.3214ZM12.2143 15.8786C14.238 15.8786 15.8786 14.238 15.8786 12.2143C15.8786 10.1906 14.238 8.54998 12.2143 8.54998C10.1906 8.54998 8.55001 10.1906 8.55001 12.2143C8.55001 14.238 10.1906 15.8786 12.2143 15.8786Z" fill="white"/>
<path fill-rule="evenodd" clip-rule="evenodd" d="M0 11.7257C0 7.6213 0 5.5691 0.798767 4.0015C1.50138 2.6225 2.62251 1.5014 4.00147 0.798801C5.56914 1.43051e-06 7.62133 0 11.7257 0H12.7029C16.8072 0 18.8594 1.43051e-06 20.4271 0.798801C21.8061 1.5014 22.9272 2.6225 23.6298 4.0015C24.4286 5.5691 24.4286 7.6213 24.4286 11.7257V12.7029C24.4286 16.8072 24.4286 18.8594 23.6298 20.4271C22.9272 21.8061 21.8061 22.9272 20.4271 23.6298C18.8594 24.4286 16.8072 24.4286 12.7029 24.4286H11.7257C7.62133 24.4286 5.56914 24.4286 4.00147 23.6298C2.62251 22.9272 1.50138 21.8061 0.798767 20.4271C0 18.8594 0 16.8072 0 12.7029V11.7257ZM11.7257 2.4429H12.7029C14.7954 2.4429 16.2178 2.4448 17.3173 2.5346C18.3883 2.6221 18.936 2.7807 19.3181 2.9754C20.2374 3.4438 20.9848 4.1912 21.4532 5.1105C21.6479 5.4926 21.8065 6.0403 21.894 7.1112C21.9838 8.2107 21.9857 9.6332 21.9857 11.7257V12.7029C21.9857 14.7954 21.9838 16.2178 21.894 17.3173C21.8065 18.3883 21.6479 18.936 21.4532 19.3181C20.9848 20.2374 20.2374 20.9848 19.3181 21.4532C18.936 21.6479 18.3883 21.8065 17.3173 21.894C16.2178 21.9838 14.7954 21.9857 12.7029 21.9857H11.7257C9.63321 21.9857 8.21075 21.9838 7.11125 21.894C6.04026 21.8065 5.49257 21.6479 5.1105 21.4532C4.1912 20.9848 3.44378 20.2374 2.97537 19.3181C2.7807 18.936 2.62209 18.3883 2.53459 17.3173C2.44476 16.2178 2.44286 14.7954 2.44286 12.7029V11.7257C2.44286 9.6332 2.44476 8.2107 2.53459 7.1112C2.62209 6.0403 2.7807 5.4926 2.97537 5.1105C3.44378 4.1912 4.1912 3.4438 5.1105 2.9754C5.49257 2.7807 6.04026 2.6221 7.11125 2.5346C8.21075 2.4448 9.63321 2.4429 11.7257 2.4429Z" fill="white"/>
</g>
<mask id="mask1_3132_295" style="mask-type:luminance" maskUnits="userSpaceOnUse" x="45" y="0" width="17" height="31">
<path d="M62 0H45V31H62V0Z" fill="white"/>
</mask>
<g mask="url(#mask1_3132_295)">
<path d="M60.7693 17.2709L61.6438 11.7142H56.173V8.1098C56.173 6.5893 56.9358 5.1062 59.3862 5.1062H61.875V0.3755C61.875 0.3755 59.6173 0 57.4598 0C52.9521 0 50.0086 2.662 50.0086 7.4791V11.7142H45V17.2709H50.0086V30.7047C51.0141 30.8587 52.0428 30.9375 53.0908 30.9375C54.1387 30.9375 55.1674 30.8587 56.173 30.7047V17.2709H60.7693Z" fill="white"/>
</g>
<mask id="mask2_3132_295" style="mask-type:luminance" maskUnits="userSpaceOnUse" x="82" y="0" width="22" height="18">
<path d="M104 0H82V18H104V0Z" fill="white"/>
</mask>
<g mask="url(#mask2_3132_295)">
<path d="M88.8606 18C86.3353 18 83.9813 17.2636 82 15.9931C83.6822 16.1022 86.6509 15.8409 88.4975 14.0751C85.7197 13.9473 84.4669 11.8114 84.3035 10.8986C84.5396 10.9899 85.6652 11.0994 86.3007 10.8438C83.1053 10.0406 82.6151 7.2292 82.724 6.3712C83.3231 6.7911 84.3398 6.9371 84.7393 6.9006C81.7618 4.7647 82.8329 1.5517 83.3594 0.858002C85.4962 3.8259 88.6986 5.4928 92.6603 5.5855C92.5856 5.2571 92.5462 4.9151 92.5462 4.5639C92.5462 2.0433 94.5783 0 97.0851 0C98.3948 0 99.575 0.557801 100.404 1.45C101.279 1.2444 102.596 0.763101 103.24 0.346901C102.915 1.5152 101.905 2.4899 101.294 2.8511C101.299 2.8634 101.289 2.8388 101.294 2.8511C101.831 2.7697 103.283 2.4898 103.857 2.0994C103.573 2.7558 102.502 3.8471 101.623 4.4581C101.786 11.6907 96.2668 18 88.8606 18Z" fill="white"/>
</g>
<mask id="mask3_3132_295" style="mask-type:luminance" maskUnits="userSpaceOnUse" x="124" y="0" width="22" height="20">
<path d="M146 0H124V20H146V0Z" fill="white"/>
</mask>
<g mask="url(#mask3_3132_295)">
<path d="M129.089 2.3796C129.089 3.6938 127.949 4.7592 126.544 4.7592C125.139 4.7592 124 3.6938 124 2.3796C124 1.0654 125.139 0 126.544 0C127.949 0 129.089 1.0654 129.089 2.3796Z" fill="white"/>
<path d="M124.348 6.5083H128.697V19.6875H124.348V6.5083Z" fill="white"/>
<path d="M135.699 6.5083H131.35V19.6875H135.699C135.699 19.6875 135.699 15.5385 135.699 12.9443C135.699 11.3873 136.231 9.82339 138.352 9.82339C140.75 9.82339 140.735 11.8611 140.724 13.4397C140.71 15.5031 140.744 17.6089 140.744 19.6875H145.094V12.7318C145.057 8.29039 143.9 6.2439 140.092 6.2439C137.831 6.2439 136.429 7.2704 135.699 8.1992V6.5083Z" fill="white"/>
</g>
<mask id="mask4_3132_295" style="mask-type:luminance" maskUnits="userSpaceOnUse" x="166" y="0" width="19" height="19">
<path d="M185 0H166V19H185V0Z" fill="white"/>
</mask>
<g mask="url(#mask4_3132_295)">
<path d="M179.509 19C176.691 19 173.874 19 171.056 19C170.562 18.9339 170.068 18.8652 169.589 18.7145C167.934 18.1965 166.795 17.1551 166.306 15.4634C166.097 14.7418 166.01 13.9991 166.008 13.2511C165.997 10.6264 166 8.00168 166.002 5.37438C166.002 5.13388 166.005 4.89328 166.034 4.65278C166.201 3.27568 166.798 2.12328 167.847 1.21668C168.817 0.378784 169.98 0.0377829 171.233 0.0139829C172.827 -0.0150171 174.421 0.0113849 176.015 0.00348487C176.488 0.000784871 176.953 0.0404839 177.408 0.159384C179.308 0.656284 180.601 1.80348 181.074 3.73828C181.346 4.84308 181.343 5.97698 181.142 7.10038C181.113 7.26688 181.161 7.31448 181.314 7.30918C181.568 7.29858 181.819 7.34358 182.068 7.38848C183.257 7.60528 184.127 8.22108 184.542 9.39198C184.724 9.91008 184.764 10.4546 184.777 10.9964C184.793 11.6387 184.777 12.281 184.785 12.9233C184.793 13.5498 184.716 14.1683 184.555 14.7736C184.026 16.7639 182.81 18.1145 180.828 18.7383C180.4 18.8731 179.956 18.9392 179.509 19ZM175.375 11.3744C174.114 11.3744 172.853 11.3903 171.593 11.3691C170.723 11.3533 169.888 12.0854 169.949 13.0793C169.996 13.8669 170.673 14.5727 171.466 14.5753C174.072 14.5806 176.681 14.5832 179.287 14.5753C180.061 14.5727 180.765 13.8643 180.794 13.0872C180.831 12.1119 180.133 11.3797 179.155 11.3771C177.894 11.3718 176.633 11.3744 175.375 11.3744ZM173.903 7.08978C173.903 7.09248 173.903 7.09248 173.903 7.08978C174.55 7.09248 175.201 7.08188 175.848 7.09508C176.676 7.10828 177.553 6.38138 177.384 5.29248C177.265 4.52068 176.575 3.89158 175.801 3.88888C174.54 3.88628 173.279 3.88628 172.021 3.88888C170.953 3.89158 170.229 4.82458 170.401 5.78938C170.522 6.47928 171.149 7.06868 171.846 7.08718C172.531 7.10298 173.218 7.08978 173.903 7.08978Z" fill="white"/>
</g>
</svg>
